solid Exported from Blender-2.78 (sub 0)
facet normal -0.500000 0.866025 0.000000
outer loop
vertex -92.166656 -143.031891 -4.049998
vertex -101.692932 -148.531891 -4.049998
vertex -101.692932 -148.531891 12.449999
endloop
endfacet
facet normal -0.500001 0.866025 0.000000
outer loop
vertex -101.692932 -148.531891 12.449999
vertex -92.166656 -143.031891 12.449999
vertex -92.166656 -143.031891 -4.049998
endloop
endfacet
facet normal 0.500000 -0.866025 0.000000
outer loop
vertex -103.627121 -123.181717 -4.049998
vertex -103.627121 -123.181717 12.449999
vertex -113.153404 -128.681717 12.449999
endloop
endfacet
facet normal 0.499999 -0.866026 0.000000
outer loop
vertex -113.153404 -128.681717 12.449999
vertex -113.153404 -128.681717 -4.049998
vertex -103.627121 -123.181717 -4.049998
endloop
endfacet
facet normal 0.000000 0.000000 -1.000000
outer loop
vertex -92.166656 -143.031891 12.449999
vertex -101.692932 -148.531891 12.449999
vertex -113.153404 -128.681717 12.449999
endloop
endfacet
facet normal 0.000000 0.000000 -1.000000
outer loop
vertex -113.153404 -128.681717 12.449999
vertex -103.627121 -123.181717 12.449999
vertex -92.166656 -143.031891 12.449999
endloop
endfacet
facet normal 0.866026 0.499999 0.000000
outer loop
vertex -101.692932 -148.531891 12.449999
vertex -101.692932 -148.531891 -4.049998
vertex -113.153404 -128.681717 -4.049998
endloop
endfacet
facet normal 0.866026 0.499999 0.000000
outer loop
vertex -113.153404 -128.681717 -4.049998
vertex -113.153404 -128.681717 12.449999
vertex -101.692932 -148.531891 12.449999
endloop
endfacet
facet normal -0.866026 -0.499999 0.000000
outer loop
vertex -92.166656 -143.031891 -4.049998
vertex -92.166656 -143.031891 12.449999
vertex -103.627121 -123.181717 12.449999
endloop
endfacet
facet normal -0.866026 -0.499998 0.000000
outer loop
vertex -103.627121 -123.181717 12.449999
vertex -103.627121 -123.181717 -4.049998
vertex -92.166656 -143.031891 -4.049998
endloop
endfacet
facet normal 0.000000 0.000000 1.000000
outer loop
vertex -101.692932 -148.531891 -4.049998
vertex -92.166656 -143.031891 -4.049998
vertex -103.627121 -123.181717 -4.049998
endloop
endfacet
facet normal 0.000000 0.000000 1.000000
outer loop
vertex -103.627121 -123.181717 -4.049998
vertex -113.153404 -128.681717 -4.049998
vertex -101.692932 -148.531891 -4.049998
endloop
endfacet
endsolid Exported from Blender-2.78 (sub 0)
