solid Exported from Blender-2.78 (sub 0)
facet normal 0.000000 0.087158 0.996194
outer loop
vertex -135.500000 -101.999992 5.700001
vertex -135.500000 -102.434113 5.737981
vertex -132.524506 -102.434113 5.737982
endloop
endfacet
facet normal 0.000000 0.087245 0.996187
outer loop
vertex -132.524506 -102.434113 5.737982
vertex -132.517120 -102.392197 5.734314
vertex -132.517120 -101.999992 5.700001
endloop
endfacet
facet normal 0.000000 0.087153 0.996195
outer loop
vertex -132.524506 -102.434113 5.737982
vertex -132.517120 -101.999992 5.700001
vertex -135.500000 -101.999992 5.700001
endloop
endfacet
facet normal 1.000000 0.000000 0.000000
outer loop
vertex -132.517120 -102.392197 1.700001
vertex -132.517120 -101.607788 1.700001
vertex -132.517120 -101.607788 5.734314
endloop
endfacet
facet normal 1.000000 0.000000 0.000000
outer loop
vertex -132.517120 -101.999992 5.700001
vertex -132.517120 -102.392197 5.734314
vertex -132.517120 -102.392197 1.700001
endloop
endfacet
facet normal 1.000000 0.000000 0.000000
outer loop
vertex -132.517120 -101.607788 5.734314
vertex -132.517120 -101.999992 5.700001
vertex -132.517120 -102.392197 1.700001
endloop
endfacet
facet normal 0.000000 0.258814 0.965927
outer loop
vertex -132.524506 -102.434113 5.737982
vertex -135.500000 -102.434113 5.737981
vertex -135.500000 -102.855042 5.850770
endloop
endfacet
facet normal -0.000000 0.258816 0.965927
outer loop
vertex -135.500000 -102.855042 5.850770
vertex -132.598740 -102.855042 5.850770
vertex -132.524506 -102.434113 5.737982
endloop
endfacet
facet normal 0.000000 -0.087155 0.996195
outer loop
vertex -135.500000 -101.565872 5.737981
vertex -135.500000 -101.999992 5.700001
vertex -132.517120 -101.999992 5.700001
endloop
endfacet
facet normal -0.000103 -0.087228 0.996188
outer loop
vertex -132.517120 -101.999992 5.700001
vertex -132.517120 -101.607788 5.734314
vertex -132.524506 -101.565872 5.737981
endloop
endfacet
facet normal 0.000000 -0.087153 0.996195
outer loop
vertex -132.517120 -101.999992 5.700001
vertex -132.524506 -101.565872 5.737981
vertex -135.500000 -101.565872 5.737981
endloop
endfacet
facet normal -0.000000 0.422628 0.906303
outer loop
vertex -135.500000 -102.855042 5.850770
vertex -135.500000 -103.249992 6.034937
vertex -132.684387 -103.249992 6.034938
endloop
endfacet
facet normal 0.000044 0.423277 0.906000
outer loop
vertex -132.684387 -103.249992 6.034938
vertex -132.653336 -103.164680 5.995156
vertex -132.598740 -102.855042 5.850770
endloop
endfacet
facet normal 0.000000 0.422609 0.906312
outer loop
vertex -132.684387 -103.249992 6.034938
vertex -132.598740 -102.855042 5.850770
vertex -135.500000 -102.855042 5.850770
endloop
endfacet
facet normal 0.000000 -0.258829 0.965923
outer loop
vertex -135.500000 -101.565872 5.737981
vertex -132.524506 -101.565872 5.737981
vertex -132.598740 -101.144943 5.850769
endloop
endfacet
facet normal -0.000000 -0.258812 0.965927
outer loop
vertex -132.598740 -101.144943 5.850769
vertex -135.500000 -101.144943 5.850769
vertex -135.500000 -101.565872 5.737981
endloop
endfacet
facet normal 0.984793 -0.173730 0.000000
outer loop
vertex -132.598740 -102.855042 5.850770
vertex -132.653336 -103.164680 5.995156
vertex -132.653336 -103.164680 1.700001
endloop
endfacet
facet normal 0.984799 -0.173700 0.000000
outer loop
vertex -132.653336 -103.164680 1.700001
vertex -132.517120 -102.392197 1.700001
vertex -132.517120 -102.392197 5.734314
endloop
endfacet
facet normal 0.984821 -0.173570 0.000002
outer loop
vertex -132.524506 -102.434113 5.737982
vertex -132.598740 -102.855042 5.850770
vertex -132.653336 -103.164680 1.700001
endloop
endfacet
facet normal 0.984811 -0.173630 -0.000016
outer loop
vertex -132.653336 -103.164680 1.700001
vertex -132.517120 -102.392197 5.734314
vertex -132.524506 -102.434113 5.737982
endloop
endfacet
facet normal 0.000000 0.573590 0.819143
outer loop
vertex -135.500000 -103.606964 6.284890
vertex -132.814316 -103.606964 6.284890
vertex -132.684387 -103.249992 6.034938
endloop
endfacet
facet normal -0.000000 0.573559 0.819164
outer loop
vertex -132.684387 -103.249992 6.034938
vertex -135.500000 -103.249992 6.034937
vertex -135.500000 -103.606964 6.284890
endloop
endfacet
facet normal 0.939700 -0.341999 0.000000
outer loop
vertex -132.921616 -103.901772 1.700001
vertex -132.653336 -103.164680 1.700001
vertex -132.653336 -103.164680 5.995156
endloop
endfacet
facet normal 0.939605 -0.342261 -0.000003
outer loop
vertex -132.921616 -103.901772 1.700001
vertex -132.653336 -103.164680 5.995156
vertex -132.684387 -103.249992 6.034938
endloop
endfacet
facet normal 0.939701 -0.341998 0.000000
outer loop
vertex -132.814316 -103.606964 6.284890
vertex -132.921616 -103.901772 6.579703
vertex -132.921616 -103.901772 1.700001
endloop
endfacet
facet normal 0.939708 -0.341979 0.000001
outer loop
vertex -132.684387 -103.249992 6.034938
vertex -132.814316 -103.606964 6.284890
vertex -132.921616 -103.901772 1.700001
endloop
endfacet
facet normal 0.984799 0.173700 0.000000
outer loop
vertex -132.517120 -101.607788 5.734314
vertex -132.517120 -101.607788 1.700001
vertex -132.653336 -100.835304 1.700001
endloop
endfacet
facet normal 0.984801 0.173689 0.000000
outer loop
vertex -132.653336 -100.835304 1.700001
vertex -132.653336 -100.835304 5.995155
vertex -132.598740 -101.144943 5.850769
endloop
endfacet
facet normal 0.984850 0.173408 -0.000011
outer loop
vertex -132.524506 -101.565872 5.737981
vertex -132.517120 -101.607788 5.734314
vertex -132.653336 -100.835304 1.700001
endloop
endfacet
facet normal 0.984816 0.173602 0.000002
outer loop
vertex -132.653336 -100.835304 1.700001
vertex -132.598740 -101.144943 5.850769
vertex -132.524506 -101.565872 5.737981
endloop
endfacet
facet normal 0.000000 -0.422611 0.906311
outer loop
vertex -135.500000 -100.749992 6.034936
vertex -135.500000 -101.144943 5.850769
vertex -132.598740 -101.144943 5.850769
endloop
endfacet
facet normal -0.000022 -0.423167 0.906052
outer loop
vertex -132.598740 -101.144943 5.850769
vertex -132.653336 -100.835304 5.995155
vertex -132.684387 -100.749992 6.034937
endloop
endfacet
facet normal 0.000000 -0.422626 0.906304
outer loop
vertex -132.598740 -101.144943 5.850769
vertex -132.684387 -100.749992 6.034937
vertex -135.500000 -100.749992 6.034936
endloop
endfacet
facet normal 0.000000 0.707114 0.707100
outer loop
vertex -135.500000 -103.606964 6.284890
vertex -135.500000 -103.915100 6.593032
vertex -132.929306 -103.915100 6.593032
endloop
endfacet
facet normal 0.000201 0.707911 0.706302
outer loop
vertex -132.929306 -103.915100 6.593032
vertex -132.921616 -103.901772 6.579703
vertex -132.814316 -103.606964 6.284890
endloop
endfacet
facet normal 0.000000 0.707110 0.707104
outer loop
vertex -132.929306 -103.915100 6.593032
vertex -132.814316 -103.606964 6.284890
vertex -135.500000 -103.606964 6.284890
endloop
endfacet
facet normal 0.866027 -0.499998 0.000000
outer loop
vertex -133.313812 -104.581085 1.700001
vertex -132.921616 -103.901772 1.700001
vertex -132.921616 -103.901772 6.579703
endloop
endfacet
facet normal 0.866072 -0.499919 -0.000125
outer loop
vertex -133.313812 -104.581085 1.700001
vertex -132.921616 -103.901772 6.579703
vertex -132.929306 -103.915100 6.593032
endloop
endfacet
facet normal 0.866027 -0.499998 0.000000
outer loop
vertex -132.921616 -103.901772 9.820297
vertex -132.921616 -103.901772 14.699999
vertex -133.313812 -104.581085 14.699999
endloop
endfacet
facet normal 0.866299 -0.499526 0.000089
outer loop
vertex -132.929306 -103.915100 9.806969
vertex -132.921616 -103.901772 9.820297
vertex -133.313812 -104.581085 14.699999
endloop
endfacet
facet normal 0.865974 -0.500088 0.000003
outer loop
vertex -133.313812 -104.581085 1.700001
vertex -132.929306 -103.915100 6.593032
vertex -133.073624 -104.165054 6.950001
endloop
endfacet
facet normal 0.866057 -0.499945 0.000000
outer loop
vertex -133.313812 -104.581085 1.700001
vertex -133.073624 -104.165054 6.950001
vertex -133.179947 -104.349220 7.344951
endloop
endfacet
facet normal 0.865992 -0.500058 -0.000005
outer loop
vertex -133.073624 -104.165054 9.450000
vertex -132.929306 -103.915100 9.806969
vertex -133.313812 -104.581085 14.699999
endloop
endfacet
facet normal 0.866029 -0.499993 0.000000
outer loop
vertex -133.179947 -104.349220 9.055050
vertex -133.073624 -104.165054 9.450000
vertex -133.313812 -104.581085 14.699999
endloop
endfacet
facet normal 0.866035 -0.499983 0.000000
outer loop
vertex -133.313812 -104.581085 1.700001
vertex -133.179947 -104.349220 7.344951
vertex -133.245071 -104.462013 7.765880
endloop
endfacet
facet normal 0.866090 -0.499888 -0.000001
outer loop
vertex -133.313812 -104.581085 1.700001
vertex -133.245071 -104.462013 7.765880
vertex -133.266998 -104.499992 8.200001
endloop
endfacet
facet normal 0.866027 -0.499997 0.000000
outer loop
vertex -133.245071 -104.462013 8.634121
vertex -133.179947 -104.349220 9.055050
vertex -133.313812 -104.581085 14.699999
endloop
endfacet
facet normal 0.866027 -0.499998 0.000000
outer loop
vertex -133.313812 -104.581085 14.699999
vertex -133.313812 -104.581085 1.700001
vertex -133.266998 -104.499992 8.200001
endloop
endfacet
facet normal 0.866039 -0.499976 0.000000
outer loop
vertex -133.266998 -104.499992 8.200001
vertex -133.245071 -104.462013 8.634121
vertex -133.313812 -104.581085 14.699999
endloop
endfacet
facet normal 0.000000 -0.573564 0.819161
outer loop
vertex -135.500000 -100.749992 6.034936
vertex -132.684387 -100.749992 6.034937
vertex -132.814316 -100.393028 6.284889
endloop
endfacet
facet normal -0.000000 -0.573584 0.819147
outer loop
vertex -132.814316 -100.393028 6.284889
vertex -135.500000 -100.393028 6.284888
vertex -135.500000 -100.749992 6.034936
endloop
endfacet
facet normal 0.000000 0.819155 0.573572
outer loop
vertex -135.500000 -104.165054 6.950001
vertex -133.073624 -104.165054 6.950001
vertex -132.929306 -103.915100 6.593032
endloop
endfacet
facet normal 0.000000 0.819138 0.573597
outer loop
vertex -132.929306 -103.915100 6.593032
vertex -135.500000 -103.915100 6.593032
vertex -135.500000 -104.165054 6.950001
endloop
endfacet
facet normal 0.000000 0.906311 0.422612
outer loop
vertex -135.500000 -104.349220 7.344951
vertex -133.179947 -104.349220 7.344951
vertex -133.073624 -104.165054 6.950001
endloop
endfacet
facet normal 0.000000 0.906306 0.422621
outer loop
vertex -133.073624 -104.165054 6.950001
vertex -135.500000 -104.165054 6.950001
vertex -135.500000 -104.349220 7.344951
endloop
endfacet
facet normal 0.000000 0.965922 0.258832
outer loop
vertex -135.500000 -104.462013 7.765880
vertex -133.245071 -104.462013 7.765880
vertex -133.179947 -104.349220 7.344951
endloop
endfacet
facet normal 0.000000 0.965923 0.258831
outer loop
vertex -133.179947 -104.349220 7.344951
vertex -135.500000 -104.349220 7.344951
vertex -135.500000 -104.462013 7.765880
endloop
endfacet
facet normal 0.000000 0.996194 0.087161
outer loop
vertex -135.500000 -104.499992 8.200001
vertex -133.266998 -104.499992 8.200001
vertex -133.245071 -104.462013 7.765880
endloop
endfacet
facet normal 0.000000 0.996196 0.087144
outer loop
vertex -133.245071 -104.462013 7.765880
vertex -135.500000 -104.462013 7.765880
vertex -135.500000 -104.499992 8.200001
endloop
endfacet
facet normal 0.000000 0.996195 -0.087151
outer loop
vertex -135.500000 -104.462013 8.634121
vertex -133.245071 -104.462013 8.634121
vertex -133.266998 -104.499992 8.200001
endloop
endfacet
facet normal 0.000000 0.996195 -0.087153
outer loop
vertex -133.266998 -104.499992 8.200001
vertex -135.500000 -104.499992 8.200001
vertex -135.500000 -104.462013 8.634121
endloop
endfacet
facet normal 0.000000 0.965920 -0.258840
outer loop
vertex -135.500000 -104.349220 9.055050
vertex -133.179947 -104.349220 9.055050
vertex -133.245071 -104.462013 8.634121
endloop
endfacet
facet normal 0.000000 0.965925 -0.258822
outer loop
vertex -133.245071 -104.462013 8.634121
vertex -135.500000 -104.462013 8.634121
vertex -135.500000 -104.349220 9.055050
endloop
endfacet
facet normal 0.000000 0.906296 -0.422644
outer loop
vertex -135.500000 -104.165054 9.450000
vertex -133.073624 -104.165054 9.450000
vertex -133.179947 -104.349220 9.055050
endloop
endfacet
facet normal 0.000000 0.906322 -0.422588
outer loop
vertex -133.179947 -104.349220 9.055050
vertex -135.500000 -104.349220 9.055050
vertex -135.500000 -104.165054 9.450000
endloop
endfacet
facet normal 0.000000 0.819139 -0.573595
outer loop
vertex -135.500000 -103.915100 9.806969
vertex -132.929306 -103.915100 9.806969
vertex -133.073624 -104.165054 9.450000
endloop
endfacet
facet normal 0.000000 0.819154 -0.573574
outer loop
vertex -133.073624 -104.165054 9.450000
vertex -135.500000 -104.165054 9.450000
vertex -135.500000 -103.915100 9.806969
endloop
endfacet
facet normal 0.000000 0.707104 -0.707110
outer loop
vertex -135.500000 -103.915100 9.806969
vertex -135.500000 -103.606964 10.115111
vertex -132.814316 -103.606964 10.115111
endloop
endfacet
facet normal 0.000126 0.706400 -0.707812
outer loop
vertex -132.814316 -103.606964 10.115111
vertex -132.921616 -103.901772 9.820297
vertex -132.929306 -103.915100 9.806969
endloop
endfacet
facet normal 0.000000 0.707120 -0.707093
outer loop
vertex -132.814316 -103.606964 10.115111
vertex -132.929306 -103.915100 9.806969
vertex -135.500000 -103.915100 9.806969
endloop
endfacet
facet normal 0.939749 -0.341866 0.000000
outer loop
vertex -132.684387 -103.249992 10.365064
vertex -132.653336 -103.164680 10.404845
vertex -132.653336 -103.164680 14.699999
endloop
endfacet
facet normal 0.939696 -0.342011 0.000000
outer loop
vertex -132.653336 -103.164680 14.699999
vertex -132.921616 -103.901772 14.699999
vertex -132.921616 -103.901772 9.820297
endloop
endfacet
facet normal 0.939701 -0.341996 0.000001
outer loop
vertex -132.814316 -103.606964 10.115111
vertex -132.684387 -103.249992 10.365064
vertex -132.653336 -103.164680 14.699999
endloop
endfacet
facet normal 0.939687 -0.342035 -0.000001
outer loop
vertex -132.653336 -103.164680 14.699999
vertex -132.921616 -103.901772 9.820297
vertex -132.814316 -103.606964 10.115111
endloop
endfacet
facet normal 0.766045 -0.642787 0.000000
outer loop
vertex -133.313812 -104.581085 1.700001
vertex -133.313812 -104.581085 14.699999
vertex -133.818024 -105.181976 14.699999
endloop
endfacet
facet normal 0.766045 -0.642787 0.000000
outer loop
vertex -133.818024 -105.181976 14.699999
vertex -133.818024 -105.181976 1.700001
vertex -133.313812 -104.581085 1.700001
endloop
endfacet
facet normal 0.939701 0.341996 0.000000
outer loop
vertex -132.653336 -100.835304 5.995155
vertex -132.653336 -100.835304 1.700001
vertex -132.921616 -100.098206 1.700001
endloop
endfacet
facet normal 0.939707 0.341982 0.000000
outer loop
vertex -132.921616 -100.098206 1.700001
vertex -132.921616 -100.098206 6.579710
vertex -132.814316 -100.393028 6.284889
endloop
endfacet
facet normal 0.939598 0.342279 0.000009
outer loop
vertex -132.684387 -100.749992 6.034937
vertex -132.653336 -100.835304 5.995155
vertex -132.921616 -100.098206 1.700001
endloop
endfacet
facet normal 0.939698 0.342007 0.000002
outer loop
vertex -132.921616 -100.098206 1.700001
vertex -132.814316 -100.393028 6.284889
vertex -132.684387 -100.749992 6.034937
endloop
endfacet
facet normal -0.000000 -0.707104 0.707109
outer loop
vertex -135.500000 -100.084885 6.593031
vertex -135.500000 -100.393028 6.284888
vertex -132.814316 -100.393028 6.284889
endloop
endfacet
facet normal -0.000076 -0.705794 0.708417
outer loop
vertex -132.814316 -100.393028 6.284889
vertex -132.921616 -100.098206 6.579710
vertex -132.929306 -100.084885 6.593031
endloop
endfacet
facet normal 0.000000 -0.707093 0.707120
outer loop
vertex -132.814316 -100.393028 6.284889
vertex -132.929306 -100.084885 6.593031
vertex -135.500000 -100.084885 6.593031
endloop
endfacet
facet normal 0.000000 0.573565 -0.819160
outer loop
vertex -135.500000 -103.249992 10.365064
vertex -132.684387 -103.249992 10.365064
vertex -132.814316 -103.606964 10.115111
endloop
endfacet
facet normal 0.000000 0.573584 -0.819147
outer loop
vertex -132.814316 -103.606964 10.115111
vertex -135.500000 -103.606964 10.115111
vertex -135.500000 -103.249992 10.365064
endloop
endfacet
facet normal 0.000000 0.422610 -0.906312
outer loop
vertex -135.500000 -103.249992 10.365064
vertex -135.500000 -102.855042 10.549232
vertex -132.598740 -102.855042 10.549232
endloop
endfacet
facet normal -0.000087 0.423167 -0.906052
outer loop
vertex -132.598740 -102.855042 10.549232
vertex -132.653336 -103.164680 10.404845
vertex -132.684387 -103.249992 10.365064
endloop
endfacet
facet normal 0.000000 0.422627 -0.906304
outer loop
vertex -132.598740 -102.855042 10.549232
vertex -132.684387 -103.249992 10.365064
vertex -135.500000 -103.249992 10.365064
endloop
endfacet
facet normal 0.984840 -0.173467 0.000000
outer loop
vertex -132.524506 -102.434113 10.662020
vertex -132.517120 -102.392197 10.665687
vertex -132.517120 -102.392197 14.699999
endloop
endfacet
facet normal 0.984806 -0.173660 0.000000
outer loop
vertex -132.517120 -102.392197 14.699999
vertex -132.653336 -103.164680 14.699999
vertex -132.653336 -103.164680 10.404845
endloop
endfacet
facet normal 0.984812 -0.173625 0.000002
outer loop
vertex -132.598740 -102.855042 10.549232
vertex -132.524506 -102.434113 10.662020
vertex -132.517120 -102.392197 14.699999
endloop
endfacet
facet normal 0.984790 -0.173748 -0.000003
outer loop
vertex -132.598740 -102.855042 10.549232
vertex -132.517120 -102.392197 14.699999
vertex -132.653336 -103.164680 10.404845
endloop
endfacet
facet normal 0.642788 -0.766044 0.000000
outer loop
vertex -133.818024 -105.181976 1.700001
vertex -133.818024 -105.181976 14.699999
vertex -134.418900 -105.686180 14.699999
endloop
endfacet
facet normal 0.642799 -0.766034 0.000000
outer loop
vertex -134.418900 -105.686180 14.699999
vertex -134.418900 -105.686180 1.700001
vertex -133.818024 -105.181976 1.700001
endloop
endfacet
facet normal 0.866024 0.500002 0.000000
outer loop
vertex -133.313812 -99.418900 14.699999
vertex -132.921616 -100.098206 14.699999
vertex -132.921616 -100.098206 9.820296
endloop
endfacet
facet normal 0.866048 0.499960 -0.000049
outer loop
vertex -133.313812 -99.418900 14.699999
vertex -132.921616 -100.098206 9.820296
vertex -132.929306 -100.084877 9.806968
endloop
endfacet
facet normal 0.866038 0.499978 0.000000
outer loop
vertex -132.921616 -100.098206 6.579710
vertex -132.921616 -100.098206 1.700001
vertex -133.313812 -99.418900 1.700001
endloop
endfacet
facet normal 0.865554 0.500816 0.000089
outer loop
vertex -132.929306 -100.084885 6.593031
vertex -132.921616 -100.098206 6.579710
vertex -133.313812 -99.418900 1.700001
endloop
endfacet
facet normal 0.865968 0.500099 0.000000
outer loop
vertex -133.313812 -99.418900 14.699999
vertex -132.929306 -100.084877 9.806968
vertex -133.073624 -99.834930 9.449999
endloop
endfacet
facet normal 0.866057 0.499945 0.000000
outer loop
vertex -133.313812 -99.418900 14.699999
vertex -133.073624 -99.834930 9.449999
vertex -133.179947 -99.650764 9.055049
endloop
endfacet
facet normal 0.865992 0.500058 0.000000
outer loop
vertex -133.073624 -99.834930 6.950000
vertex -132.929306 -100.084885 6.593031
vertex -133.313812 -99.418900 1.700001
endloop
endfacet
facet normal 0.866029 0.499993 0.000000
outer loop
vertex -133.179947 -99.650764 7.344949
vertex -133.073624 -99.834930 6.950000
vertex -133.313812 -99.418900 1.700001
endloop
endfacet
facet normal 0.865973 0.500091 0.000000
outer loop
vertex -133.313812 -99.418900 14.699999
vertex -133.179947 -99.650764 9.055049
vertex -133.245071 -99.537971 8.634119
endloop
endfacet
facet normal 0.866242 0.499625 0.000003
outer loop
vertex -133.313812 -99.418900 14.699999
vertex -133.245071 -99.537971 8.634119
vertex -133.266998 -99.499992 8.199999
endloop
endfacet
facet normal 0.866027 0.499997 0.000000
outer loop
vertex -133.245071 -99.537971 7.765879
vertex -133.179947 -99.650764 7.344949
vertex -133.313812 -99.418900 1.700001
endloop
endfacet
facet normal 0.866027 0.499998 0.000000
outer loop
vertex -133.313812 -99.418900 1.700001
vertex -133.313812 -99.418900 14.699999
vertex -133.266998 -99.499992 8.199999
endloop
endfacet
facet normal 0.866070 0.499923 -0.000003
outer loop
vertex -133.313812 -99.418900 1.700001
vertex -133.266998 -99.499992 8.199999
vertex -133.245071 -99.537971 7.765879
endloop
endfacet
facet normal 0.000000 -0.819163 0.573560
outer loop
vertex -135.500000 -100.084885 6.593031
vertex -132.929306 -100.084885 6.593031
vertex -133.073624 -99.834930 6.950000
endloop
endfacet
facet normal 0.000000 -0.819140 0.573594
outer loop
vertex -133.073624 -99.834930 6.950000
vertex -135.500000 -99.834930 6.950000
vertex -135.500000 -100.084885 6.593031
endloop
endfacet
facet normal 0.000000 0.258817 -0.965926
outer loop
vertex -135.500000 -102.434113 10.662020
vertex -132.524506 -102.434113 10.662020
vertex -132.598740 -102.855042 10.549232
endloop
endfacet
facet normal 0.000000 0.258812 -0.965927
outer loop
vertex -132.598740 -102.855042 10.549232
vertex -135.500000 -102.855042 10.549232
vertex -135.500000 -102.434113 10.662020
endloop
endfacet
facet normal 0.499986 -0.866034 0.000000
outer loop
vertex -134.418900 -105.686180 1.700001
vertex -134.418900 -105.686180 14.699999
vertex -135.098221 -106.078377 14.699999
endloop
endfacet
facet normal 0.499996 -0.866028 0.000000
outer loop
vertex -135.098221 -106.078377 14.699999
vertex -135.098221 -106.078377 1.700001
vertex -134.418900 -105.686180 1.700001
endloop
endfacet
facet normal 0.766045 0.642787 0.000000
outer loop
vertex -133.818024 -98.818008 1.700001
vertex -133.818024 -98.818008 14.699999
vertex -133.313812 -99.418900 14.699999
endloop
endfacet
facet normal 0.766045 0.642787 0.000000
outer loop
vertex -133.313812 -99.418900 14.699999
vertex -133.313812 -99.418900 1.700001
vertex -133.818024 -98.818008 1.700001
endloop
endfacet
facet normal 0.939703 0.341990 0.000000
outer loop
vertex -132.814316 -100.393021 10.115110
vertex -132.921616 -100.098206 9.820296
vertex -132.921616 -100.098206 14.699999
endloop
endfacet
facet normal 0.939701 0.341996 0.000000
outer loop
vertex -132.921616 -100.098206 14.699999
vertex -132.653336 -100.835304 14.699999
vertex -132.653336 -100.835304 10.404844
endloop
endfacet
facet normal 0.939708 0.341979 0.000000
outer loop
vertex -132.684387 -100.749992 10.365063
vertex -132.814316 -100.393021 10.115110
vertex -132.921616 -100.098206 14.699999
endloop
endfacet
facet normal 0.939605 0.342261 -0.000012
outer loop
vertex -132.921616 -100.098206 14.699999
vertex -132.653336 -100.835304 10.404844
vertex -132.684387 -100.749992 10.365063
endloop
endfacet
facet normal 0.000000 -0.707090 -0.707124
outer loop
vertex -135.500000 -100.393021 10.115110
vertex -135.500000 -100.084877 9.806968
vertex -132.929306 -100.084877 9.806968
endloop
endfacet
facet normal 0.000000 -0.703871 -0.710328
outer loop
vertex -132.929306 -100.084877 9.806968
vertex -132.921616 -100.098206 9.820296
vertex -132.814316 -100.393021 10.115110
endloop
endfacet
facet normal 0.000000 -0.707107 -0.707107
outer loop
vertex -132.929306 -100.084877 9.806968
vertex -132.814316 -100.393021 10.115110
vertex -135.500000 -100.393021 10.115110
endloop
endfacet
facet normal 0.000000 -0.819166 -0.573556
outer loop
vertex -135.500000 -99.834930 9.449999
vertex -133.073624 -99.834930 9.449999
vertex -132.929306 -100.084877 9.806968
endloop
endfacet
facet normal 0.000000 -0.819138 -0.573597
outer loop
vertex -132.929306 -100.084877 9.806968
vertex -135.500000 -100.084877 9.806968
vertex -135.500000 -99.834930 9.449999
endloop
endfacet
facet normal 0.000000 -0.906321 -0.422590
outer loop
vertex -135.500000 -99.650764 9.055049
vertex -133.179947 -99.650764 9.055049
vertex -133.073624 -99.834930 9.449999
endloop
endfacet
facet normal 0.000000 -0.906306 -0.422621
outer loop
vertex -133.073624 -99.834930 9.449999
vertex -135.500000 -99.834930 9.449999
vertex -135.500000 -99.650764 9.055049
endloop
endfacet
facet normal 0.000000 -0.965923 -0.258831
outer loop
vertex -135.500000 -99.537971 8.634119
vertex -133.245071 -99.537971 8.634119
vertex -133.179947 -99.650764 9.055049
endloop
endfacet
facet normal 0.000000 -0.965923 -0.258831
outer loop
vertex -133.179947 -99.650764 9.055049
vertex -135.500000 -99.650764 9.055049
vertex -135.500000 -99.537971 8.634119
endloop
endfacet
facet normal 0.000000 -0.996194 -0.087162
outer loop
vertex -135.500000 -99.499992 8.199999
vertex -133.266998 -99.499992 8.199999
vertex -133.245071 -99.537971 8.634119
endloop
endfacet
facet normal 0.000000 -0.996196 -0.087144
outer loop
vertex -133.245071 -99.537971 8.634119
vertex -135.500000 -99.537971 8.634119
vertex -135.500000 -99.499992 8.199999
endloop
endfacet
facet normal 0.000000 -0.996195 0.087152
outer loop
vertex -135.500000 -99.537971 7.765879
vertex -133.245071 -99.537971 7.765879
vertex -133.266998 -99.499992 8.199999
endloop
endfacet
facet normal 0.000000 -0.996195 0.087153
outer loop
vertex -133.266998 -99.499992 8.199999
vertex -135.500000 -99.499992 8.199999
vertex -135.500000 -99.537971 7.765879
endloop
endfacet
facet normal 0.000000 -0.965920 0.258840
outer loop
vertex -135.500000 -99.650764 7.344949
vertex -133.179947 -99.650764 7.344949
vertex -133.245071 -99.537971 7.765879
endloop
endfacet
facet normal 0.000000 -0.965925 0.258822
outer loop
vertex -133.245071 -99.537971 7.765879
vertex -135.500000 -99.537971 7.765879
vertex -135.500000 -99.650764 7.344949
endloop
endfacet
facet normal 0.000000 -0.906305 0.422624
outer loop
vertex -135.500000 -99.834930 6.950000
vertex -133.073624 -99.834930 6.950000
vertex -133.179947 -99.650764 7.344949
endloop
endfacet
facet normal 0.000000 -0.906321 0.422590
outer loop
vertex -133.179947 -99.650764 7.344949
vertex -135.500000 -99.650764 7.344949
vertex -135.500000 -99.834930 6.950000
endloop
endfacet
facet normal 0.000000 0.087151 -0.996195
outer loop
vertex -135.500000 -102.434113 10.662020
vertex -135.500000 -101.999992 10.700000
vertex -132.517120 -101.999992 10.700000
endloop
endfacet
facet normal 0.000102 0.087225 -0.996189
outer loop
vertex -132.517120 -101.999992 10.700000
vertex -132.517120 -102.392197 10.665687
vertex -132.524506 -102.434113 10.662020
endloop
endfacet
facet normal 0.000000 0.087157 -0.996195
outer loop
vertex -132.517120 -101.999992 10.700000
vertex -132.524506 -102.434113 10.662020
vertex -135.500000 -102.434113 10.662020
endloop
endfacet
facet normal 0.342018 -0.939693 0.000000
outer loop
vertex -135.098221 -106.078377 1.700001
vertex -135.098221 -106.078377 14.699999
vertex -135.835312 -106.346657 14.699999
endloop
endfacet
facet normal 0.342026 -0.939691 0.000000
outer loop
vertex -135.835312 -106.346657 14.699999
vertex -135.835312 -106.346657 1.700001
vertex -135.098221 -106.078377 1.700001
endloop
endfacet
facet normal 0.642776 0.766054 0.000000
outer loop
vertex -134.418915 -98.313805 1.700001
vertex -134.418915 -98.313805 14.699999
vertex -133.818024 -98.818008 14.699999
endloop
endfacet
facet normal 0.642788 0.766044 0.000000
outer loop
vertex -133.818024 -98.818008 14.699999
vertex -133.818024 -98.818008 1.700001
vertex -134.418915 -98.313805 1.700001
endloop
endfacet
facet normal 0.000000 -0.573589 -0.819144
outer loop
vertex -135.500000 -100.393021 10.115110
vertex -132.814316 -100.393021 10.115110
vertex -132.684387 -100.749992 10.365063
endloop
endfacet
facet normal 0.000000 -0.573559 -0.819164
outer loop
vertex -132.684387 -100.749992 10.365063
vertex -135.500000 -100.749992 10.365063
vertex -135.500000 -100.393021 10.115110
endloop
endfacet
facet normal 0.000000 -0.087159 -0.996194
outer loop
vertex -135.500000 -101.999992 10.700000
vertex -135.500000 -101.565872 10.662019
vertex -132.524506 -101.565872 10.662019
endloop
endfacet
facet normal -0.000328 -0.087249 -0.996186
outer loop
vertex -132.524506 -101.565872 10.662019
vertex -132.517120 -101.607788 10.665686
vertex -132.517120 -101.999992 10.700000
endloop
endfacet
facet normal 0.000000 -0.087153 -0.996195
outer loop
vertex -132.524506 -101.565872 10.662019
vertex -132.517120 -101.999992 10.700000
vertex -135.500000 -101.999992 10.700000
endloop
endfacet
facet normal 1.000000 -0.000077 0.000000
outer loop
vertex -132.517120 -101.999992 10.700000
vertex -132.517120 -101.607788 10.665686
vertex -132.517120 -101.607788 14.699999
endloop
endfacet
facet normal 1.000000 0.000000 0.000000
outer loop
vertex -132.517120 -101.607788 14.699999
vertex -132.517120 -102.392197 14.699999
vertex -132.517120 -102.392197 10.665687
endloop
endfacet
facet normal 1.000000 0.000037 0.000000
outer loop
vertex -132.517120 -101.607788 14.699999
vertex -132.517120 -102.392197 10.665687
vertex -132.517120 -101.999992 10.700000
endloop
endfacet
facet normal 0.173652 -0.984807 0.000000
outer loop
vertex -135.835312 -106.346657 1.700001
vertex -135.835312 -106.346657 14.699999
vertex -136.607803 -106.482872 14.699999
endloop
endfacet
facet normal 0.173656 -0.984806 0.000000
outer loop
vertex -136.607803 -106.482872 14.699999
vertex -136.607803 -106.482872 1.700001
vertex -135.835312 -106.346657 1.700001
endloop
endfacet
facet normal 0.500006 0.866022 0.000000
outer loop
vertex -135.098221 -97.921608 1.700001
vertex -135.098221 -97.921608 14.699999
vertex -134.418915 -98.313805 14.699999
endloop
endfacet
facet normal 0.499996 0.866028 0.000000
outer loop
vertex -134.418915 -98.313805 14.699999
vertex -134.418915 -98.313805 1.700001
vertex -135.098221 -97.921608 1.700001
endloop
endfacet
facet normal 0.000000 -0.422627 -0.906304
outer loop
vertex -135.500000 -101.144943 10.549231
vertex -135.500000 -100.749992 10.365063
vertex -132.684387 -100.749992 10.365063
endloop
endfacet
facet normal 0.000000 -0.423344 -0.905969
outer loop
vertex -132.684387 -100.749992 10.365063
vertex -132.653336 -100.835304 10.404844
vertex -132.598740 -101.144943 10.549231
endloop
endfacet
facet normal 0.000000 -0.422610 -0.906312
outer loop
vertex -132.684387 -100.749992 10.365063
vertex -132.598740 -101.144943 10.549231
vertex -135.500000 -101.144943 10.549231
endloop
endfacet
facet normal 0.000000 -0.258816 -0.965927
outer loop
vertex -135.500000 -101.144943 10.549231
vertex -132.598740 -101.144943 10.549231
vertex -132.524506 -101.565872 10.662019
endloop
endfacet
facet normal 0.000000 -0.258826 -0.965924
outer loop
vertex -132.524506 -101.565872 10.662019
vertex -135.500000 -101.565872 10.662019
vertex -135.500000 -101.144943 10.549231
endloop
endfacet
facet normal 0.000000 -1.000000 0.000000
outer loop
vertex -136.607803 -106.482872 1.700001
vertex -136.607803 -106.482872 14.699999
vertex -137.392197 -106.482872 14.699999
endloop
endfacet
facet normal 0.000000 -1.000000 0.000000
outer loop
vertex -137.392197 -106.482872 14.699999
vertex -137.392197 -106.482872 1.700001
vertex -136.607803 -106.482872 1.700001
endloop
endfacet
facet normal 0.342026 0.939691 0.000000
outer loop
vertex -135.835312 -97.653328 1.700001
vertex -135.835312 -97.653328 14.699999
vertex -135.098221 -97.921608 14.699999
endloop
endfacet
facet normal 0.342018 0.939693 0.000000
outer loop
vertex -135.098221 -97.921608 14.699999
vertex -135.098221 -97.921608 1.700001
vertex -135.835312 -97.653328 1.700001
endloop
endfacet
facet normal 0.984793 0.173730 0.000000
outer loop
vertex -132.598740 -101.144943 10.549231
vertex -132.653336 -100.835304 10.404844
vertex -132.653336 -100.835304 14.699999
endloop
endfacet
facet normal 0.984799 0.173700 0.000000
outer loop
vertex -132.653336 -100.835304 14.699999
vertex -132.517120 -101.607788 14.699999
vertex -132.517120 -101.607788 10.665686
endloop
endfacet
facet normal 0.984821 0.173570 -0.000002
outer loop
vertex -132.524506 -101.565872 10.662019
vertex -132.598740 -101.144943 10.549231
vertex -132.653336 -100.835304 14.699999
endloop
endfacet
facet normal 0.984803 0.173677 0.000006
outer loop
vertex -132.653336 -100.835304 14.699999
vertex -132.517120 -101.607788 10.665686
vertex -132.524506 -101.565872 10.662019
endloop
endfacet
facet normal -0.173652 -0.984807 0.000000
outer loop
vertex -137.392197 -106.482872 1.700001
vertex -137.392197 -106.482872 14.699999
vertex -138.164688 -106.346657 14.699999
endloop
endfacet
facet normal -0.173656 -0.984806 0.000000
outer loop
vertex -138.164688 -106.346657 14.699999
vertex -138.164688 -106.346657 1.700001
vertex -137.392197 -106.482872 1.700001
endloop
endfacet
facet normal 0.173656 0.984806 0.000000
outer loop
vertex -136.607803 -97.517113 1.700001
vertex -136.607803 -97.517113 14.699999
vertex -135.835312 -97.653328 14.699999
endloop
endfacet
facet normal 0.173652 0.984807 0.000000
outer loop
vertex -135.835312 -97.653328 14.699999
vertex -135.835312 -97.653328 1.700001
vertex -136.607803 -97.517113 1.700001
endloop
endfacet
facet normal -0.342018 -0.939693 0.000000
outer loop
vertex -138.164688 -106.346657 1.700001
vertex -138.164688 -106.346657 14.699999
vertex -138.901779 -106.078377 14.699999
endloop
endfacet
facet normal -0.342018 -0.939693 0.000000
outer loop
vertex -138.901779 -106.078377 14.699999
vertex -138.901779 -106.078377 1.700001
vertex -138.164688 -106.346657 1.700001
endloop
endfacet
facet normal 0.000000 1.000000 0.000000
outer loop
vertex -137.392197 -97.517113 1.700001
vertex -137.392197 -97.517113 14.699999
vertex -136.607803 -97.517113 14.699999
endloop
endfacet
facet normal 0.000000 1.000000 0.000000
outer loop
vertex -136.607803 -97.517113 14.699999
vertex -136.607803 -97.517113 1.700001
vertex -137.392197 -97.517113 1.700001
endloop
endfacet
facet normal -0.499996 -0.866028 0.000000
outer loop
vertex -138.901779 -106.078377 1.700001
vertex -138.901779 -106.078377 14.699999
vertex -139.581100 -105.686180 14.699999
endloop
endfacet
facet normal -0.499986 -0.866034 0.000000
outer loop
vertex -139.581100 -105.686180 14.699999
vertex -139.581100 -105.686180 1.700001
vertex -138.901779 -106.078377 1.700001
endloop
endfacet
facet normal -0.173656 0.984806 0.000000
outer loop
vertex -138.164688 -97.653328 1.700001
vertex -138.164688 -97.653328 14.699999
vertex -137.392197 -97.517113 14.699999
endloop
endfacet
facet normal -0.173652 0.984807 0.000000
outer loop
vertex -137.392197 -97.517113 14.699999
vertex -137.392197 -97.517113 1.700001
vertex -138.164688 -97.653328 1.700001
endloop
endfacet
facet normal -1.000000 0.000000 0.000000
outer loop
vertex -139.581100 -102.000000 4.200000
vertex -139.581100 -100.805305 4.889755
vertex -139.581100 -98.313812 1.700001
endloop
endfacet
facet normal -1.000000 -0.000003 0.000000
outer loop
vertex -139.581100 -105.686180 14.699999
vertex -139.581100 -103.194687 11.510249
vertex -139.581100 -105.464104 10.200001
endloop
endfacet
facet normal -1.000000 0.000000 0.000000
outer loop
vertex -139.581100 -105.464104 6.200000
vertex -139.581100 -102.000000 4.200000
vertex -139.581100 -98.313812 1.700001
endloop
endfacet
facet normal -1.000000 -0.000137 0.000000
outer loop
vertex -139.581100 -105.686180 14.699999
vertex -139.581100 -105.464104 10.200001
vertex -139.581100 -105.464104 6.200000
endloop
endfacet
facet normal -1.000000 0.000000 0.000000
outer loop
vertex -139.581100 -105.464104 6.200000
vertex -139.581100 -98.313812 1.700001
vertex -139.581100 -105.686180 1.700001
endloop
endfacet
facet normal -1.000000 0.000085 0.000000
outer loop
vertex -139.581100 -105.686180 1.700001
vertex -139.581100 -105.686180 14.699999
vertex -139.581100 -105.464104 6.200000
endloop
endfacet
facet normal -0.342018 0.939693 0.000000
outer loop
vertex -138.901779 -97.921608 1.700001
vertex -138.901779 -97.921608 14.699999
vertex -138.164688 -97.653328 14.699999
endloop
endfacet
facet normal -0.342018 0.939693 0.000000
outer loop
vertex -138.164688 -97.653328 14.699999
vertex -138.164688 -97.653328 1.700001
vertex -138.901779 -97.921608 1.700001
endloop
endfacet
facet normal -1.000000 0.000011 0.000000
outer loop
vertex -139.581100 -102.000000 12.200000
vertex -139.581100 -103.194687 11.510249
vertex -139.581100 -105.686180 14.699999
endloop
endfacet
facet normal -1.000000 0.000000 0.000000
outer loop
vertex -139.581100 -98.313812 1.700001
vertex -139.581100 -100.805305 4.889755
vertex -139.581100 -98.535896 6.200000
endloop
endfacet
facet normal -1.000000 0.000000 0.000000
outer loop
vertex -139.581100 -98.535896 10.200001
vertex -139.581100 -102.000000 12.200000
vertex -139.581100 -105.686180 14.699999
endloop
endfacet
facet normal -1.000000 0.000000 0.000000
outer loop
vertex -139.581100 -98.313812 1.700001
vertex -139.581100 -98.535896 6.200000
vertex -139.581100 -98.535896 10.200001
endloop
endfacet
facet normal -1.000000 0.000000 0.000000
outer loop
vertex -139.581100 -98.535896 10.200001
vertex -139.581100 -105.686180 14.699999
vertex -139.581100 -98.313812 14.699999
endloop
endfacet
facet normal -1.000000 -0.000085 0.000000
outer loop
vertex -139.581100 -98.313812 14.699999
vertex -139.581100 -98.313812 1.700001
vertex -139.581100 -98.535896 10.200001
endloop
endfacet
facet normal -0.499993 0.866030 0.000000
outer loop
vertex -139.581100 -98.313812 1.700001
vertex -139.581100 -98.313812 14.699999
vertex -138.901779 -97.921608 14.699999
endloop
endfacet
facet normal -0.500003 0.866024 0.000000
outer loop
vertex -138.901779 -97.921608 14.699999
vertex -138.901779 -97.921608 1.700001
vertex -139.581100 -98.313812 1.700001
endloop
endfacet
facet normal 0.000000 -0.500002 0.866024
outer loop
vertex -135.899994 -98.535896 6.200000
vertex -139.581100 -98.535896 6.200000
vertex -139.581100 -100.805305 4.889755
endloop
endfacet
facet normal 0.000000 -0.499999 0.866026
outer loop
vertex -139.581100 -100.805305 4.889755
vertex -139.581100 -102.000000 4.200000
vertex -135.899994 -102.000000 4.200000
endloop
endfacet
facet normal -0.000000 -0.499999 0.866026
outer loop
vertex -139.581100 -100.805305 4.889755
vertex -135.899994 -102.000000 4.200000
vertex -135.899994 -98.535896 6.200000
endloop
endfacet
facet normal 0.000000 -1.000000 0.000000
outer loop
vertex -139.581100 -98.535896 10.200001
vertex -139.581100 -98.535896 6.200000
vertex -135.899994 -98.535896 6.200000
endloop
endfacet
facet normal 0.000000 -1.000000 0.000000
outer loop
vertex -135.899994 -98.535896 6.200000
vertex -135.899994 -98.535896 10.200000
vertex -139.581100 -98.535896 10.200001
endloop
endfacet
facet normal -1.000000 0.000000 0.000000
outer loop
vertex -135.899994 -98.535896 6.200000
vertex -135.899994 -102.000000 4.200000
vertex -135.899994 -105.464104 6.200000
endloop
endfacet
facet normal -1.000000 0.000000 0.000000
outer loop
vertex -135.899994 -105.464104 6.200000
vertex -135.899994 -105.464104 10.200000
vertex -135.899994 -102.000000 12.199999
endloop
endfacet
facet normal -1.000000 0.000000 0.000000
outer loop
vertex -135.899994 -102.000000 12.199999
vertex -135.899994 -98.535896 10.200000
vertex -135.899994 -98.535896 6.200000
endloop
endfacet
facet normal -1.000000 0.000000 0.000000
outer loop
vertex -135.899994 -105.464104 6.200000
vertex -135.899994 -102.000000 12.199999
vertex -135.899994 -98.535896 6.200000
endloop
endfacet
facet normal 1.000000 0.000029 0.000000
outer loop
vertex -135.500000 -102.434113 5.737981
vertex -135.500000 -101.999992 5.700001
vertex -135.500000 -101.565872 5.737981
endloop
endfacet
facet normal 1.000000 0.000231 0.000000
outer loop
vertex -135.500000 -101.565872 5.737981
vertex -135.500000 -101.144943 5.850769
vertex -135.500000 -100.749992 6.034936
endloop
endfacet
facet normal 1.000000 0.000000 0.000000
outer loop
vertex -135.500000 -100.749992 6.034936
vertex -135.500000 -100.393028 6.284888
vertex -135.500000 -100.084885 6.593031
endloop
endfacet
facet normal 1.000000 -0.000231 0.000000
outer loop
vertex -135.500000 -100.084885 6.593031
vertex -135.500000 -99.834930 6.950000
vertex -135.500000 -99.650764 7.344949
endloop
endfacet
facet normal 1.000000 0.000000 0.000000
outer loop
vertex -135.500000 -99.650764 7.344949
vertex -135.500000 -99.537971 7.765879
vertex -135.500000 -99.499992 8.199999
endloop
endfacet
facet normal 1.000000 0.000231 0.000000
outer loop
vertex -135.500000 -99.499992 8.199999
vertex -135.500000 -99.537971 8.634119
vertex -135.500000 -99.650764 9.055049
endloop
endfacet
facet normal 1.000000 0.000000 0.000000
outer loop
vertex -135.500000 -99.650764 9.055049
vertex -135.500000 -99.834930 9.449999
vertex -135.500000 -100.084877 9.806968
endloop
endfacet
facet normal 1.000000 -0.000231 0.000000
outer loop
vertex -135.500000 -100.084877 9.806968
vertex -135.500000 -100.393021 10.115110
vertex -135.500000 -100.749992 10.365063
endloop
endfacet
facet normal 1.000000 0.000116 0.000000
outer loop
vertex -135.500000 -100.749992 10.365063
vertex -135.500000 -101.144943 10.549231
vertex -135.500000 -101.565872 10.662019
endloop
endfacet
facet normal 1.000000 0.000000 0.000000
outer loop
vertex -135.500000 -101.565872 10.662019
vertex -135.500000 -101.999992 10.700000
vertex -135.500000 -102.434113 10.662020
endloop
endfacet
facet normal 1.000000 -0.000116 0.000000
outer loop
vertex -135.500000 -102.434113 10.662020
vertex -135.500000 -102.855042 10.549232
vertex -135.500000 -103.249992 10.365064
endloop
endfacet
facet normal 1.000000 0.000231 0.000000
outer loop
vertex -135.500000 -103.249992 10.365064
vertex -135.500000 -103.606964 10.115111
vertex -135.500000 -103.915100 9.806969
endloop
endfacet
facet normal 1.000000 0.000000 0.000000
outer loop
vertex -135.500000 -103.915100 9.806969
vertex -135.500000 -104.165054 9.450000
vertex -135.500000 -104.349220 9.055050
endloop
endfacet
facet normal 1.000000 0.000231 0.000000
outer loop
vertex -135.500000 -104.349220 9.055050
vertex -135.500000 -104.462013 8.634121
vertex -135.500000 -104.499992 8.200001
endloop
endfacet
facet normal 1.000000 -0.000231 0.000000
outer loop
vertex -135.500000 -104.499992 8.200001
vertex -135.500000 -104.462013 7.765880
vertex -135.500000 -104.349220 7.344951
endloop
endfacet
facet normal 1.000000 0.000000 0.000000
outer loop
vertex -135.500000 -104.349220 7.344951
vertex -135.500000 -104.165054 6.950001
vertex -135.500000 -103.915100 6.593032
endloop
endfacet
facet normal 1.000000 0.000000 0.000000
outer loop
vertex -135.500000 -103.915100 6.593032
vertex -135.500000 -103.606964 6.284890
vertex -135.500000 -103.249992 6.034937
endloop
endfacet
facet normal 1.000000 -0.000116 0.000000
outer loop
vertex -135.500000 -103.249992 6.034937
vertex -135.500000 -102.855042 5.850770
vertex -135.500000 -102.434113 5.737981
endloop
endfacet
facet normal 1.000000 -0.000030 0.000000
outer loop
vertex -135.500000 -102.434113 5.737981
vertex -135.500000 -101.565872 5.737981
vertex -135.500000 -100.749992 6.034936
endloop
endfacet
facet normal 1.000000 -0.000059 0.000000
outer loop
vertex -135.500000 -100.749992 6.034936
vertex -135.500000 -100.084885 6.593031
vertex -135.500000 -99.650764 7.344949
endloop
endfacet
facet normal 1.000000 0.000000 0.000000
outer loop
vertex -135.500000 -99.650764 7.344949
vertex -135.500000 -99.499992 8.199999
vertex -135.500000 -99.650764 9.055049
endloop
endfacet
facet normal 1.000000 0.000000 0.000000
outer loop
vertex -135.500000 -99.650764 9.055049
vertex -135.500000 -100.084877 9.806968
vertex -135.500000 -100.749992 10.365063
endloop
endfacet
facet normal 1.000000 -0.000004 0.000000
outer loop
vertex -135.500000 -100.749992 10.365063
vertex -135.500000 -101.565872 10.662019
vertex -135.500000 -102.434113 10.662020
endloop
endfacet
facet normal 1.000000 0.000000 0.000000
outer loop
vertex -135.500000 -102.434113 10.662020
vertex -135.500000 -103.249992 10.365064
vertex -135.500000 -103.915100 9.806969
endloop
endfacet
facet normal 1.000000 0.000000 0.000000
outer loop
vertex -135.500000 -103.915100 9.806969
vertex -135.500000 -104.349220 9.055050
vertex -135.500000 -104.499992 8.200001
endloop
endfacet
facet normal 1.000000 0.000000 0.000000
outer loop
vertex -135.500000 -104.499992 8.200001
vertex -135.500000 -104.349220 7.344951
vertex -135.500000 -103.915100 6.593032
endloop
endfacet
facet normal 1.000000 0.000030 0.000000
outer loop
vertex -135.500000 -103.915100 6.593032
vertex -135.500000 -103.249992 6.034937
vertex -135.500000 -102.434113 5.737981
endloop
endfacet
facet normal 1.000000 0.000000 0.000000
outer loop
vertex -135.500000 -102.434113 5.737981
vertex -135.500000 -100.749992 6.034936
vertex -135.500000 -99.650764 7.344949
endloop
endfacet
facet normal 1.000000 0.000000 0.000000
outer loop
vertex -135.500000 -99.650764 7.344949
vertex -135.500000 -99.650764 9.055049
vertex -135.500000 -100.749992 10.365063
endloop
endfacet
facet normal 1.000000 0.000008 0.000000
outer loop
vertex -135.500000 -100.749992 10.365063
vertex -135.500000 -102.434113 10.662020
vertex -135.500000 -103.915100 9.806969
endloop
endfacet
facet normal 1.000000 0.000000 0.000000
outer loop
vertex -135.500000 -103.915100 9.806969
vertex -135.500000 -104.499992 8.200001
vertex -135.500000 -103.915100 6.593032
endloop
endfacet
facet normal 1.000000 0.000000 0.000000
outer loop
vertex -135.500000 -103.915100 6.593032
vertex -135.500000 -102.434113 5.737981
vertex -135.500000 -99.650764 7.344949
endloop
endfacet
facet normal 1.000000 -0.000002 0.000000
outer loop
vertex -135.500000 -99.650764 7.344949
vertex -135.500000 -100.749992 10.365063
vertex -135.500000 -103.915100 9.806969
endloop
endfacet
facet normal 1.000000 0.000000 0.000000
outer loop
vertex -135.500000 -99.650764 7.344949
vertex -135.500000 -103.915100 9.806969
vertex -135.500000 -103.915100 6.593032
endloop
endfacet
facet normal 0.000000 0.500002 0.866024
outer loop
vertex -139.581100 -102.000000 4.200000
vertex -139.581100 -105.464104 6.200000
vertex -135.899994 -105.464104 6.200000
endloop
endfacet
facet normal 0.000000 0.499997 0.866027
outer loop
vertex -135.899994 -105.464104 6.200000
vertex -135.899994 -102.000000 4.200000
vertex -139.581100 -102.000000 4.200000
endloop
endfacet
facet normal 0.000000 -0.500003 -0.866024
outer loop
vertex -139.581100 -102.000000 12.200000
vertex -139.581100 -98.535896 10.200001
vertex -135.899994 -98.535896 10.200000
endloop
endfacet
facet normal -0.000001 -0.499996 -0.866028
outer loop
vertex -135.899994 -98.535896 10.200000
vertex -135.899994 -102.000000 12.199999
vertex -139.581100 -102.000000 12.200000
endloop
endfacet
facet normal -0.000000 0.500000 -0.866026
outer loop
vertex -135.899994 -105.464104 10.200000
vertex -139.581100 -105.464104 10.200001
vertex -139.581100 -103.194687 11.510249
endloop
endfacet
facet normal -0.000001 0.500001 -0.866025
outer loop
vertex -139.581100 -103.194687 11.510249
vertex -139.581100 -102.000000 12.200000
vertex -135.899994 -102.000000 12.199999
endloop
endfacet
facet normal -0.000001 0.499999 -0.866026
outer loop
vertex -139.581100 -103.194687 11.510249
vertex -135.899994 -102.000000 12.199999
vertex -135.899994 -105.464104 10.200000
endloop
endfacet
facet normal 0.000000 1.000000 0.000000
outer loop
vertex -139.581100 -105.464104 6.200000
vertex -139.581100 -105.464104 10.200001
vertex -135.899994 -105.464104 10.200000
endloop
endfacet
facet normal 0.000000 1.000000 0.000000
outer loop
vertex -135.899994 -105.464104 10.200000
vertex -135.899994 -105.464104 6.200000
vertex -139.581100 -105.464104 6.200000
endloop
endfacet
facet normal 0.000000 0.000000 1.000000
outer loop
vertex -133.313812 -104.581085 14.699999
vertex -132.921616 -103.901772 14.699999
vertex -132.653336 -103.164680 14.699999
endloop
endfacet
facet normal 0.000000 0.000000 1.000000
outer loop
vertex -132.653336 -103.164680 14.699999
vertex -132.517120 -102.392197 14.699999
vertex -132.517120 -101.607788 14.699999
endloop
endfacet
facet normal -0.000018 0.000000 1.000000
outer loop
vertex -132.517120 -101.607788 14.699999
vertex -132.653336 -100.835304 14.699999
vertex -132.921616 -100.098206 14.699999
endloop
endfacet
facet normal 0.000018 0.000000 1.000000
outer loop
vertex -132.921616 -100.098206 14.699999
vertex -133.313812 -99.418900 14.699999
vertex -133.818024 -98.818008 14.699999
endloop
endfacet
facet normal 0.000009 0.000000 1.000000
outer loop
vertex -133.818024 -98.818008 14.699999
vertex -134.418915 -98.313805 14.699999
vertex -135.098221 -97.921608 14.699999
endloop
endfacet
facet normal 0.000004 0.000000 1.000000
outer loop
vertex -135.098221 -97.921608 14.699999
vertex -135.835312 -97.653328 14.699999
vertex -136.607803 -97.517113 14.699999
endloop
endfacet
facet normal 0.000000 0.000000 1.000000
outer loop
vertex -136.607803 -97.517113 14.699999
vertex -137.392197 -97.517113 14.699999
vertex -138.164688 -97.653328 14.699999
endloop
endfacet
facet normal -0.000009 0.000000 1.000000
outer loop
vertex -138.164688 -97.653328 14.699999
vertex -138.901779 -97.921608 14.699999
vertex -139.581100 -98.313812 14.699999
endloop
endfacet
facet normal 0.000000 0.000000 1.000000
outer loop
vertex -139.581100 -98.313812 14.699999
vertex -139.581100 -105.686180 14.699999
vertex -138.901779 -106.078377 14.699999
endloop
endfacet
facet normal -0.000004 0.000000 1.000000
outer loop
vertex -138.901779 -106.078377 14.699999
vertex -138.164688 -106.346657 14.699999
vertex -137.392197 -106.482872 14.699999
endloop
endfacet
facet normal 0.000000 0.000000 1.000000
outer loop
vertex -137.392197 -106.482872 14.699999
vertex -136.607803 -106.482872 14.699999
vertex -135.835312 -106.346657 14.699999
endloop
endfacet
facet normal 0.000000 0.000000 1.000000
outer loop
vertex -135.835312 -106.346657 14.699999
vertex -135.098221 -106.078377 14.699999
vertex -134.418900 -105.686180 14.699999
endloop
endfacet
facet normal 0.000018 0.000000 1.000000
outer loop
vertex -134.418900 -105.686180 14.699999
vertex -133.818024 -105.181976 14.699999
vertex -133.313812 -104.581085 14.699999
endloop
endfacet
facet normal 0.000005 0.000000 1.000000
outer loop
vertex -133.313812 -104.581085 14.699999
vertex -132.653336 -103.164680 14.699999
vertex -132.517120 -101.607788 14.699999
endloop
endfacet
facet normal 0.000000 0.000000 1.000000
outer loop
vertex -132.517120 -101.607788 14.699999
vertex -132.921616 -100.098206 14.699999
vertex -133.818024 -98.818008 14.699999
endloop
endfacet
facet normal -0.000001 0.000000 1.000000
outer loop
vertex -133.818024 -98.818008 14.699999
vertex -135.098221 -97.921608 14.699999
vertex -136.607803 -97.517113 14.699999
endloop
endfacet
facet normal 0.000000 0.000000 1.000000
outer loop
vertex -136.607803 -97.517113 14.699999
vertex -138.164688 -97.653328 14.699999
vertex -139.581100 -98.313812 14.699999
endloop
endfacet
facet normal 0.000001 0.000000 1.000000
outer loop
vertex -139.581100 -98.313812 14.699999
vertex -138.901779 -106.078377 14.699999
vertex -137.392197 -106.482872 14.699999
endloop
endfacet
facet normal 0.000000 0.000000 1.000000
outer loop
vertex -137.392197 -106.482872 14.699999
vertex -135.835312 -106.346657 14.699999
vertex -134.418900 -105.686180 14.699999
endloop
endfacet
facet normal 0.000000 0.000000 1.000000
outer loop
vertex -134.418900 -105.686180 14.699999
vertex -133.313812 -104.581085 14.699999
vertex -132.517120 -101.607788 14.699999
endloop
endfacet
facet normal 0.000000 0.000000 1.000000
outer loop
vertex -132.517120 -101.607788 14.699999
vertex -133.818024 -98.818008 14.699999
vertex -136.607803 -97.517113 14.699999
endloop
endfacet
facet normal 0.000000 0.000000 1.000000
outer loop
vertex -136.607803 -97.517113 14.699999
vertex -139.581100 -98.313812 14.699999
vertex -137.392197 -106.482872 14.699999
endloop
endfacet
facet normal 0.000000 0.000000 1.000000
outer loop
vertex -137.392197 -106.482872 14.699999
vertex -134.418900 -105.686180 14.699999
vertex -132.517120 -101.607788 14.699999
endloop
endfacet
facet normal 0.000000 0.000000 1.000000
outer loop
vertex -132.517120 -101.607788 14.699999
vertex -136.607803 -97.517113 14.699999
vertex -137.392197 -106.482872 14.699999
endloop
endfacet
facet normal 0.000000 0.000000 -1.000000
outer loop
vertex -132.517120 -101.607788 1.700001
vertex -132.517120 -102.392197 1.700001
vertex -132.653336 -103.164680 1.700001
endloop
endfacet
facet normal 0.000000 0.000000 -1.000000
outer loop
vertex -132.653336 -103.164680 1.700001
vertex -132.921616 -103.901772 1.700001
vertex -133.313812 -104.581085 1.700001
endloop
endfacet
facet normal 0.000000 0.000000 -1.000000
outer loop
vertex -133.313812 -104.581085 1.700001
vertex -133.818024 -105.181976 1.700001
vertex -134.418900 -105.686180 1.700001
endloop
endfacet
facet normal 0.000001 0.000000 -1.000000
outer loop
vertex -134.418900 -105.686180 1.700001
vertex -135.098221 -106.078377 1.700001
vertex -135.835312 -106.346657 1.700001
endloop
endfacet
facet normal 0.000000 0.000000 -1.000000
outer loop
vertex -135.835312 -106.346657 1.700001
vertex -136.607803 -106.482872 1.700001
vertex -137.392197 -106.482872 1.700001
endloop
endfacet
facet normal 0.000000 0.000000 -1.000000
outer loop
vertex -137.392197 -106.482872 1.700001
vertex -138.164688 -106.346657 1.700001
vertex -138.901779 -106.078377 1.700001
endloop
endfacet
facet normal 0.000000 0.000000 -1.000000
outer loop
vertex -138.901779 -106.078377 1.700001
vertex -139.581100 -105.686180 1.700001
vertex -139.581100 -98.313812 1.700001
endloop
endfacet
facet normal 0.000000 0.000000 -1.000000
outer loop
vertex -139.581100 -98.313812 1.700001
vertex -138.901779 -97.921608 1.700001
vertex -138.164688 -97.653328 1.700001
endloop
endfacet
facet normal 0.000000 0.000000 -1.000000
outer loop
vertex -138.164688 -97.653328 1.700001
vertex -137.392197 -97.517113 1.700001
vertex -136.607803 -97.517113 1.700001
endloop
endfacet
facet normal 0.000000 0.000000 -1.000000
outer loop
vertex -136.607803 -97.517113 1.700001
vertex -135.835312 -97.653328 1.700001
vertex -135.098221 -97.921608 1.700001
endloop
endfacet
facet normal 0.000001 0.000000 -1.000000
outer loop
vertex -135.098221 -97.921608 1.700001
vertex -134.418915 -98.313805 1.700001
vertex -133.818024 -98.818008 1.700001
endloop
endfacet
facet normal 0.000002 0.000000 -1.000000
outer loop
vertex -133.818024 -98.818008 1.700001
vertex -133.313812 -99.418900 1.700001
vertex -132.921616 -100.098206 1.700001
endloop
endfacet
facet normal 0.000002 0.000000 -1.000000
outer loop
vertex -132.921616 -100.098206 1.700001
vertex -132.653336 -100.835304 1.700001
vertex -132.517120 -101.607788 1.700001
endloop
endfacet
facet normal 0.000000 0.000000 -1.000000
outer loop
vertex -132.517120 -101.607788 1.700001
vertex -132.653336 -103.164680 1.700001
vertex -133.313812 -104.581085 1.700001
endloop
endfacet
facet normal 0.000000 0.000000 -1.000000
outer loop
vertex -133.313812 -104.581085 1.700001
vertex -134.418900 -105.686180 1.700001
vertex -135.835312 -106.346657 1.700001
endloop
endfacet
facet normal 0.000000 0.000000 -1.000000
outer loop
vertex -135.835312 -106.346657 1.700001
vertex -137.392197 -106.482872 1.700001
vertex -138.901779 -106.078377 1.700001
endloop
endfacet
facet normal 0.000000 0.000000 -1.000000
outer loop
vertex -138.901779 -106.078377 1.700001
vertex -139.581100 -98.313812 1.700001
vertex -138.164688 -97.653328 1.700001
endloop
endfacet
facet normal 0.000000 0.000000 -1.000000
outer loop
vertex -138.164688 -97.653328 1.700001
vertex -136.607803 -97.517113 1.700001
vertex -135.098221 -97.921608 1.700001
endloop
endfacet
facet normal 0.000000 0.000000 -1.000000
outer loop
vertex -135.098221 -97.921608 1.700001
vertex -133.818024 -98.818008 1.700001
vertex -132.921616 -100.098206 1.700001
endloop
endfacet
facet normal 0.000000 0.000000 -1.000000
outer loop
vertex -132.921616 -100.098206 1.700001
vertex -132.517120 -101.607788 1.700001
vertex -133.313812 -104.581085 1.700001
endloop
endfacet
facet normal -0.000000 0.000000 -1.000000
outer loop
vertex -133.313812 -104.581085 1.700001
vertex -135.835312 -106.346657 1.700001
vertex -138.901779 -106.078377 1.700001
endloop
endfacet
facet normal -0.000000 0.000000 -1.000000
outer loop
vertex -138.901779 -106.078377 1.700001
vertex -138.164688 -97.653328 1.700001
vertex -135.098221 -97.921608 1.700001
endloop
endfacet
facet normal -0.000000 0.000000 -1.000000
outer loop
vertex -135.098221 -97.921608 1.700001
vertex -132.921616 -100.098206 1.700001
vertex -133.313812 -104.581085 1.700001
endloop
endfacet
facet normal 0.000000 0.000000 -1.000000
outer loop
vertex -133.313812 -104.581085 1.700001
vertex -138.901779 -106.078377 1.700001
vertex -135.098221 -97.921608 1.700001
endloop
endfacet
endsolid Exported from Blender-2.78 (sub 0)
