solid Exported from Blender-2.78 (sub 0)
facet normal 0.000000 0.000000 1.000000
outer loop
vertex -123.656853 -119.414215 10.200000
vertex -118.000000 -113.757362 10.200000
vertex -133.556351 -98.201004 10.200000
endloop
endfacet
facet normal 0.000000 0.000000 1.000000
outer loop
vertex -133.556351 -98.201004 10.200000
vertex -139.213211 -103.857864 10.200000
vertex -123.656853 -119.414215 10.200000
endloop
endfacet
facet normal 0.707106 0.707107 0.000000
outer loop
vertex -118.000000 -113.757362 6.200000
vertex -118.000000 -113.757362 10.200000
vertex -113.757362 -118.000000 10.200000
endloop
endfacet
facet normal 0.707107 0.707106 0.000000
outer loop
vertex -113.757362 -118.000000 10.200000
vertex -113.757362 -118.000000 6.200000
vertex -118.000000 -113.757362 6.200000
endloop
endfacet
facet normal -0.000000 0.000000 1.000000
outer loop
vertex -113.757362 -118.000000 10.200000
vertex -119.414215 -123.656853 10.200000
vertex -103.857864 -139.213211 10.200000
endloop
endfacet
facet normal 0.000000 0.000000 1.000000
outer loop
vertex -103.857864 -139.213211 10.200000
vertex -98.201004 -133.556351 10.200000
vertex -113.757362 -118.000000 10.200000
endloop
endfacet
facet normal -0.707107 -0.707106 0.000000
outer loop
vertex -123.656853 -119.414215 10.200000
vertex -123.656853 -119.414215 6.200000
vertex -119.414215 -123.656853 6.200000
endloop
endfacet
facet normal -0.707106 -0.707107 0.000000
outer loop
vertex -119.414215 -123.656853 6.200000
vertex -119.414215 -123.656853 10.200000
vertex -123.656853 -119.414215 10.200000
endloop
endfacet
facet normal 0.000000 0.000000 -1.000000
outer loop
vertex -119.414215 -123.656853 6.200000
vertex -123.656853 -119.414215 6.200000
vertex -118.000000 -113.757362 6.200000
endloop
endfacet
facet normal 0.000000 0.000000 -1.000000
outer loop
vertex -118.000000 -113.757362 6.200000
vertex -113.757362 -118.000000 6.200000
vertex -119.414215 -123.656853 6.200000
endloop
endfacet
facet normal 0.000000 0.000000 1.000000
outer loop
vertex -113.757362 -118.000000 10.200000
vertex -118.000000 -113.757362 10.200000
vertex -123.656853 -119.414215 10.200000
endloop
endfacet
facet normal 0.000000 0.000000 1.000000
outer loop
vertex -123.656853 -119.414215 10.200000
vertex -119.414215 -123.656853 10.200000
vertex -113.757362 -118.000000 10.200000
endloop
endfacet
facet normal -0.000000 0.000000 1.000000
outer loop
vertex -98.201004 -133.556351 10.200000
vertex -103.857864 -139.213211 10.200000
vertex -98.201004 -144.870056 10.200000
endloop
endfacet
facet normal 0.000000 0.000000 1.000000
outer loop
vertex -98.201004 -144.870056 10.200000
vertex -92.544151 -139.213211 10.200000
vertex -98.201004 -133.556351 10.200000
endloop
endfacet
facet normal 0.707107 0.707107 0.000000
outer loop
vertex -113.757362 -118.000000 6.200000
vertex -113.757362 -118.000000 10.200000
vertex -98.201004 -133.556351 10.200000
endloop
endfacet
facet normal 0.707106 0.707107 0.000000
outer loop
vertex -98.201004 -133.556351 10.200000
vertex -98.201004 -133.556351 6.200000
vertex -113.757362 -118.000000 6.200000
endloop
endfacet
facet normal -0.707107 -0.707107 0.000000
outer loop
vertex -119.414215 -123.656853 10.200000
vertex -119.414215 -123.656853 6.200000
vertex -103.857864 -139.213211 6.200000
endloop
endfacet
facet normal -0.707107 -0.707107 0.000000
outer loop
vertex -103.857864 -139.213211 6.200000
vertex -103.857864 -139.213211 10.200000
vertex -119.414215 -123.656853 10.200000
endloop
endfacet
facet normal 0.000000 0.000000 -1.000000
outer loop
vertex -119.414215 -123.656853 6.200000
vertex -113.757362 -118.000000 6.200000
vertex -98.201004 -133.556351 6.200000
endloop
endfacet
facet normal 0.000000 0.000000 -1.000000
outer loop
vertex -98.201004 -133.556351 6.200000
vertex -103.857864 -139.213211 6.200000
vertex -119.414215 -123.656853 6.200000
endloop
endfacet
facet normal 0.707106 0.707107 0.000000
outer loop
vertex -133.556351 -98.201004 10.200000
vertex -133.556351 -98.201004 6.200000
vertex -139.213211 -92.544151 6.200000
endloop
endfacet
facet normal 0.707106 0.707107 0.000000
outer loop
vertex -139.213211 -92.544151 6.200000
vertex -139.213211 -92.544151 10.200000
vertex -133.556351 -98.201004 10.200000
endloop
endfacet
facet normal 0.000000 0.000000 -1.000000
outer loop
vertex -118.000000 -113.757362 6.200000
vertex -123.656853 -119.414215 6.200000
vertex -139.213211 -103.857864 6.200000
endloop
endfacet
facet normal 0.000000 0.000000 -1.000000
outer loop
vertex -139.213211 -103.857864 6.200000
vertex -133.556351 -98.201004 6.200000
vertex -118.000000 -113.757362 6.200000
endloop
endfacet
facet normal 0.707107 0.707107 0.000000
outer loop
vertex -118.000000 -113.757362 10.200000
vertex -118.000000 -113.757362 6.200000
vertex -133.556351 -98.201004 6.200000
endloop
endfacet
facet normal 0.707107 0.707107 0.000000
outer loop
vertex -133.556351 -98.201004 6.200000
vertex -133.556351 -98.201004 10.200000
vertex -118.000000 -113.757362 10.200000
endloop
endfacet
facet normal -0.707107 -0.707107 0.000000
outer loop
vertex -123.656853 -119.414215 6.200000
vertex -123.656853 -119.414215 10.200000
vertex -139.213211 -103.857864 10.200000
endloop
endfacet
facet normal -0.707106 -0.707107 0.000000
outer loop
vertex -139.213211 -103.857864 10.200000
vertex -139.213211 -103.857864 6.200000
vertex -123.656853 -119.414215 6.200000
endloop
endfacet
facet normal 0.707107 -0.707107 0.000000
outer loop
vertex -92.544151 -139.213211 6.200000
vertex -92.544151 -139.213211 10.200000
vertex -98.201004 -144.870056 10.200000
endloop
endfacet
facet normal 0.707106 -0.707108 0.000000
outer loop
vertex -98.201004 -144.870056 10.200000
vertex -98.201004 -144.870056 6.200000
vertex -92.544151 -139.213211 6.200000
endloop
endfacet
facet normal 0.707107 0.707107 0.000000
outer loop
vertex -98.201004 -133.556351 6.200000
vertex -98.201004 -133.556351 10.200000
vertex -92.544151 -139.213211 10.200000
endloop
endfacet
facet normal 0.707108 0.707106 0.000000
outer loop
vertex -92.544151 -139.213211 10.200000
vertex -92.544151 -139.213211 6.200000
vertex -98.201004 -133.556351 6.200000
endloop
endfacet
facet normal -0.707106 -0.707108 0.000000
outer loop
vertex -103.857864 -139.213211 10.200000
vertex -103.857864 -139.213211 6.200000
vertex -98.201004 -144.870056 6.200000
endloop
endfacet
facet normal -0.707106 -0.707108 0.000000
outer loop
vertex -98.201004 -144.870056 6.200000
vertex -98.201004 -144.870056 10.200000
vertex -103.857864 -139.213211 10.200000
endloop
endfacet
facet normal 0.000000 0.000000 -1.000000
outer loop
vertex -103.857864 -139.213211 6.200000
vertex -98.201004 -133.556351 6.200000
vertex -92.544151 -139.213211 6.200000
endloop
endfacet
facet normal 0.000000 0.000000 -1.000000
outer loop
vertex -92.544151 -139.213211 6.200000
vertex -98.201004 -144.870056 6.200000
vertex -103.857864 -139.213211 6.200000
endloop
endfacet
facet normal -0.707106 0.707107 0.000000
outer loop
vertex -144.870056 -98.201004 6.200000
vertex -144.870056 -98.201004 10.200000
vertex -139.213211 -92.544151 10.200000
endloop
endfacet
facet normal -0.707108 0.707105 0.000000
outer loop
vertex -139.213211 -92.544151 10.200000
vertex -139.213211 -92.544151 6.200000
vertex -144.870056 -98.201004 6.200000
endloop
endfacet
facet normal -0.707109 -0.707105 0.000000
outer loop
vertex -139.213211 -103.857864 6.200000
vertex -139.213211 -103.857864 10.200000
vertex -144.870056 -98.201004 10.200000
endloop
endfacet
facet normal -0.707107 -0.707107 0.000000
outer loop
vertex -144.870056 -98.201004 10.200000
vertex -144.870056 -98.201004 6.200000
vertex -139.213211 -103.857864 6.200000
endloop
endfacet
facet normal 0.000000 0.000000 1.000000
outer loop
vertex -139.213211 -103.857864 10.200000
vertex -133.556351 -98.201004 10.200000
vertex -139.213211 -92.544151 10.200000
endloop
endfacet
facet normal 0.000000 0.000000 1.000000
outer loop
vertex -139.213211 -92.544151 10.200000
vertex -144.870056 -98.201004 10.200000
vertex -139.213211 -103.857864 10.200000
endloop
endfacet
facet normal 0.000000 0.000000 -1.000000
outer loop
vertex -133.556351 -98.201004 6.200000
vertex -139.213211 -103.857864 6.200000
vertex -144.870056 -98.201004 6.200000
endloop
endfacet
facet normal 0.000000 0.000000 -1.000000
outer loop
vertex -144.870056 -98.201004 6.200000
vertex -139.213211 -92.544151 6.200000
vertex -133.556351 -98.201004 6.200000
endloop
endfacet
endsolid Exported from Blender-2.78 (sub 0)
