solid Exported from Blender-2.78 (sub 0)
facet normal 0.173654 0.984807 0.000000
outer loop
vertex -100.835320 -132.653336 1.700000
vertex -101.607803 -132.517120 1.700000
vertex -101.607803 -132.517120 5.734314
endloop
endfacet
facet normal 0.173527 0.984829 -0.000055
outer loop
vertex -100.835320 -132.653336 1.700000
vertex -101.607803 -132.517120 5.734314
vertex -101.565887 -132.524506 5.737981
endloop
endfacet
facet normal 0.173642 0.984809 0.000000
outer loop
vertex -101.144958 -132.598740 5.850770
vertex -100.835320 -132.653336 5.995156
vertex -100.835320 -132.653336 1.700000
endloop
endfacet
facet normal 0.173677 0.984803 -0.000008
outer loop
vertex -101.565887 -132.524506 5.737981
vertex -101.144958 -132.598740 5.850770
vertex -100.835320 -132.653336 1.700000
endloop
endfacet
facet normal 0.000000 1.000000 0.000000
outer loop
vertex -101.607803 -132.517120 1.700000
vertex -102.392212 -132.517120 1.700000
vertex -102.392212 -132.517120 5.734313
endloop
endfacet
facet normal 0.000000 1.000000 0.000000
outer loop
vertex -102.000008 -132.517120 5.700000
vertex -101.607803 -132.517120 5.734314
vertex -101.607803 -132.517120 1.700000
endloop
endfacet
facet normal 0.000000 1.000000 0.000000
outer loop
vertex -102.392212 -132.517120 5.734313
vertex -102.000008 -132.517120 5.700000
vertex -101.607803 -132.517120 1.700000
endloop
endfacet
facet normal 0.342018 0.939693 0.000000
outer loop
vertex -100.098228 -132.921616 1.700000
vertex -100.835320 -132.653336 1.700000
vertex -100.835320 -132.653336 5.995156
endloop
endfacet
facet normal 0.342047 0.939683 0.000005
outer loop
vertex -100.098228 -132.921616 1.700000
vertex -100.835320 -132.653336 5.995156
vertex -100.750008 -132.684387 6.034937
endloop
endfacet
facet normal 0.342011 0.939696 0.000000
outer loop
vertex -100.393036 -132.814316 6.284890
vertex -100.098228 -132.921616 6.579703
vertex -100.098228 -132.921616 1.700000
endloop
endfacet
facet normal 0.342019 0.939693 0.000000
outer loop
vertex -100.750008 -132.684387 6.034937
vertex -100.393036 -132.814316 6.284890
vertex -100.098228 -132.921616 1.700000
endloop
endfacet
facet normal -0.173658 0.984806 0.000000
outer loop
vertex -102.392212 -132.517120 1.700000
vertex -103.164696 -132.653336 1.700000
vertex -103.164696 -132.653336 5.995155
endloop
endfacet
facet normal -0.173633 0.984810 -0.000018
outer loop
vertex -102.392212 -132.517120 1.700000
vertex -103.164696 -132.653336 5.995155
vertex -102.855057 -132.598740 5.850769
endloop
endfacet
facet normal -0.173493 0.984835 0.000000
outer loop
vertex -102.434128 -132.524506 5.737981
vertex -102.392212 -132.517120 5.734313
vertex -102.392212 -132.517120 1.700000
endloop
endfacet
facet normal -0.173681 0.984802 -0.000001
outer loop
vertex -102.855057 -132.598740 5.850769
vertex -102.434128 -132.524506 5.737981
vertex -102.392212 -132.517120 1.700000
endloop
endfacet
facet normal 0.499998 0.866026 0.000000
outer loop
vertex -99.418915 -133.313812 1.700000
vertex -100.098228 -132.921616 1.700000
vertex -100.098228 -132.921616 6.579703
endloop
endfacet
facet normal 0.499608 0.866251 -0.000039
outer loop
vertex -99.418915 -133.313812 1.700000
vertex -100.098228 -132.921616 6.579703
vertex -100.084900 -132.929306 6.593032
endloop
endfacet
facet normal 0.499998 0.866026 0.000000
outer loop
vertex -100.098228 -132.921616 9.820297
vertex -100.098228 -132.921616 14.700000
vertex -99.418915 -133.313812 14.700000
endloop
endfacet
facet normal 0.499476 0.866328 0.000000
outer loop
vertex -100.084900 -132.929306 9.806969
vertex -100.098228 -132.921616 9.820297
vertex -99.418915 -133.313812 14.700000
endloop
endfacet
facet normal 0.500020 0.866014 0.000018
outer loop
vertex -99.418915 -133.313812 1.700000
vertex -100.084900 -132.929306 6.593032
vertex -99.834946 -133.073624 6.950001
endloop
endfacet
facet normal 0.500009 0.866020 -0.000003
outer loop
vertex -99.418915 -133.313812 1.700000
vertex -99.834946 -133.073624 6.950001
vertex -99.650780 -133.179947 7.344951
endloop
endfacet
facet normal 0.500018 0.866015 -0.000018
outer loop
vertex -99.834946 -133.073624 9.450000
vertex -100.084900 -132.929306 9.806969
vertex -99.418915 -133.313812 14.700000
endloop
endfacet
facet normal 0.500009 0.866020 0.000000
outer loop
vertex -99.650780 -133.179947 9.055050
vertex -99.834946 -133.073624 9.450000
vertex -99.418915 -133.313812 14.700000
endloop
endfacet
facet normal 0.500018 0.866015 -0.000002
outer loop
vertex -99.418915 -133.313812 1.700000
vertex -99.650780 -133.179947 7.344951
vertex -99.537987 -133.245071 7.765880
endloop
endfacet
facet normal 0.499769 0.866159 -0.000003
outer loop
vertex -99.418915 -133.313812 1.700000
vertex -99.537987 -133.245071 7.765880
vertex -99.500008 -133.266998 8.200001
endloop
endfacet
facet normal 0.499983 0.866035 0.000004
outer loop
vertex -99.537987 -133.245071 8.634121
vertex -99.650780 -133.179947 9.055050
vertex -99.418915 -133.313812 14.700000
endloop
endfacet
facet normal 0.500050 0.865997 0.000000
outer loop
vertex -99.418915 -133.313812 14.700000
vertex -99.418915 -133.313812 1.700000
vertex -99.500008 -133.266998 8.200001
endloop
endfacet
facet normal 0.499941 0.866059 0.000006
outer loop
vertex -99.500008 -133.266998 8.200001
vertex -99.537987 -133.245071 8.634121
vertex -99.418915 -133.313812 14.700000
endloop
endfacet
facet normal -0.342020 0.939693 0.000000
outer loop
vertex -103.164696 -132.653336 1.700000
vertex -103.901794 -132.921616 1.700000
vertex -103.901794 -132.921616 6.579710
endloop
endfacet
facet normal -0.341992 0.939703 0.000012
outer loop
vertex -103.164696 -132.653336 1.700000
vertex -103.901794 -132.921616 6.579710
vertex -103.606972 -132.814316 6.284889
endloop
endfacet
facet normal -0.342004 0.939699 0.000000
outer loop
vertex -103.250008 -132.684387 6.034936
vertex -103.164696 -132.653336 5.995155
vertex -103.164696 -132.653336 1.700000
endloop
endfacet
facet normal -0.342036 0.939687 0.000001
outer loop
vertex -103.606972 -132.814316 6.284889
vertex -103.250008 -132.684387 6.034936
vertex -103.164696 -132.653336 1.700000
endloop
endfacet
facet normal 0.342004 0.939699 0.000000
outer loop
vertex -100.750008 -132.684387 10.365064
vertex -100.835320 -132.653336 10.404845
vertex -100.835320 -132.653336 14.700000
endloop
endfacet
facet normal 0.342020 0.939693 0.000000
outer loop
vertex -100.835320 -132.653336 14.700000
vertex -100.098228 -132.921616 14.700000
vertex -100.098228 -132.921616 9.820297
endloop
endfacet
facet normal 0.342036 0.939687 -0.000006
outer loop
vertex -100.393036 -132.814316 10.115111
vertex -100.750008 -132.684387 10.365064
vertex -100.835320 -132.653336 14.700000
endloop
endfacet
facet normal 0.342007 0.939697 0.000006
outer loop
vertex -100.835320 -132.653336 14.700000
vertex -100.098228 -132.921616 9.820297
vertex -100.393036 -132.814316 10.115111
endloop
endfacet
facet normal 0.642782 0.766049 0.000000
outer loop
vertex -99.418915 -133.313812 1.700000
vertex -99.418915 -133.313812 14.700000
vertex -98.818024 -133.818024 14.700000
endloop
endfacet
facet normal 0.642793 0.766040 0.000000
outer loop
vertex -98.818024 -133.818024 14.700000
vertex -98.818024 -133.818024 1.700000
vertex -99.418915 -133.313812 1.700000
endloop
endfacet
facet normal -0.499998 0.866026 0.000000
outer loop
vertex -104.581100 -133.313812 14.700000
vertex -103.901794 -132.921616 14.700000
vertex -103.901794 -132.921616 9.820296
endloop
endfacet
facet normal -0.500097 0.865969 0.000039
outer loop
vertex -104.581100 -133.313812 14.700000
vertex -103.901794 -132.921616 9.820296
vertex -103.915123 -132.929306 9.806968
endloop
endfacet
facet normal -0.499999 0.866026 0.000000
outer loop
vertex -103.901794 -132.921616 6.579710
vertex -103.901794 -132.921616 1.700000
vertex -104.581100 -133.313812 1.700000
endloop
endfacet
facet normal -0.500062 0.865990 0.000000
outer loop
vertex -103.915115 -132.929306 6.593031
vertex -103.901794 -132.921616 6.579710
vertex -104.581100 -133.313812 1.700000
endloop
endfacet
facet normal -0.500006 0.866022 -0.000018
outer loop
vertex -104.581100 -133.313812 14.700000
vertex -103.915123 -132.929306 9.806968
vertex -104.165070 -133.073624 9.449999
endloop
endfacet
facet normal -0.499984 0.866035 0.000003
outer loop
vertex -104.581100 -133.313812 14.700000
vertex -104.165070 -133.073624 9.449999
vertex -104.349236 -133.179947 9.055049
endloop
endfacet
facet normal -0.500018 0.866015 0.000018
outer loop
vertex -104.165070 -133.073624 6.950000
vertex -103.915115 -132.929306 6.593031
vertex -104.581100 -133.313812 1.700000
endloop
endfacet
facet normal -0.500009 0.866020 0.000000
outer loop
vertex -104.349236 -133.179947 7.344949
vertex -104.165070 -133.073624 6.950000
vertex -104.581100 -133.313812 1.700000
endloop
endfacet
facet normal -0.500050 0.865997 0.000002
outer loop
vertex -104.581100 -133.313812 14.700000
vertex -104.349236 -133.179947 9.055049
vertex -104.462029 -133.245071 8.634119
endloop
endfacet
facet normal -0.499830 0.866124 0.000003
outer loop
vertex -104.581100 -133.313812 14.700000
vertex -104.462029 -133.245071 8.634119
vertex -104.500008 -133.266998 8.199999
endloop
endfacet
facet normal -0.499983 0.866035 -0.000004
outer loop
vertex -104.462029 -133.245071 7.765879
vertex -104.349236 -133.179947 7.344949
vertex -104.581100 -133.313812 1.700000
endloop
endfacet
facet normal -0.499963 0.866047 0.000000
outer loop
vertex -104.581100 -133.313812 1.700000
vertex -104.581100 -133.313812 14.700000
vertex -104.500008 -133.266998 8.199999
endloop
endfacet
facet normal -0.499860 0.866106 -0.000003
outer loop
vertex -104.581100 -133.313812 1.700000
vertex -104.500008 -133.266998 8.199999
vertex -104.462029 -133.245071 7.765879
endloop
endfacet
facet normal 0.173554 0.984824 0.000000
outer loop
vertex -101.565887 -132.524506 10.662020
vertex -101.607803 -132.517120 10.665687
vertex -101.607803 -132.517120 14.700000
endloop
endfacet
facet normal 0.173655 0.984807 0.000000
outer loop
vertex -101.607803 -132.517120 14.700000
vertex -100.835320 -132.653336 14.700000
vertex -100.835320 -132.653336 10.404845
endloop
endfacet
facet normal 0.173675 0.984803 0.000001
outer loop
vertex -101.144958 -132.598740 10.549232
vertex -101.565887 -132.524506 10.662020
vertex -101.607803 -132.517120 14.700000
endloop
endfacet
facet normal 0.173640 0.984809 0.000018
outer loop
vertex -101.607803 -132.517120 14.700000
vertex -100.835320 -132.653336 10.404845
vertex -101.144958 -132.598740 10.549232
endloop
endfacet
facet normal 0.766037 0.642797 0.000000
outer loop
vertex -98.818024 -133.818024 1.700000
vertex -98.818024 -133.818024 14.700000
vertex -98.313820 -134.418900 14.700000
endloop
endfacet
facet normal 0.766049 0.642783 0.000000
outer loop
vertex -98.313820 -134.418900 14.700000
vertex -98.313820 -134.418900 1.700000
vertex -98.818024 -133.818024 1.700000
endloop
endfacet
facet normal -0.642793 0.766039 0.000000
outer loop
vertex -105.181992 -133.818024 1.700000
vertex -105.181992 -133.818024 14.700000
vertex -104.581100 -133.313812 14.700000
endloop
endfacet
facet normal -0.642793 0.766040 0.000000
outer loop
vertex -104.581100 -133.313812 14.700000
vertex -104.581100 -133.313812 1.700000
vertex -105.181992 -133.818024 1.700000
endloop
endfacet
facet normal -0.342011 0.939696 0.000000
outer loop
vertex -103.606979 -132.814316 10.115110
vertex -103.901794 -132.921616 9.820296
vertex -103.901794 -132.921616 14.700000
endloop
endfacet
facet normal -0.342012 0.939695 0.000000
outer loop
vertex -103.901794 -132.921616 14.700000
vertex -103.164696 -132.653336 14.700000
vertex -103.164696 -132.653336 10.404844
endloop
endfacet
facet normal -0.342019 0.939693 0.000000
outer loop
vertex -103.250008 -132.684387 10.365063
vertex -103.606979 -132.814316 10.115110
vertex -103.901794 -132.921616 14.700000
endloop
endfacet
facet normal -0.342081 0.939670 -0.000041
outer loop
vertex -103.901794 -132.921616 14.700000
vertex -103.164696 -132.653336 10.404844
vertex -103.250008 -132.684387 10.365063
endloop
endfacet
facet normal 0.000000 1.000000 0.000000
outer loop
vertex -102.000008 -132.517120 10.700000
vertex -102.392212 -132.517120 10.665686
vertex -102.392212 -132.517120 14.700000
endloop
endfacet
facet normal 0.000000 1.000000 0.000000
outer loop
vertex -102.392212 -132.517120 14.700000
vertex -101.607803 -132.517120 14.700000
vertex -101.607803 -132.517120 10.665687
endloop
endfacet
facet normal 0.000000 1.000000 0.000000
outer loop
vertex -102.392212 -132.517120 14.700000
vertex -101.607803 -132.517120 10.665687
vertex -102.000008 -132.517120 10.700000
endloop
endfacet
facet normal 0.866027 0.499996 0.000000
outer loop
vertex -98.313820 -134.418900 1.700000
vertex -98.313820 -134.418900 14.700000
vertex -97.921623 -135.098221 14.700000
endloop
endfacet
facet normal 0.866027 0.499996 0.000000
outer loop
vertex -97.921623 -135.098221 14.700000
vertex -97.921623 -135.098221 1.700000
vertex -98.313820 -134.418900 1.700000
endloop
endfacet
facet normal -0.766057 0.642773 0.000000
outer loop
vertex -105.686195 -134.418915 1.700000
vertex -105.686195 -134.418915 14.700000
vertex -105.181992 -133.818024 14.700000
endloop
endfacet
facet normal -0.766033 0.642801 0.000000
outer loop
vertex -105.181992 -133.818024 14.700000
vertex -105.181992 -133.818024 1.700000
vertex -105.686195 -134.418915 1.700000
endloop
endfacet
facet normal -0.173642 0.984809 0.000000
outer loop
vertex -102.855057 -132.598740 10.549231
vertex -103.164696 -132.653336 10.404844
vertex -103.164696 -132.653336 14.700000
endloop
endfacet
facet normal -0.173651 0.984807 0.000000
outer loop
vertex -103.164696 -132.653336 14.700000
vertex -102.392212 -132.517120 14.700000
vertex -102.392212 -132.517120 10.665686
endloop
endfacet
facet normal -0.173671 0.984804 0.000008
outer loop
vertex -102.434128 -132.524506 10.662019
vertex -102.855057 -132.598740 10.549231
vertex -103.164696 -132.653336 14.700000
endloop
endfacet
facet normal -0.173615 0.984814 0.000055
outer loop
vertex -103.164696 -132.653336 14.700000
vertex -102.392212 -132.517120 10.665686
vertex -102.434128 -132.524506 10.662019
endloop
endfacet
facet normal 0.939695 0.342013 0.000000
outer loop
vertex -97.921623 -135.098221 1.700000
vertex -97.921623 -135.098221 14.700000
vertex -97.653343 -135.835312 14.700000
endloop
endfacet
facet normal 0.939687 0.342034 0.000000
outer loop
vertex -97.653343 -135.835312 14.700000
vertex -97.653343 -135.835312 1.700000
vertex -97.921623 -135.098221 1.700000
endloop
endfacet
facet normal -0.866033 0.499987 0.000000
outer loop
vertex -106.078392 -135.098221 1.700000
vertex -106.078392 -135.098221 14.700000
vertex -105.686195 -134.418915 14.700000
endloop
endfacet
facet normal -0.866023 0.500005 0.000000
outer loop
vertex -105.686195 -134.418915 14.700000
vertex -105.686195 -134.418915 1.700000
vertex -106.078392 -135.098221 1.700000
endloop
endfacet
facet normal 0.984808 0.173649 0.000000
outer loop
vertex -97.653343 -135.835312 1.700000
vertex -97.653343 -135.835312 14.700000
vertex -97.517128 -136.607803 14.700000
endloop
endfacet
facet normal 0.984808 0.173649 0.000000
outer loop
vertex -97.517128 -136.607803 14.700000
vertex -97.517128 -136.607803 1.700000
vertex -97.653343 -135.835312 1.700000
endloop
endfacet
facet normal -0.939695 0.342013 0.000000
outer loop
vertex -106.346672 -135.835312 1.700000
vertex -106.346672 -135.835312 14.700000
vertex -106.078392 -135.098221 14.700000
endloop
endfacet
facet normal -0.939687 0.342034 0.000000
outer loop
vertex -106.078392 -135.098221 14.700000
vertex -106.078392 -135.098221 1.700000
vertex -106.346672 -135.835312 1.700000
endloop
endfacet
facet normal 1.000000 0.000000 0.000000
outer loop
vertex -97.517128 -136.607803 1.700000
vertex -97.517128 -136.607803 14.700000
vertex -97.517128 -137.392197 14.700000
endloop
endfacet
facet normal 1.000000 0.000000 0.000000
outer loop
vertex -97.517128 -137.392197 14.700000
vertex -97.517128 -137.392197 1.700000
vertex -97.517128 -136.607803 1.700000
endloop
endfacet
facet normal -0.984803 0.173672 0.000000
outer loop
vertex -106.482887 -136.607803 1.700000
vertex -106.482887 -136.607803 14.700000
vertex -106.346672 -135.835312 14.700000
endloop
endfacet
facet normal -0.984808 0.173649 0.000000
outer loop
vertex -106.346672 -135.835312 14.700000
vertex -106.346672 -135.835312 1.700000
vertex -106.482887 -136.607803 1.700000
endloop
endfacet
facet normal 0.984808 -0.173649 0.000000
outer loop
vertex -97.517128 -137.392197 1.700000
vertex -97.517128 -137.392197 14.700000
vertex -97.653343 -138.164688 14.700000
endloop
endfacet
facet normal 0.984808 -0.173649 0.000000
outer loop
vertex -97.653343 -138.164688 14.700000
vertex -97.653343 -138.164688 1.700000
vertex -97.517128 -137.392197 1.700000
endloop
endfacet
facet normal -1.000000 0.000000 0.000000
outer loop
vertex -106.482887 -137.392197 1.700000
vertex -106.482887 -137.392197 14.700000
vertex -106.482887 -136.607803 14.700000
endloop
endfacet
facet normal -1.000000 0.000000 0.000000
outer loop
vertex -106.482887 -136.607803 14.700000
vertex -106.482887 -136.607803 1.700000
vertex -106.482887 -137.392197 1.700000
endloop
endfacet
facet normal 0.939687 -0.342034 0.000000
outer loop
vertex -97.653343 -138.164688 1.700000
vertex -97.653343 -138.164688 14.700000
vertex -97.921623 -138.901779 14.700000
endloop
endfacet
facet normal 0.939695 -0.342013 0.000000
outer loop
vertex -97.921623 -138.901779 14.700000
vertex -97.921623 -138.901779 1.700000
vertex -97.653343 -138.164688 1.700000
endloop
endfacet
facet normal -0.984808 -0.173649 0.000000
outer loop
vertex -106.346672 -138.164688 1.700000
vertex -106.346672 -138.164688 14.700000
vertex -106.482887 -137.392197 14.700000
endloop
endfacet
facet normal -0.984803 -0.173672 0.000000
outer loop
vertex -106.482887 -137.392197 14.700000
vertex -106.482887 -137.392197 1.700000
vertex -106.346672 -138.164688 1.700000
endloop
endfacet
facet normal 0.866027 -0.499996 0.000000
outer loop
vertex -97.921623 -138.901779 1.700000
vertex -97.921623 -138.901779 14.700000
vertex -98.313820 -139.581100 14.700000
endloop
endfacet
facet normal 0.866027 -0.499996 0.000000
outer loop
vertex -98.313820 -139.581100 14.700000
vertex -98.313820 -139.581100 1.700000
vertex -97.921623 -138.901779 1.700000
endloop
endfacet
facet normal -0.939687 -0.342034 0.000000
outer loop
vertex -106.078392 -138.901779 1.700000
vertex -106.078392 -138.901779 14.700000
vertex -106.346672 -138.164688 14.700000
endloop
endfacet
facet normal -0.939695 -0.342013 0.000000
outer loop
vertex -106.346672 -138.164688 14.700000
vertex -106.346672 -138.164688 1.700000
vertex -106.078392 -138.901779 1.700000
endloop
endfacet
facet normal 0.000000 -1.000000 0.000000
outer loop
vertex -101.565887 -139.581100 5.737981
vertex -102.000008 -139.581100 5.700000
vertex -105.686188 -139.581100 1.700000
endloop
endfacet
facet normal 0.000000 -1.000000 -0.000033
outer loop
vertex -98.313820 -139.581100 14.700000
vertex -102.000008 -139.581100 10.700000
vertex -101.565887 -139.581100 10.662019
endloop
endfacet
facet normal 0.000000 -1.000000 0.000004
outer loop
vertex -98.313820 -139.581100 14.700000
vertex -101.565887 -139.581100 10.662019
vertex -101.144958 -139.581100 10.549231
endloop
endfacet
facet normal 0.000000 -1.000000 0.000000
outer loop
vertex -101.565887 -139.581100 5.737981
vertex -105.686188 -139.581100 1.700000
vertex -98.313820 -139.581100 1.700000
endloop
endfacet
facet normal 0.000000 -1.000000 0.000000
outer loop
vertex -101.144958 -139.581100 5.850769
vertex -101.565887 -139.581100 5.737981
vertex -98.313820 -139.581100 1.700000
endloop
endfacet
facet normal 0.000000 -1.000000 0.000021
outer loop
vertex -98.313820 -139.581100 14.700000
vertex -101.144958 -139.581100 10.549231
vertex -100.750008 -139.581100 10.365063
endloop
endfacet
facet normal 0.000000 -1.000000 0.000000
outer loop
vertex -98.313820 -139.581100 14.700000
vertex -100.750008 -139.581100 10.365063
vertex -100.393036 -139.581100 10.115110
endloop
endfacet
facet normal 0.000000 -1.000000 -0.000028
outer loop
vertex -100.750008 -139.581100 6.034937
vertex -101.144958 -139.581100 5.850769
vertex -98.313820 -139.581100 1.700000
endloop
endfacet
facet normal 0.000000 -1.000000 0.000000
outer loop
vertex -100.393036 -139.581100 6.284890
vertex -100.750008 -139.581100 6.034937
vertex -98.313820 -139.581100 1.700000
endloop
endfacet
facet normal 0.000000 -1.000000 -0.000004
outer loop
vertex -98.313820 -139.581100 14.700000
vertex -100.393036 -139.581100 10.115110
vertex -100.084900 -139.581100 9.806969
endloop
endfacet
facet normal 0.000000 -1.000000 0.000000
outer loop
vertex -98.313820 -139.581100 14.700000
vertex -100.084900 -139.581100 9.806969
vertex -99.834946 -139.581100 9.449999
endloop
endfacet
facet normal 0.000000 -1.000000 0.000000
outer loop
vertex -100.084900 -139.581100 6.593031
vertex -100.393036 -139.581100 6.284890
vertex -98.313820 -139.581100 1.700000
endloop
endfacet
facet normal 0.000000 -1.000000 0.000000
outer loop
vertex -99.834946 -139.581100 6.950000
vertex -100.084900 -139.581100 6.593031
vertex -98.313820 -139.581100 1.700000
endloop
endfacet
facet normal 0.000000 -1.000000 -0.000017
outer loop
vertex -98.313820 -139.581100 14.700000
vertex -99.834946 -139.581100 9.449999
vertex -99.650780 -139.581100 9.055050
endloop
endfacet
facet normal 0.000000 -1.000000 0.000013
outer loop
vertex -98.313820 -139.581100 14.700000
vertex -99.650780 -139.581100 9.055050
vertex -99.537987 -139.581100 8.634120
endloop
endfacet
facet normal 0.000000 -1.000000 0.000019
outer loop
vertex -99.650780 -139.581100 7.344950
vertex -99.834946 -139.581100 6.950000
vertex -98.313820 -139.581100 1.700000
endloop
endfacet
facet normal 0.000000 -1.000000 0.000000
outer loop
vertex -99.537987 -139.581100 7.765880
vertex -99.650780 -139.581100 7.344950
vertex -98.313820 -139.581100 1.700000
endloop
endfacet
facet normal 0.000000 -1.000000 0.000000
outer loop
vertex -98.313820 -139.581100 1.700000
vertex -98.313820 -139.581100 14.700000
vertex -99.537987 -139.581100 8.634120
endloop
endfacet
facet normal 0.000000 -1.000000 0.000000
outer loop
vertex -99.500008 -139.581100 8.200000
vertex -99.537987 -139.581100 7.765880
vertex -98.313820 -139.581100 1.700000
endloop
endfacet
facet normal 0.000000 -1.000000 0.000039
outer loop
vertex -98.313820 -139.581100 1.700000
vertex -99.537987 -139.581100 8.634120
vertex -99.500008 -139.581100 8.200000
endloop
endfacet
facet normal 0.000000 -1.000000 0.000000
outer loop
vertex -102.434128 -139.581100 10.662019
vertex -102.000008 -139.581100 10.700000
vertex -98.313820 -139.581100 14.700000
endloop
endfacet
facet normal 0.000000 -1.000000 -0.000033
outer loop
vertex -105.686188 -139.581100 1.700000
vertex -102.000008 -139.581100 5.700000
vertex -102.434128 -139.581100 5.737980
endloop
endfacet
facet normal 0.000000 -1.000000 0.000026
outer loop
vertex -105.686188 -139.581100 1.700000
vertex -102.434128 -139.581100 5.737980
vertex -102.855057 -139.581100 5.850768
endloop
endfacet
facet normal 0.000000 -1.000000 0.000000
outer loop
vertex -102.434128 -139.581100 10.662019
vertex -98.313820 -139.581100 14.700000
vertex -105.686188 -139.581100 14.700000
endloop
endfacet
facet normal 0.000000 -1.000000 -0.000030
outer loop
vertex -102.855057 -139.581100 10.549231
vertex -102.434128 -139.581100 10.662019
vertex -105.686188 -139.581100 14.700000
endloop
endfacet
facet normal 0.000000 -1.000000 -0.000021
outer loop
vertex -105.686188 -139.581100 1.700000
vertex -102.855057 -139.581100 5.850768
vertex -103.250008 -139.581100 6.034936
endloop
endfacet
facet normal 0.000000 -1.000000 -0.000004
outer loop
vertex -105.686188 -139.581100 1.700000
vertex -103.250008 -139.581100 6.034936
vertex -103.606972 -139.581100 6.284888
endloop
endfacet
facet normal 0.000000 -1.000000 0.000028
outer loop
vertex -103.250008 -139.581100 10.365063
vertex -102.855057 -139.581100 10.549231
vertex -105.686188 -139.581100 14.700000
endloop
endfacet
facet normal 0.000000 -1.000000 0.000000
outer loop
vertex -103.606979 -139.581100 10.115109
vertex -103.250008 -139.581100 10.365063
vertex -105.686188 -139.581100 14.700000
endloop
endfacet
facet normal 0.000000 -1.000000 0.000007
outer loop
vertex -105.686188 -139.581100 1.700000
vertex -103.606972 -139.581100 6.284888
vertex -103.915115 -139.581100 6.593030
endloop
endfacet
facet normal 0.000000 -1.000000 0.000000
outer loop
vertex -105.686188 -139.581100 1.700000
vertex -103.915115 -139.581100 6.593030
vertex -104.165070 -139.581100 6.949999
endloop
endfacet
facet normal 0.000000 -1.000000 0.000000
outer loop
vertex -103.915123 -139.581100 9.806968
vertex -103.606979 -139.581100 10.115109
vertex -105.686188 -139.581100 14.700000
endloop
endfacet
facet normal 0.000000 -1.000000 0.000000
outer loop
vertex -104.165070 -139.581100 9.449999
vertex -103.915123 -139.581100 9.806968
vertex -105.686188 -139.581100 14.700000
endloop
endfacet
facet normal 0.000000 -1.000000 -0.000002
outer loop
vertex -105.686188 -139.581100 1.700000
vertex -104.165070 -139.581100 6.949999
vertex -104.349236 -139.581100 7.344949
endloop
endfacet
facet normal 0.000000 -1.000000 0.000013
outer loop
vertex -105.686188 -139.581100 1.700000
vertex -104.349236 -139.581100 7.344949
vertex -104.462029 -139.581100 7.765879
endloop
endfacet
facet normal 0.000000 -1.000000 0.000000
outer loop
vertex -104.349236 -139.581100 9.055049
vertex -104.165070 -139.581100 9.449999
vertex -105.686188 -139.581100 14.700000
endloop
endfacet
facet normal 0.000000 -1.000000 -0.000025
outer loop
vertex -104.462029 -139.581100 8.634119
vertex -104.349236 -139.581100 9.055049
vertex -105.686188 -139.581100 14.700000
endloop
endfacet
facet normal 0.000000 -1.000000 0.000000
outer loop
vertex -105.686188 -139.581100 14.700000
vertex -105.686188 -139.581100 1.700000
vertex -104.462029 -139.581100 7.765879
endloop
endfacet
facet normal 0.000000 -1.000000 0.000000
outer loop
vertex -104.500008 -139.581100 8.199999
vertex -104.462029 -139.581100 8.634119
vertex -105.686188 -139.581100 14.700000
endloop
endfacet
facet normal 0.000000 -1.000000 0.000000
outer loop
vertex -104.462029 -139.581100 7.765879
vertex -104.500008 -139.581100 8.199999
vertex -105.686188 -139.581100 14.700000
endloop
endfacet
facet normal -0.866017 -0.500014 0.000000
outer loop
vertex -105.686188 -139.581100 1.700000
vertex -105.686188 -139.581100 14.700000
vertex -106.078392 -138.901779 14.700000
endloop
endfacet
facet normal -0.866038 -0.499978 0.000000
outer loop
vertex -106.078392 -138.901779 14.700000
vertex -106.078392 -138.901779 1.700000
vertex -105.686188 -139.581100 1.700000
endloop
endfacet
facet normal -0.087155 0.000000 -0.996195
outer loop
vertex -102.000008 -139.581100 10.700000
vertex -102.000008 -132.517120 10.700000
vertex -101.607803 -132.517120 10.665687
endloop
endfacet
facet normal -0.087109 0.000000 -0.996199
outer loop
vertex -101.607803 -132.517120 10.665687
vertex -101.565887 -132.524506 10.662020
vertex -101.565887 -139.581100 10.662019
endloop
endfacet
facet normal -0.087156 -0.000000 -0.996195
outer loop
vertex -101.607803 -132.517120 10.665687
vertex -101.565887 -139.581100 10.662019
vertex -102.000008 -139.581100 10.700000
endloop
endfacet
facet normal 0.087180 0.000000 -0.996193
outer loop
vertex -102.434128 -139.581100 10.662019
vertex -102.434128 -132.524506 10.662019
vertex -102.392212 -132.517120 10.665686
endloop
endfacet
facet normal 0.087160 0.000000 -0.996194
outer loop
vertex -102.392212 -132.517120 10.665686
vertex -102.000008 -132.517120 10.700000
vertex -102.000008 -139.581100 10.700000
endloop
endfacet
facet normal 0.087151 -0.000000 -0.996195
outer loop
vertex -102.392212 -132.517120 10.665686
vertex -102.000008 -139.581100 10.700000
vertex -102.434128 -139.581100 10.662019
endloop
endfacet
facet normal -0.258823 -0.000000 -0.965925
outer loop
vertex -101.565887 -132.524506 10.662020
vertex -101.144958 -132.598740 10.549232
vertex -101.144958 -139.581100 10.549231
endloop
endfacet
facet normal -0.258824 0.000000 -0.965925
outer loop
vertex -101.144958 -139.581100 10.549231
vertex -101.565887 -139.581100 10.662019
vertex -101.565887 -132.524506 10.662020
endloop
endfacet
facet normal 0.258819 0.000000 -0.965926
outer loop
vertex -102.855057 -132.598740 10.549231
vertex -102.434128 -132.524506 10.662019
vertex -102.434128 -139.581100 10.662019
endloop
endfacet
facet normal 0.258823 0.000000 -0.965925
outer loop
vertex -102.434128 -139.581100 10.662019
vertex -102.855057 -139.581100 10.549231
vertex -102.855057 -132.598740 10.549231
endloop
endfacet
facet normal -0.422614 0.000000 -0.906310
outer loop
vertex -101.144958 -139.581100 10.549231
vertex -101.144958 -132.598740 10.549232
vertex -100.835320 -132.653336 10.404845
endloop
endfacet
facet normal -0.422644 0.000001 -0.906296
outer loop
vertex -100.835320 -132.653336 10.404845
vertex -100.750008 -132.684387 10.365064
vertex -100.750008 -139.581100 10.365063
endloop
endfacet
facet normal -0.422610 0.000000 -0.906312
outer loop
vertex -100.835320 -132.653336 10.404845
vertex -100.750008 -139.581100 10.365063
vertex -101.144958 -139.581100 10.549231
endloop
endfacet
facet normal 0.422630 0.000000 -0.906302
outer loop
vertex -103.250008 -139.581100 10.365063
vertex -103.250008 -132.684387 10.365063
vertex -103.164696 -132.653336 10.404844
endloop
endfacet
facet normal 0.422612 0.000000 -0.906311
outer loop
vertex -103.164696 -132.653336 10.404844
vertex -102.855057 -132.598740 10.549231
vertex -102.855057 -139.581100 10.549231
endloop
endfacet
facet normal 0.422614 -0.000001 -0.906310
outer loop
vertex -103.164696 -132.653336 10.404844
vertex -102.855057 -139.581100 10.549231
vertex -103.250008 -139.581100 10.365063
endloop
endfacet
facet normal -0.573574 -0.000000 -0.819154
outer loop
vertex -100.750008 -132.684387 10.365064
vertex -100.393036 -132.814316 10.115111
vertex -100.393036 -139.581100 10.115110
endloop
endfacet
facet normal -0.573571 0.000000 -0.819156
outer loop
vertex -100.393036 -139.581100 10.115110
vertex -100.750008 -139.581100 10.365063
vertex -100.750008 -132.684387 10.365064
endloop
endfacet
facet normal 0.573574 0.000000 -0.819153
outer loop
vertex -103.606979 -132.814316 10.115110
vertex -103.250008 -132.684387 10.365063
vertex -103.250008 -139.581100 10.365063
endloop
endfacet
facet normal 0.573570 -0.000000 -0.819156
outer loop
vertex -103.250008 -139.581100 10.365063
vertex -103.606979 -139.581100 10.115109
vertex -103.606979 -132.814316 10.115110
endloop
endfacet
facet normal -0.707114 0.000000 -0.707099
outer loop
vertex -100.393036 -139.581100 10.115110
vertex -100.393036 -132.814316 10.115111
vertex -100.098228 -132.921616 9.820297
endloop
endfacet
facet normal -0.707086 0.000000 -0.707128
outer loop
vertex -100.098228 -132.921616 9.820297
vertex -100.084900 -132.929306 9.806969
vertex -100.084900 -139.581100 9.806969
endloop
endfacet
facet normal -0.707115 -0.000001 -0.707099
outer loop
vertex -100.098228 -132.921616 9.820297
vertex -100.084900 -139.581100 9.806969
vertex -100.393036 -139.581100 10.115110
endloop
endfacet
facet normal 0.707138 0.000000 -0.707075
outer loop
vertex -103.915123 -139.581100 9.806968
vertex -103.915123 -132.929306 9.806968
vertex -103.901794 -132.921616 9.820296
endloop
endfacet
facet normal 0.707107 0.000000 -0.707107
outer loop
vertex -103.901794 -132.921616 9.820296
vertex -103.606979 -132.814316 10.115110
vertex -103.606979 -139.581100 10.115109
endloop
endfacet
facet normal 0.707104 0.000000 -0.707109
outer loop
vertex -103.901794 -132.921616 9.820296
vertex -103.606979 -139.581100 10.115109
vertex -103.915123 -139.581100 9.806968
endloop
endfacet
facet normal -0.819150 0.000000 -0.573579
outer loop
vertex -100.084900 -132.929306 9.806969
vertex -99.834946 -133.073624 9.450000
vertex -99.834946 -139.581100 9.449999
endloop
endfacet
facet normal -0.819152 0.000000 -0.573577
outer loop
vertex -99.834946 -139.581100 9.449999
vertex -100.084900 -139.581100 9.806969
vertex -100.084900 -132.929306 9.806969
endloop
endfacet
facet normal 0.819160 0.000000 -0.573565
outer loop
vertex -104.165070 -133.073624 9.449999
vertex -103.915123 -132.929306 9.806968
vertex -103.915123 -139.581100 9.806968
endloop
endfacet
facet normal 0.819157 0.000000 -0.573570
outer loop
vertex -103.915123 -139.581100 9.806968
vertex -104.165070 -139.581100 9.449999
vertex -104.165070 -133.073624 9.449999
endloop
endfacet
facet normal -0.906310 0.000000 -0.422613
outer loop
vertex -99.834946 -133.073624 9.450000
vertex -99.650780 -133.179947 9.055050
vertex -99.650780 -139.581100 9.055050
endloop
endfacet
facet normal -0.906308 -0.000000 -0.422617
outer loop
vertex -99.650780 -139.581100 9.055050
vertex -99.834946 -139.581100 9.449999
vertex -99.834946 -133.073624 9.450000
endloop
endfacet
facet normal 0.906310 0.000000 -0.422613
outer loop
vertex -104.349236 -133.179947 9.055049
vertex -104.165070 -133.073624 9.449999
vertex -104.165070 -139.581100 9.449999
endloop
endfacet
facet normal 0.906309 0.000000 -0.422615
outer loop
vertex -104.165070 -139.581100 9.449999
vertex -104.349236 -139.581100 9.055049
vertex -104.349236 -133.179947 9.055049
endloop
endfacet
facet normal -0.965923 0.000000 -0.258830
outer loop
vertex -99.650780 -133.179947 9.055050
vertex -99.537987 -133.245071 8.634121
vertex -99.537987 -139.581100 8.634120
endloop
endfacet
facet normal -0.965923 0.000000 -0.258831
outer loop
vertex -99.537987 -139.581100 8.634120
vertex -99.650780 -139.581100 9.055050
vertex -99.650780 -133.179947 9.055050
endloop
endfacet
facet normal 0.965923 0.000000 -0.258830
outer loop
vertex -104.462029 -133.245071 8.634119
vertex -104.349236 -133.179947 9.055049
vertex -104.349236 -139.581100 9.055049
endloop
endfacet
facet normal 0.965923 0.000000 -0.258831
outer loop
vertex -104.349236 -139.581100 9.055049
vertex -104.462029 -139.581100 8.634119
vertex -104.462029 -133.245071 8.634119
endloop
endfacet
facet normal -0.996195 0.000000 -0.087152
outer loop
vertex -99.537987 -133.245071 8.634121
vertex -99.500008 -133.266998 8.200001
vertex -99.500008 -139.581100 8.200000
endloop
endfacet
facet normal -0.996195 -0.000000 -0.087152
outer loop
vertex -99.500008 -139.581100 8.200000
vertex -99.537987 -139.581100 8.634120
vertex -99.537987 -133.245071 8.634121
endloop
endfacet
facet normal 0.996195 0.000000 -0.087152
outer loop
vertex -104.500008 -133.266998 8.199999
vertex -104.462029 -133.245071 8.634119
vertex -104.462029 -139.581100 8.634119
endloop
endfacet
facet normal 0.996195 0.000000 -0.087152
outer loop
vertex -104.462029 -139.581100 8.634119
vertex -104.500008 -139.581100 8.199999
vertex -104.500008 -133.266998 8.199999
endloop
endfacet
facet normal -0.996195 0.000000 0.087152
outer loop
vertex -99.500008 -133.266998 8.200001
vertex -99.537987 -133.245071 7.765880
vertex -99.537987 -139.581100 7.765880
endloop
endfacet
facet normal -0.996195 -0.000000 0.087152
outer loop
vertex -99.537987 -139.581100 7.765880
vertex -99.500008 -139.581100 8.200000
vertex -99.500008 -133.266998 8.200001
endloop
endfacet
facet normal 0.996195 0.000000 0.087152
outer loop
vertex -104.462029 -133.245071 7.765879
vertex -104.500008 -133.266998 8.199999
vertex -104.500008 -139.581100 8.199999
endloop
endfacet
facet normal 0.996195 0.000000 0.087152
outer loop
vertex -104.500008 -139.581100 8.199999
vertex -104.462029 -139.581100 7.765879
vertex -104.462029 -133.245071 7.765879
endloop
endfacet
facet normal -0.965923 0.000001 0.258831
outer loop
vertex -99.537987 -133.245071 7.765880
vertex -99.650780 -133.179947 7.344951
vertex -99.650780 -139.581100 7.344950
endloop
endfacet
facet normal -0.965923 0.000000 0.258831
outer loop
vertex -99.650780 -139.581100 7.344950
vertex -99.537987 -139.581100 7.765880
vertex -99.537987 -133.245071 7.765880
endloop
endfacet
facet normal 0.965923 -0.000000 0.258830
outer loop
vertex -104.349236 -133.179947 7.344949
vertex -104.462029 -133.245071 7.765879
vertex -104.462029 -139.581100 7.765879
endloop
endfacet
facet normal 0.965923 0.000000 0.258830
outer loop
vertex -104.462029 -139.581100 7.765879
vertex -104.349236 -139.581100 7.344949
vertex -104.349236 -133.179947 7.344949
endloop
endfacet
facet normal -0.906309 0.000001 0.422616
outer loop
vertex -99.650780 -133.179947 7.344951
vertex -99.834946 -133.073624 6.950001
vertex -99.834946 -139.581100 6.950000
endloop
endfacet
facet normal -0.906310 -0.000001 0.422613
outer loop
vertex -99.834946 -139.581100 6.950000
vertex -99.650780 -139.581100 7.344950
vertex -99.650780 -133.179947 7.344951
endloop
endfacet
facet normal 0.906309 -0.000000 0.422616
outer loop
vertex -104.165070 -133.073624 6.950000
vertex -104.349236 -133.179947 7.344949
vertex -104.349236 -139.581100 7.344949
endloop
endfacet
facet normal 0.906309 0.000000 0.422615
outer loop
vertex -104.349236 -139.581100 7.344949
vertex -104.165070 -139.581100 6.949999
vertex -104.165070 -133.073624 6.950000
endloop
endfacet
facet normal -0.819150 -0.000001 0.573580
outer loop
vertex -99.834946 -133.073624 6.950001
vertex -100.084900 -132.929306 6.593032
vertex -100.084900 -139.581100 6.593031
endloop
endfacet
facet normal -0.819151 0.000001 0.573578
outer loop
vertex -100.084900 -139.581100 6.593031
vertex -99.834946 -139.581100 6.950000
vertex -99.834946 -133.073624 6.950001
endloop
endfacet
facet normal 0.819151 -0.000000 0.573578
outer loop
vertex -103.915115 -132.929306 6.593031
vertex -104.165070 -133.073624 6.950000
vertex -104.165070 -139.581100 6.949999
endloop
endfacet
facet normal 0.819149 -0.000000 0.573581
outer loop
vertex -104.165070 -139.581100 6.949999
vertex -103.915115 -139.581100 6.593030
vertex -103.915115 -132.929306 6.593031
endloop
endfacet
facet normal -0.707120 0.000000 0.707094
outer loop
vertex -100.084900 -139.581100 6.593031
vertex -100.084900 -132.929306 6.593032
vertex -100.098228 -132.921616 6.579703
endloop
endfacet
facet normal -0.707115 0.000000 0.707099
outer loop
vertex -100.098228 -132.921616 6.579703
vertex -100.393036 -132.814316 6.284890
vertex -100.393036 -139.581100 6.284890
endloop
endfacet
facet normal -0.707112 -0.000001 0.707102
outer loop
vertex -100.098228 -132.921616 6.579703
vertex -100.393036 -139.581100 6.284890
vertex -100.084900 -139.581100 6.593031
endloop
endfacet
facet normal 0.707106 0.000000 0.707107
outer loop
vertex -103.606972 -139.581100 6.284888
vertex -103.606972 -132.814316 6.284889
vertex -103.901794 -132.921616 6.579710
endloop
endfacet
facet normal 0.707106 -0.000001 0.707108
outer loop
vertex -103.901794 -132.921616 6.579710
vertex -103.915115 -132.929306 6.593031
vertex -103.915115 -139.581100 6.593030
endloop
endfacet
facet normal 0.707107 -0.000001 0.707107
outer loop
vertex -103.901794 -132.921616 6.579710
vertex -103.915115 -139.581100 6.593030
vertex -103.606972 -139.581100 6.284888
endloop
endfacet
facet normal -0.573574 -0.000000 0.819153
outer loop
vertex -100.393036 -132.814316 6.284890
vertex -100.750008 -132.684387 6.034937
vertex -100.750008 -139.581100 6.034937
endloop
endfacet
facet normal -0.573576 0.000000 0.819153
outer loop
vertex -100.750008 -139.581100 6.034937
vertex -100.393036 -139.581100 6.284890
vertex -100.393036 -132.814316 6.284890
endloop
endfacet
facet normal 0.573583 -0.000001 0.819148
outer loop
vertex -103.250008 -132.684387 6.034936
vertex -103.606972 -132.814316 6.284889
vertex -103.606972 -139.581100 6.284888
endloop
endfacet
facet normal 0.573581 0.000001 0.819149
outer loop
vertex -103.606972 -139.581100 6.284888
vertex -103.250008 -139.581100 6.034936
vertex -103.250008 -132.684387 6.034936
endloop
endfacet
facet normal -0.422620 0.000001 0.906307
outer loop
vertex -100.750008 -139.581100 6.034937
vertex -100.750008 -132.684387 6.034937
vertex -100.835320 -132.653336 5.995156
endloop
endfacet
facet normal -0.422615 -0.000000 0.906309
outer loop
vertex -100.835320 -132.653336 5.995156
vertex -101.144958 -132.598740 5.850770
vertex -101.144958 -139.581100 5.850769
endloop
endfacet
facet normal -0.422616 -0.000001 0.906309
outer loop
vertex -100.835320 -132.653336 5.995156
vertex -101.144958 -139.581100 5.850769
vertex -100.750008 -139.581100 6.034937
endloop
endfacet
facet normal 0.422616 0.000000 0.906309
outer loop
vertex -102.855057 -139.581100 5.850768
vertex -102.855057 -132.598740 5.850769
vertex -103.164696 -132.653336 5.995155
endloop
endfacet
facet normal 0.422615 -0.000000 0.906309
outer loop
vertex -103.164696 -132.653336 5.995155
vertex -103.250008 -132.684387 6.034936
vertex -103.250008 -139.581100 6.034936
endloop
endfacet
facet normal 0.422616 -0.000001 0.906309
outer loop
vertex -103.164696 -132.653336 5.995155
vertex -103.250008 -139.581100 6.034936
vertex -102.855057 -139.581100 5.850768
endloop
endfacet
facet normal -0.258824 -0.000000 0.965925
outer loop
vertex -101.144958 -132.598740 5.850770
vertex -101.565887 -132.524506 5.737981
vertex -101.565887 -139.581100 5.737981
endloop
endfacet
facet normal -0.258818 0.000000 0.965926
outer loop
vertex -101.565887 -139.581100 5.737981
vertex -101.144958 -139.581100 5.850769
vertex -101.144958 -132.598740 5.850770
endloop
endfacet
facet normal 0.258818 0.000000 0.965926
outer loop
vertex -102.434128 -132.524506 5.737981
vertex -102.855057 -132.598740 5.850769
vertex -102.855057 -139.581100 5.850768
endloop
endfacet
facet normal 0.258819 -0.000000 0.965926
outer loop
vertex -102.855057 -139.581100 5.850768
vertex -102.434128 -139.581100 5.737980
vertex -102.434128 -132.524506 5.737981
endloop
endfacet
facet normal -0.087139 -0.000000 0.996196
outer loop
vertex -101.565887 -139.581100 5.737981
vertex -101.565887 -132.524506 5.737981
vertex -101.607803 -132.517120 5.734314
endloop
endfacet
facet normal -0.087157 0.000000 0.996195
outer loop
vertex -101.607803 -132.517120 5.734314
vertex -102.000008 -132.517120 5.700000
vertex -102.000008 -139.581100 5.700000
endloop
endfacet
facet normal -0.087154 -0.000000 0.996195
outer loop
vertex -101.607803 -132.517120 5.734314
vertex -102.000008 -139.581100 5.700000
vertex -101.565887 -139.581100 5.737981
endloop
endfacet
facet normal 0.087155 0.000000 0.996195
outer loop
vertex -102.000008 -139.581100 5.700000
vertex -102.000008 -132.517120 5.700000
vertex -102.392212 -132.517120 5.734313
endloop
endfacet
facet normal 0.087160 0.000000 0.996194
outer loop
vertex -102.392212 -132.517120 5.734313
vertex -102.434128 -132.524506 5.737981
vertex -102.434128 -139.581100 5.737980
endloop
endfacet
facet normal 0.087154 -0.000000 0.996195
outer loop
vertex -102.392212 -132.517120 5.734313
vertex -102.434128 -139.581100 5.737980
vertex -102.000008 -139.581100 5.700000
endloop
endfacet
facet normal 0.000004 0.000000 1.000000
outer loop
vertex -99.418915 -133.313812 14.700000
vertex -100.098228 -132.921616 14.700000
vertex -100.835320 -132.653336 14.700000
endloop
endfacet
facet normal 0.000000 0.000000 1.000000
outer loop
vertex -100.835320 -132.653336 14.700000
vertex -101.607803 -132.517120 14.700000
vertex -102.392212 -132.517120 14.700000
endloop
endfacet
facet normal 0.000000 0.000000 1.000000
outer loop
vertex -102.392212 -132.517120 14.700000
vertex -103.164696 -132.653336 14.700000
vertex -103.901794 -132.921616 14.700000
endloop
endfacet
facet normal 0.000000 0.000000 1.000000
outer loop
vertex -103.901794 -132.921616 14.700000
vertex -104.581100 -133.313812 14.700000
vertex -105.181992 -133.818024 14.700000
endloop
endfacet
facet normal 0.000018 0.000000 1.000000
outer loop
vertex -105.181992 -133.818024 14.700000
vertex -105.686195 -134.418915 14.700000
vertex -106.078392 -135.098221 14.700000
endloop
endfacet
facet normal 0.000000 0.000000 1.000000
outer loop
vertex -106.078392 -135.098221 14.700000
vertex -106.346672 -135.835312 14.700000
vertex -106.482887 -136.607803 14.700000
endloop
endfacet
facet normal 0.000000 0.000000 1.000000
outer loop
vertex -106.482887 -136.607803 14.700000
vertex -106.482887 -137.392197 14.700000
vertex -106.346672 -138.164688 14.700000
endloop
endfacet
facet normal 0.000018 0.000000 1.000000
outer loop
vertex -106.346672 -138.164688 14.700000
vertex -106.078392 -138.901779 14.700000
vertex -105.686188 -139.581100 14.700000
endloop
endfacet
facet normal 0.000000 0.000000 1.000000
outer loop
vertex -105.686188 -139.581100 14.700000
vertex -98.313820 -139.581100 14.700000
vertex -97.921623 -138.901779 14.700000
endloop
endfacet
facet normal 0.000000 0.000000 1.000000
outer loop
vertex -97.921623 -138.901779 14.700000
vertex -97.653343 -138.164688 14.700000
vertex -97.517128 -137.392197 14.700000
endloop
endfacet
facet normal 0.000000 0.000000 1.000000
outer loop
vertex -97.517128 -137.392197 14.700000
vertex -97.517128 -136.607803 14.700000
vertex -97.653343 -135.835312 14.700000
endloop
endfacet
facet normal -0.000018 0.000000 1.000000
outer loop
vertex -97.653343 -135.835312 14.700000
vertex -97.921623 -135.098221 14.700000
vertex -98.313820 -134.418900 14.700000
endloop
endfacet
facet normal 0.000009 0.000000 1.000000
outer loop
vertex -98.313820 -134.418900 14.700000
vertex -98.818024 -133.818024 14.700000
vertex -99.418915 -133.313812 14.700000
endloop
endfacet
facet normal -0.000001 0.000000 1.000000
outer loop
vertex -99.418915 -133.313812 14.700000
vertex -100.835320 -132.653336 14.700000
vertex -102.392212 -132.517120 14.700000
endloop
endfacet
facet normal 0.000000 0.000000 1.000000
outer loop
vertex -102.392212 -132.517120 14.700000
vertex -103.901794 -132.921616 14.700000
vertex -105.181992 -133.818024 14.700000
endloop
endfacet
facet normal -0.000005 0.000000 1.000000
outer loop
vertex -105.181992 -133.818024 14.700000
vertex -106.078392 -135.098221 14.700000
vertex -106.482887 -136.607803 14.700000
endloop
endfacet
facet normal 0.000000 0.000000 1.000000
outer loop
vertex -106.482887 -136.607803 14.700000
vertex -106.346672 -138.164688 14.700000
vertex -105.686188 -139.581100 14.700000
endloop
endfacet
facet normal -0.000000 0.000000 1.000000
outer loop
vertex -105.686188 -139.581100 14.700000
vertex -97.921623 -138.901779 14.700000
vertex -97.517128 -137.392197 14.700000
endloop
endfacet
facet normal 0.000000 0.000000 1.000000
outer loop
vertex -97.517128 -137.392197 14.700000
vertex -97.653343 -135.835312 14.700000
vertex -98.313820 -134.418900 14.700000
endloop
endfacet
facet normal 0.000000 0.000000 1.000000
outer loop
vertex -98.313820 -134.418900 14.700000
vertex -99.418915 -133.313812 14.700000
vertex -102.392212 -132.517120 14.700000
endloop
endfacet
facet normal 0.000001 0.000000 1.000000
outer loop
vertex -102.392212 -132.517120 14.700000
vertex -105.181992 -133.818024 14.700000
vertex -106.482887 -136.607803 14.700000
endloop
endfacet
facet normal 0.000000 0.000000 1.000000
outer loop
vertex -106.482887 -136.607803 14.700000
vertex -105.686188 -139.581100 14.700000
vertex -97.517128 -137.392197 14.700000
endloop
endfacet
facet normal 0.000000 0.000000 1.000000
outer loop
vertex -97.517128 -137.392197 14.700000
vertex -98.313820 -134.418900 14.700000
vertex -102.392212 -132.517120 14.700000
endloop
endfacet
facet normal -0.000000 0.000000 1.000000
outer loop
vertex -102.392212 -132.517120 14.700000
vertex -106.482887 -136.607803 14.700000
vertex -97.517128 -137.392197 14.700000
endloop
endfacet
facet normal -0.000001 0.000000 -1.000000
outer loop
vertex -101.607803 -132.517120 1.700000
vertex -100.835320 -132.653336 1.700000
vertex -100.098228 -132.921616 1.700000
endloop
endfacet
facet normal 0.000000 0.000000 -1.000000
outer loop
vertex -100.098228 -132.921616 1.700000
vertex -99.418915 -133.313812 1.700000
vertex -98.818024 -133.818024 1.700000
endloop
endfacet
facet normal 0.000000 0.000000 -1.000000
outer loop
vertex -98.818024 -133.818024 1.700000
vertex -98.313820 -134.418900 1.700000
vertex -97.921623 -135.098221 1.700000
endloop
endfacet
facet normal 0.000000 0.000000 -1.000000
outer loop
vertex -97.921623 -135.098221 1.700000
vertex -97.653343 -135.835312 1.700000
vertex -97.517128 -136.607803 1.700000
endloop
endfacet
facet normal 0.000000 0.000000 -1.000000
outer loop
vertex -97.517128 -136.607803 1.700000
vertex -97.517128 -137.392197 1.700000
vertex -97.653343 -138.164688 1.700000
endloop
endfacet
facet normal 0.000002 0.000000 -1.000000
outer loop
vertex -97.653343 -138.164688 1.700000
vertex -97.921623 -138.901779 1.700000
vertex -98.313820 -139.581100 1.700000
endloop
endfacet
facet normal 0.000000 0.000000 -1.000000
outer loop
vertex -98.313820 -139.581100 1.700000
vertex -105.686188 -139.581100 1.700000
vertex -106.078392 -138.901779 1.700000
endloop
endfacet
facet normal 0.000000 0.000000 -1.000000
outer loop
vertex -106.078392 -138.901779 1.700000
vertex -106.346672 -138.164688 1.700000
vertex -106.482887 -137.392197 1.700000
endloop
endfacet
facet normal 0.000000 0.000000 -1.000000
outer loop
vertex -106.482887 -137.392197 1.700000
vertex -106.482887 -136.607803 1.700000
vertex -106.346672 -135.835312 1.700000
endloop
endfacet
facet normal 0.000002 0.000000 -1.000000
outer loop
vertex -106.346672 -135.835312 1.700000
vertex -106.078392 -135.098221 1.700000
vertex -105.686195 -134.418915 1.700000
endloop
endfacet
facet normal 0.000001 0.000000 -1.000000
outer loop
vertex -105.686195 -134.418915 1.700000
vertex -105.181992 -133.818024 1.700000
vertex -104.581100 -133.313812 1.700000
endloop
endfacet
facet normal 0.000002 0.000000 -1.000000
outer loop
vertex -104.581100 -133.313812 1.700000
vertex -103.901794 -132.921616 1.700000
vertex -103.164696 -132.653336 1.700000
endloop
endfacet
facet normal 0.000000 0.000000 -1.000000
outer loop
vertex -103.164696 -132.653336 1.700000
vertex -102.392212 -132.517120 1.700000
vertex -101.607803 -132.517120 1.700000
endloop
endfacet
facet normal 0.000000 0.000000 -1.000000
outer loop
vertex -101.607803 -132.517120 1.700000
vertex -100.098228 -132.921616 1.700000
vertex -98.818024 -133.818024 1.700000
endloop
endfacet
facet normal 0.000000 0.000000 -1.000000
outer loop
vertex -98.818024 -133.818024 1.700000
vertex -97.921623 -135.098221 1.700000
vertex -97.517128 -136.607803 1.700000
endloop
endfacet
facet normal -0.000001 0.000000 -1.000000
outer loop
vertex -97.517128 -136.607803 1.700000
vertex -97.653343 -138.164688 1.700000
vertex -98.313820 -139.581100 1.700000
endloop
endfacet
facet normal 0.000000 0.000000 -1.000000
outer loop
vertex -98.313820 -139.581100 1.700000
vertex -106.078392 -138.901779 1.700000
vertex -106.482887 -137.392197 1.700000
endloop
endfacet
facet normal 0.000001 0.000000 -1.000000
outer loop
vertex -106.482887 -137.392197 1.700000
vertex -106.346672 -135.835312 1.700000
vertex -105.686195 -134.418915 1.700000
endloop
endfacet
facet normal -0.000000 0.000000 -1.000000
outer loop
vertex -105.686195 -134.418915 1.700000
vertex -104.581100 -133.313812 1.700000
vertex -103.164696 -132.653336 1.700000
endloop
endfacet
facet normal 0.000000 0.000000 -1.000000
outer loop
vertex -103.164696 -132.653336 1.700000
vertex -101.607803 -132.517120 1.700000
vertex -98.818024 -133.818024 1.700000
endloop
endfacet
facet normal -0.000000 0.000000 -1.000000
outer loop
vertex -98.818024 -133.818024 1.700000
vertex -97.517128 -136.607803 1.700000
vertex -98.313820 -139.581100 1.700000
endloop
endfacet
facet normal -0.000000 0.000000 -1.000000
outer loop
vertex -98.313820 -139.581100 1.700000
vertex -106.482887 -137.392197 1.700000
vertex -105.686195 -134.418915 1.700000
endloop
endfacet
facet normal 0.000000 0.000000 -1.000000
outer loop
vertex -105.686195 -134.418915 1.700000
vertex -103.164696 -132.653336 1.700000
vertex -98.818024 -133.818024 1.700000
endloop
endfacet
facet normal 0.000000 0.000000 -1.000000
outer loop
vertex -98.818024 -133.818024 1.700000
vertex -98.313820 -139.581100 1.700000
vertex -105.686195 -134.418915 1.700000
endloop
endfacet
endsolid Exported from Blender-2.78 (sub 0)
