solid Exported from Blender-2.78 (sub 0)
facet normal 0.000000 0.000000 1.000000
outer loop
vertex 143.076035 -120.386147 4.299999
vertex 120.386086 -143.076065 4.299999
vertex 124.999992 -150.000000 4.299999
endloop
endfacet
facet normal 0.000000 0.000000 1.000000
outer loop
vertex 124.999992 -150.000000 4.299999
vertex 150.000000 -150.000046 4.299999
vertex 141.000000 -144.000000 4.299999
endloop
endfacet
facet normal 0.000000 0.000000 1.000000
outer loop
vertex 124.999992 -150.000000 4.299999
vertex 141.000000 -144.000000 4.299999
vertex 140.479050 -143.954422 4.299999
endloop
endfacet
facet normal 0.000000 0.000000 1.000000
outer loop
vertex 150.000000 -125.000008 4.299999
vertex 143.076035 -120.386147 4.299999
vertex 124.999992 -150.000000 4.299999
endloop
endfacet
facet normal 0.000001 0.000000 1.000000
outer loop
vertex 140.479050 -138.045578 4.299999
vertex 141.000000 -138.000000 4.299999
vertex 150.000000 -125.000008 4.299999
endloop
endfacet
facet normal 0.000000 0.000000 1.000000
outer loop
vertex 139.973938 -138.180908 4.299999
vertex 140.479050 -138.045578 4.299999
vertex 150.000000 -125.000008 4.299999
endloop
endfacet
facet normal -0.000000 0.000000 1.000000
outer loop
vertex 124.999992 -150.000000 4.299999
vertex 140.479050 -143.954422 4.299999
vertex 139.973938 -143.819092 4.299999
endloop
endfacet
facet normal 0.000000 0.000000 1.000000
outer loop
vertex 124.999992 -150.000000 4.299999
vertex 139.973938 -143.819092 4.299999
vertex 139.500000 -143.598083 4.299999
endloop
endfacet
facet normal -0.000002 0.000000 1.000000
outer loop
vertex 139.500000 -138.401917 4.299999
vertex 139.973938 -138.180908 4.299999
vertex 150.000000 -125.000008 4.299999
endloop
endfacet
facet normal 0.000003 0.000000 1.000000
outer loop
vertex 139.071640 -138.701859 4.299999
vertex 139.500000 -138.401917 4.299999
vertex 150.000000 -125.000008 4.299999
endloop
endfacet
facet normal -0.000000 0.000000 1.000000
outer loop
vertex 124.999992 -150.000000 4.299999
vertex 139.500000 -143.598083 4.299999
vertex 139.071640 -143.298111 4.299999
endloop
endfacet
facet normal 0.000000 0.000000 1.000000
outer loop
vertex 124.999992 -150.000000 4.299999
vertex 139.071640 -143.298111 4.299999
vertex 138.701874 -142.928375 4.299999
endloop
endfacet
facet normal -0.000000 0.000000 1.000000
outer loop
vertex 139.071640 -138.701859 4.299999
vertex 150.000000 -125.000008 4.299999
vertex 124.999992 -150.000000 4.299999
endloop
endfacet
facet normal 0.000000 0.000000 1.000000
outer loop
vertex 138.701874 -139.071625 4.299999
vertex 139.071640 -138.701859 4.299999
vertex 124.999992 -150.000000 4.299999
endloop
endfacet
facet normal -0.000001 0.000000 1.000000
outer loop
vertex 124.999992 -150.000000 4.299999
vertex 138.701874 -142.928375 4.299999
vertex 138.401917 -142.500000 4.299999
endloop
endfacet
facet normal 0.000001 0.000000 1.000000
outer loop
vertex 124.999992 -150.000000 4.299999
vertex 138.401917 -142.500000 4.299999
vertex 138.180923 -142.026047 4.299999
endloop
endfacet
facet normal -0.000003 0.000000 1.000000
outer loop
vertex 138.401917 -139.500000 4.299999
vertex 138.701874 -139.071625 4.299999
vertex 124.999992 -150.000000 4.299999
endloop
endfacet
facet normal 0.000000 0.000000 1.000000
outer loop
vertex 138.180923 -139.973923 4.299999
vertex 138.401917 -139.500000 4.299999
vertex 124.999992 -150.000000 4.299999
endloop
endfacet
facet normal -0.000000 0.000000 1.000000
outer loop
vertex 124.999992 -150.000000 4.299999
vertex 138.180923 -142.026047 4.299999
vertex 138.045578 -141.520950 4.299999
endloop
endfacet
facet normal -0.000000 0.000000 1.000000
outer loop
vertex 124.999992 -150.000000 4.299999
vertex 138.045578 -141.520950 4.299999
vertex 138.000000 -141.000000 4.299999
endloop
endfacet
facet normal 0.000000 0.000000 1.000000
outer loop
vertex 138.045578 -140.479050 4.299999
vertex 138.180923 -139.973923 4.299999
vertex 124.999992 -150.000000 4.299999
endloop
endfacet
facet normal -0.000000 0.000000 1.000000
outer loop
vertex 124.999992 -150.000000 4.299999
vertex 138.000000 -141.000000 4.299999
vertex 138.045578 -140.479050 4.299999
endloop
endfacet
facet normal 0.000000 0.000000 1.000000
outer loop
vertex 141.520950 -143.954422 4.299999
vertex 141.000000 -144.000000 4.299999
vertex 150.000000 -150.000046 4.299999
endloop
endfacet
facet normal -0.000000 0.000000 1.000000
outer loop
vertex 150.000000 -125.000008 4.299999
vertex 141.000000 -138.000000 4.299999
vertex 141.520935 -138.045593 4.299999
endloop
endfacet
facet normal -0.000000 0.000000 1.000000
outer loop
vertex 150.000000 -125.000008 4.299999
vertex 141.520935 -138.045593 4.299999
vertex 142.026062 -138.180908 4.299999
endloop
endfacet
facet normal 0.000000 0.000000 1.000000
outer loop
vertex 142.026062 -143.819092 4.299999
vertex 141.520950 -143.954422 4.299999
vertex 150.000000 -150.000046 4.299999
endloop
endfacet
facet normal 0.000000 0.000000 1.000000
outer loop
vertex 142.500000 -143.598083 4.299999
vertex 142.026062 -143.819092 4.299999
vertex 150.000000 -150.000046 4.299999
endloop
endfacet
facet normal 0.000001 0.000000 1.000000
outer loop
vertex 150.000000 -125.000008 4.299999
vertex 142.026062 -138.180908 4.299999
vertex 142.500000 -138.401917 4.299999
endloop
endfacet
facet normal -0.000001 0.000000 1.000000
outer loop
vertex 150.000000 -125.000008 4.299999
vertex 142.500000 -138.401917 4.299999
vertex 142.928360 -138.701859 4.299999
endloop
endfacet
facet normal 0.000000 0.000000 1.000000
outer loop
vertex 142.928360 -143.298141 4.299999
vertex 142.500000 -143.598083 4.299999
vertex 150.000000 -150.000046 4.299999
endloop
endfacet
facet normal 0.000000 0.000000 1.000000
outer loop
vertex 143.298126 -142.928375 4.299999
vertex 142.928360 -143.298141 4.299999
vertex 150.000000 -150.000046 4.299999
endloop
endfacet
facet normal 0.000001 0.000000 1.000000
outer loop
vertex 150.000000 -125.000008 4.299999
vertex 142.928360 -138.701859 4.299999
vertex 143.298126 -139.071625 4.299999
endloop
endfacet
facet normal -0.000000 0.000000 1.000000
outer loop
vertex 150.000000 -125.000008 4.299999
vertex 143.298126 -139.071625 4.299999
vertex 143.598083 -139.500000 4.299999
endloop
endfacet
facet normal 0.000000 0.000000 1.000000
outer loop
vertex 143.598083 -142.500000 4.299999
vertex 143.298126 -142.928375 4.299999
vertex 150.000000 -150.000046 4.299999
endloop
endfacet
facet normal 0.000000 0.000000 1.000000
outer loop
vertex 143.819077 -142.026077 4.299999
vertex 143.598083 -142.500000 4.299999
vertex 150.000000 -150.000046 4.299999
endloop
endfacet
facet normal 0.000000 0.000000 1.000000
outer loop
vertex 150.000000 -150.000046 4.299999
vertex 150.000000 -125.000008 4.299999
vertex 143.598083 -139.500000 4.299999
endloop
endfacet
facet normal 0.000001 0.000000 1.000000
outer loop
vertex 150.000000 -150.000046 4.299999
vertex 143.598083 -139.500000 4.299999
vertex 143.819077 -139.973953 4.299999
endloop
endfacet
facet normal 0.000000 0.000000 1.000000
outer loop
vertex 143.954422 -141.520950 4.299999
vertex 143.819077 -142.026077 4.299999
vertex 150.000000 -150.000046 4.299999
endloop
endfacet
facet normal 0.000000 0.000000 1.000000
outer loop
vertex 144.000000 -141.000000 4.299999
vertex 143.954422 -141.520950 4.299999
vertex 150.000000 -150.000046 4.299999
endloop
endfacet
facet normal 0.000001 0.000000 1.000000
outer loop
vertex 150.000000 -150.000046 4.299999
vertex 143.819077 -139.973953 4.299999
vertex 143.954422 -140.479050 4.299999
endloop
endfacet
facet normal 0.000000 0.000000 1.000000
outer loop
vertex 150.000000 -150.000046 4.299999
vertex 143.954422 -140.479050 4.299999
vertex 144.000000 -141.000000 4.299999
endloop
endfacet
facet normal 0.554523 0.832168 0.000000
outer loop
vertex 150.000000 -125.000008 4.299999
vertex 150.000000 -125.000008 0.000010
vertex 147.952988 -123.635963 1.327122
endloop
endfacet
facet normal 0.554522 0.832169 -0.000006
outer loop
vertex 150.000000 -125.000008 4.299999
vertex 147.952988 -123.635963 1.327122
vertex 145.905975 -122.271912 2.608677
endloop
endfacet
facet normal 0.554526 0.832166 0.000032
outer loop
vertex 143.858963 -120.907860 3.844685
vertex 143.076035 -120.386147 4.299999
vertex 150.000000 -125.000008 4.299999
endloop
endfacet
facet normal 0.554524 0.832168 0.000000
outer loop
vertex 150.000000 -125.000008 4.299999
vertex 145.905975 -122.271912 2.608677
vertex 143.858963 -120.907860 3.844685
endloop
endfacet
facet normal 1.000000 -0.000000 0.000000
outer loop
vertex 150.000000 -150.000046 4.299999
vertex 150.000000 -150.000046 0.000000
vertex 150.000000 -125.000008 0.000010
endloop
endfacet
facet normal 1.000000 0.000000 0.000000
outer loop
vertex 150.000000 -125.000008 0.000010
vertex 150.000000 -125.000008 4.299999
vertex 150.000000 -150.000046 4.299999
endloop
endfacet
facet normal -0.340870 0.340870 -0.876136
outer loop
vertex 124.999992 -150.000000 0.000010
vertex 123.635933 -147.953003 1.327118
vertex 147.952988 -123.635963 1.327122
endloop
endfacet
facet normal -0.340871 0.340871 -0.876136
outer loop
vertex 147.952988 -123.635963 1.327122
vertex 150.000000 -125.000008 0.000010
vertex 124.999992 -150.000000 0.000010
endloop
endfacet
facet normal -0.331783 0.331783 -0.883085
outer loop
vertex 123.635933 -147.953003 1.327118
vertex 122.271866 -145.905991 2.608683
vertex 145.905975 -122.271912 2.608677
endloop
endfacet
facet normal -0.331781 0.331782 -0.883087
outer loop
vertex 145.905975 -122.271912 2.608677
vertex 147.952988 -123.635963 1.327122
vertex 123.635933 -147.953003 1.327118
endloop
endfacet
facet normal -0.322477 0.322477 -0.889953
outer loop
vertex 122.271866 -145.905991 2.608683
vertex 120.907799 -143.858978 3.844687
vertex 143.858963 -120.907860 3.844685
endloop
endfacet
facet normal -0.322474 0.322475 -0.889955
outer loop
vertex 143.858963 -120.907860 3.844685
vertex 145.905975 -122.271912 2.608677
vertex 122.271866 -145.905991 2.608683
endloop
endfacet
facet normal -0.312959 0.312959 -0.896724
outer loop
vertex 120.907799 -143.858978 3.844687
vertex 120.386086 -143.076065 4.299999
vertex 143.076035 -120.386147 4.299999
endloop
endfacet
facet normal -0.312951 0.312952 -0.896729
outer loop
vertex 143.076035 -120.386147 4.299999
vertex 143.858963 -120.907860 3.844685
vertex 120.907799 -143.858978 3.844687
endloop
endfacet
facet normal -0.000002 -1.000000 0.000000
outer loop
vertex 124.999992 -150.000000 4.299999
vertex 124.999992 -150.000000 0.000010
vertex 150.000000 -150.000046 0.000000
endloop
endfacet
facet normal -0.000002 -1.000000 0.000000
outer loop
vertex 150.000000 -150.000046 0.000000
vertex 150.000000 -150.000046 4.299999
vertex 124.999992 -150.000000 4.299999
endloop
endfacet
facet normal 0.000002 -0.000001 -1.000000
outer loop
vertex 143.819077 -142.026077 0.000006
vertex 143.954422 -141.520950 0.000006
vertex 150.000000 -125.000008 0.000010
endloop
endfacet
facet normal -0.000000 -0.000000 -1.000000
outer loop
vertex 124.999992 -150.000000 0.000010
vertex 138.000000 -141.000000 0.000008
vertex 138.045578 -141.520950 0.000008
endloop
endfacet
facet normal -0.000000 -0.000000 -1.000000
outer loop
vertex 124.999992 -150.000000 0.000010
vertex 138.045578 -141.520950 0.000008
vertex 138.180923 -142.026047 0.000008
endloop
endfacet
facet normal -0.000000 0.000000 -1.000000
outer loop
vertex 143.819077 -142.026077 0.000006
vertex 150.000000 -125.000008 0.000010
vertex 150.000000 -150.000046 0.000000
endloop
endfacet
facet normal -0.000001 0.000000 -1.000000
outer loop
vertex 143.598083 -142.500000 0.000006
vertex 143.819077 -142.026077 0.000006
vertex 150.000000 -150.000046 0.000000
endloop
endfacet
facet normal -0.000000 -0.000000 -1.000000
outer loop
vertex 124.999992 -150.000000 0.000010
vertex 138.180923 -142.026047 0.000008
vertex 138.401917 -142.500000 0.000008
endloop
endfacet
facet normal -0.000000 -0.000000 -1.000000
outer loop
vertex 124.999992 -150.000000 0.000010
vertex 138.401917 -142.500000 0.000008
vertex 138.701874 -142.928375 0.000008
endloop
endfacet
facet normal -0.000000 0.000000 -1.000000
outer loop
vertex 143.298126 -142.928375 0.000006
vertex 143.598083 -142.500000 0.000006
vertex 150.000000 -150.000046 0.000000
endloop
endfacet
facet normal -0.000000 0.000000 -1.000000
outer loop
vertex 142.928360 -143.298141 0.000006
vertex 143.298126 -142.928375 0.000006
vertex 150.000000 -150.000046 0.000000
endloop
endfacet
facet normal -0.000000 -0.000000 -1.000000
outer loop
vertex 124.999992 -150.000000 0.000010
vertex 138.701874 -142.928375 0.000008
vertex 139.071640 -143.298111 0.000008
endloop
endfacet
facet normal -0.000002 0.000004 -1.000000
outer loop
vertex 124.999992 -150.000000 0.000010
vertex 139.071640 -143.298111 0.000008
vertex 139.500000 -143.598083 0.000006
endloop
endfacet
facet normal -0.000000 0.000000 -1.000000
outer loop
vertex 142.500000 -143.598083 0.000006
vertex 142.928360 -143.298141 0.000006
vertex 150.000000 -150.000046 0.000000
endloop
endfacet
facet normal -0.000000 0.000001 -1.000000
outer loop
vertex 142.026062 -143.819092 0.000006
vertex 142.500000 -143.598083 0.000006
vertex 150.000000 -150.000046 0.000000
endloop
endfacet
facet normal -0.000000 0.000000 -1.000000
outer loop
vertex 150.000000 -150.000046 0.000000
vertex 124.999992 -150.000000 0.000010
vertex 139.500000 -143.598083 0.000006
endloop
endfacet
facet normal 0.000002 0.000004 -1.000000
outer loop
vertex 150.000000 -150.000046 0.000000
vertex 139.500000 -143.598083 0.000006
vertex 139.973938 -143.819092 0.000006
endloop
endfacet
facet normal -0.000000 0.000001 -1.000000
outer loop
vertex 141.520950 -143.954422 0.000006
vertex 142.026062 -143.819092 0.000006
vertex 150.000000 -150.000046 0.000000
endloop
endfacet
facet normal -0.000000 0.000001 -1.000000
outer loop
vertex 141.000000 -144.000000 0.000006
vertex 141.520950 -143.954422 0.000006
vertex 150.000000 -150.000046 0.000000
endloop
endfacet
facet normal 0.000000 0.000002 -1.000000
outer loop
vertex 150.000000 -150.000046 0.000000
vertex 139.973938 -143.819092 0.000006
vertex 140.479050 -143.954422 0.000006
endloop
endfacet
facet normal 0.000000 0.000001 -1.000000
outer loop
vertex 141.000000 -144.000000 0.000006
vertex 150.000000 -150.000046 0.000000
vertex 140.479050 -143.954422 0.000006
endloop
endfacet
facet normal -0.000000 0.000000 -1.000000
outer loop
vertex 138.045578 -140.479050 0.000008
vertex 138.000000 -141.000000 0.000008
vertex 124.999992 -150.000000 0.000010
endloop
endfacet
facet normal 0.000001 -0.000000 -1.000000
outer loop
vertex 150.000000 -125.000008 0.000010
vertex 143.954422 -141.520950 0.000006
vertex 144.000000 -141.000000 0.000006
endloop
endfacet
facet normal 0.000001 0.000000 -1.000000
outer loop
vertex 150.000000 -125.000008 0.000010
vertex 144.000000 -141.000000 0.000006
vertex 143.954422 -140.479050 0.000006
endloop
endfacet
facet normal -0.000000 0.000000 -1.000000
outer loop
vertex 138.180923 -139.973923 0.000008
vertex 138.045578 -140.479050 0.000008
vertex 124.999992 -150.000000 0.000010
endloop
endfacet
facet normal -0.000000 0.000000 -1.000000
outer loop
vertex 138.401917 -139.500000 0.000008
vertex 138.180923 -139.973923 0.000008
vertex 124.999992 -150.000000 0.000010
endloop
endfacet
facet normal 0.000000 0.000000 -1.000000
outer loop
vertex 150.000000 -125.000008 0.000010
vertex 143.954422 -140.479050 0.000006
vertex 143.819077 -139.973953 0.000006
endloop
endfacet
facet normal 0.000000 0.000000 -1.000000
outer loop
vertex 150.000000 -125.000008 0.000010
vertex 143.819077 -139.973953 0.000006
vertex 143.598083 -139.500000 0.000006
endloop
endfacet
facet normal -0.000000 0.000000 -1.000000
outer loop
vertex 138.701874 -139.071625 0.000008
vertex 138.401917 -139.500000 0.000008
vertex 124.999992 -150.000000 0.000010
endloop
endfacet
facet normal -0.000001 0.000001 -1.000000
outer loop
vertex 139.071640 -138.701859 0.000008
vertex 138.701874 -139.071625 0.000008
vertex 124.999992 -150.000000 0.000010
endloop
endfacet
facet normal -0.000004 0.000002 -1.000000
outer loop
vertex 150.000000 -125.000008 0.000010
vertex 143.598083 -139.500000 0.000006
vertex 143.298126 -139.071625 0.000008
endloop
endfacet
facet normal 0.000000 0.000000 -1.000000
outer loop
vertex 150.000000 -125.000008 0.000010
vertex 143.298126 -139.071625 0.000008
vertex 142.928360 -138.701859 0.000008
endloop
endfacet
facet normal -0.000001 0.000001 -1.000000
outer loop
vertex 139.071640 -138.701859 0.000008
vertex 124.999992 -150.000000 0.000010
vertex 150.000000 -125.000008 0.000010
endloop
endfacet
facet normal -0.000000 0.000000 -1.000000
outer loop
vertex 139.500000 -138.401917 0.000008
vertex 139.071640 -138.701859 0.000008
vertex 150.000000 -125.000008 0.000010
endloop
endfacet
facet normal 0.000000 0.000000 -1.000000
outer loop
vertex 150.000000 -125.000008 0.000010
vertex 142.928360 -138.701859 0.000008
vertex 142.500000 -138.401917 0.000008
endloop
endfacet
facet normal 0.000000 0.000000 -1.000000
outer loop
vertex 150.000000 -125.000008 0.000010
vertex 142.500000 -138.401917 0.000008
vertex 142.026062 -138.180908 0.000008
endloop
endfacet
facet normal -0.000000 0.000000 -1.000000
outer loop
vertex 139.973938 -138.180908 0.000008
vertex 139.500000 -138.401917 0.000008
vertex 150.000000 -125.000008 0.000010
endloop
endfacet
facet normal -0.000000 0.000000 -1.000000
outer loop
vertex 140.479050 -138.045578 0.000008
vertex 139.973938 -138.180908 0.000008
vertex 150.000000 -125.000008 0.000010
endloop
endfacet
facet normal 0.000000 0.000000 -1.000000
outer loop
vertex 150.000000 -125.000008 0.000010
vertex 142.026062 -138.180908 0.000008
vertex 141.520935 -138.045593 0.000008
endloop
endfacet
facet normal -0.000000 0.000000 -1.000000
outer loop
vertex 141.000000 -138.000000 0.000008
vertex 140.479050 -138.045578 0.000008
vertex 150.000000 -125.000008 0.000010
endloop
endfacet
facet normal 0.000000 0.000000 -1.000000
outer loop
vertex 150.000000 -125.000008 0.000010
vertex 141.520935 -138.045593 0.000008
vertex 141.000000 -138.000000 0.000008
endloop
endfacet
facet normal -0.832163 -0.554531 0.000020
outer loop
vertex 124.999992 -150.000000 4.299999
vertex 120.386086 -143.076065 4.299999
vertex 120.907799 -143.858978 3.844687
endloop
endfacet
facet normal -0.832163 -0.554532 0.000003
outer loop
vertex 124.999992 -150.000000 4.299999
vertex 120.907799 -143.858978 3.844687
vertex 122.271866 -145.905991 2.608683
endloop
endfacet
facet normal -0.832168 -0.554524 0.000000
outer loop
vertex 123.635933 -147.953003 1.327118
vertex 124.999992 -150.000000 0.000010
vertex 124.999992 -150.000000 4.299999
endloop
endfacet
facet normal -0.832164 -0.554530 -0.000003
outer loop
vertex 122.271866 -145.905991 2.608683
vertex 123.635933 -147.953003 1.327118
vertex 124.999992 -150.000000 4.299999
endloop
endfacet
facet normal 0.087161 0.996194 0.000000
outer loop
vertex 141.000000 -144.000000 4.299999
vertex 141.000000 -144.000000 0.000006
vertex 140.479050 -143.954422 0.000006
endloop
endfacet
facet normal 0.087156 0.996195 0.000000
outer loop
vertex 140.479050 -143.954422 0.000006
vertex 140.479050 -143.954422 4.299999
vertex 141.000000 -144.000000 4.299999
endloop
endfacet
facet normal -0.087151 0.996195 0.000000
outer loop
vertex 141.520950 -143.954422 4.299999
vertex 141.520950 -143.954422 0.000006
vertex 141.000000 -144.000000 0.000006
endloop
endfacet
facet normal -0.087161 0.996194 0.000000
outer loop
vertex 141.000000 -144.000000 0.000006
vertex 141.000000 -144.000000 4.299999
vertex 141.520950 -143.954422 4.299999
endloop
endfacet
facet normal -0.258792 0.965933 0.000000
outer loop
vertex 142.026062 -143.819092 4.299999
vertex 142.026062 -143.819092 0.000006
vertex 141.520950 -143.954422 0.000006
endloop
endfacet
facet normal -0.258805 0.965929 0.000000
outer loop
vertex 141.520950 -143.954422 0.000006
vertex 141.520950 -143.954422 4.299999
vertex 142.026062 -143.819092 4.299999
endloop
endfacet
facet normal -0.422624 0.906305 0.000000
outer loop
vertex 142.500000 -143.598083 4.299999
vertex 142.500000 -143.598083 0.000006
vertex 142.026062 -143.819092 0.000006
endloop
endfacet
facet normal -0.422624 0.906305 0.000000
outer loop
vertex 142.026062 -143.819092 0.000006
vertex 142.026062 -143.819092 4.299999
vertex 142.500000 -143.598083 4.299999
endloop
endfacet
facet normal -0.573583 0.819147 0.000000
outer loop
vertex 142.928360 -143.298141 4.299999
vertex 142.928360 -143.298141 0.000006
vertex 142.500000 -143.598083 0.000006
endloop
endfacet
facet normal -0.573583 0.819147 0.000000
outer loop
vertex 142.500000 -143.598083 0.000006
vertex 142.500000 -143.598083 4.299999
vertex 142.928360 -143.298141 4.299999
endloop
endfacet
facet normal -0.707113 0.707101 0.000000
outer loop
vertex 143.298126 -142.928375 4.299999
vertex 143.298126 -142.928375 0.000006
vertex 142.928360 -143.298141 0.000006
endloop
endfacet
facet normal -0.707085 0.707128 0.000000
outer loop
vertex 142.928360 -143.298141 0.000006
vertex 142.928360 -143.298141 4.299999
vertex 143.298126 -142.928375 4.299999
endloop
endfacet
facet normal -0.819151 0.573578 0.000000
outer loop
vertex 143.598083 -142.500000 4.299999
vertex 143.598083 -142.500000 0.000006
vertex 143.298126 -142.928375 0.000006
endloop
endfacet
facet normal -0.819151 0.573578 0.000000
outer loop
vertex 143.298126 -142.928375 0.000006
vertex 143.298126 -142.928375 4.299999
vertex 143.598083 -142.500000 4.299999
endloop
endfacet
facet normal -0.906321 0.422590 0.000000
outer loop
vertex 143.819077 -142.026077 4.299999
vertex 143.819077 -142.026077 0.000006
vertex 143.598083 -142.500000 0.000006
endloop
endfacet
facet normal -0.906300 0.422635 0.000000
outer loop
vertex 143.598083 -142.500000 0.000006
vertex 143.598083 -142.500000 4.299999
vertex 143.819077 -142.026077 4.299999
endloop
endfacet
facet normal -0.965936 0.258783 0.000000
outer loop
vertex 143.954422 -141.520950 4.299999
vertex 143.954422 -141.520950 0.000006
vertex 143.819077 -142.026077 0.000006
endloop
endfacet
facet normal -0.965922 0.258833 0.000000
outer loop
vertex 143.819077 -142.026077 0.000006
vertex 143.819077 -142.026077 4.299999
vertex 143.954422 -141.520950 4.299999
endloop
endfacet
facet normal 0.996197 0.087130 0.000000
outer loop
vertex 138.045578 -141.520950 4.299999
vertex 138.045578 -141.520950 0.000008
vertex 138.000000 -141.000000 0.000008
endloop
endfacet
facet normal 0.996192 0.087184 0.000000
outer loop
vertex 138.000000 -141.000000 0.000008
vertex 138.000000 -141.000000 4.299999
vertex 138.045578 -141.520950 4.299999
endloop
endfacet
facet normal 0.965918 0.258848 0.000000
outer loop
vertex 138.180923 -142.026047 4.299999
vertex 138.180923 -142.026047 0.000008
vertex 138.045578 -141.520950 0.000008
endloop
endfacet
facet normal 0.965932 0.258797 0.000000
outer loop
vertex 138.045578 -141.520950 0.000008
vertex 138.045578 -141.520950 4.299999
vertex 138.180923 -142.026047 4.299999
endloop
endfacet
facet normal 0.906310 0.422613 0.000000
outer loop
vertex 138.401917 -142.500000 4.299999
vertex 138.401917 -142.500000 0.000008
vertex 138.180923 -142.026047 0.000008
endloop
endfacet
facet normal 0.906331 0.422568 0.000000
outer loop
vertex 138.180923 -142.026047 0.000008
vertex 138.180923 -142.026047 4.299999
vertex 138.401917 -142.500000 4.299999
endloop
endfacet
facet normal 0.819151 0.573578 0.000000
outer loop
vertex 138.701874 -142.928375 4.299999
vertex 138.701874 -142.928375 0.000008
vertex 138.401917 -142.500000 0.000008
endloop
endfacet
facet normal 0.819151 0.573578 0.000000
outer loop
vertex 138.401917 -142.500000 0.000008
vertex 138.401917 -142.500000 4.299999
vertex 138.701874 -142.928375 4.299999
endloop
endfacet
facet normal 0.707056 0.707157 0.000000
outer loop
vertex 139.071640 -143.298111 4.299999
vertex 139.071640 -143.298111 0.000008
vertex 138.701874 -142.928375 0.000008
endloop
endfacet
facet normal 0.707083 0.707130 0.000000
outer loop
vertex 138.701874 -142.928375 0.000008
vertex 138.701874 -142.928375 4.299999
vertex 139.071640 -143.298111 4.299999
endloop
endfacet
facet normal 0.573631 0.819113 0.000000
outer loop
vertex 139.500000 -143.598083 4.299999
vertex 139.500000 -143.598083 0.000006
vertex 139.071640 -143.298111 0.000008
endloop
endfacet
facet normal 0.573597 0.819138 0.000000
outer loop
vertex 139.071640 -143.298111 0.000008
vertex 139.071640 -143.298111 4.299999
vertex 139.500000 -143.598083 4.299999
endloop
endfacet
facet normal 0.422624 0.906305 0.000000
outer loop
vertex 139.973938 -143.819092 4.299999
vertex 139.973938 -143.819092 0.000006
vertex 139.500000 -143.598083 0.000006
endloop
endfacet
facet normal 0.422645 0.906295 0.000000
outer loop
vertex 139.500000 -143.598083 0.000006
vertex 139.500000 -143.598083 4.299999
vertex 139.973938 -143.819092 4.299999
endloop
endfacet
facet normal 0.258792 0.965933 0.000000
outer loop
vertex 140.479050 -143.954422 4.299999
vertex 140.479050 -143.954422 0.000006
vertex 139.973938 -143.819092 0.000006
endloop
endfacet
facet normal 0.258792 0.965933 0.000000
outer loop
vertex 139.973938 -143.819092 0.000006
vertex 139.973938 -143.819092 4.299999
vertex 140.479050 -143.954422 4.299999
endloop
endfacet
facet normal 0.707113 -0.707101 0.000000
outer loop
vertex 138.701874 -139.071625 4.299999
vertex 138.701874 -139.071625 0.000008
vertex 139.071640 -138.701859 0.000008
endloop
endfacet
facet normal 0.707085 -0.707128 0.000000
outer loop
vertex 139.071640 -138.701859 0.000008
vertex 139.071640 -138.701859 4.299999
vertex 138.701874 -139.071625 4.299999
endloop
endfacet
facet normal 0.819151 -0.573578 0.000000
outer loop
vertex 138.401917 -139.500000 4.299999
vertex 138.401917 -139.500000 0.000008
vertex 138.701874 -139.071625 0.000008
endloop
endfacet
facet normal 0.819151 -0.573578 0.000000
outer loop
vertex 138.701874 -139.071625 0.000008
vertex 138.701874 -139.071625 4.299999
vertex 138.401917 -139.500000 4.299999
endloop
endfacet
facet normal 0.906321 -0.422590 0.000000
outer loop
vertex 138.180923 -139.973923 4.299999
vertex 138.180923 -139.973923 0.000008
vertex 138.401917 -139.500000 0.000008
endloop
endfacet
facet normal 0.906300 -0.422635 0.000000
outer loop
vertex 138.401917 -139.500000 0.000008
vertex 138.401917 -139.500000 4.299999
vertex 138.180923 -139.973923 4.299999
endloop
endfacet
facet normal 0.965936 -0.258783 0.000000
outer loop
vertex 138.045578 -140.479050 4.299999
vertex 138.045578 -140.479050 0.000008
vertex 138.180923 -139.973923 0.000008
endloop
endfacet
facet normal 0.965922 -0.258833 0.000000
outer loop
vertex 138.180923 -139.973923 0.000008
vertex 138.180923 -139.973923 4.299999
vertex 138.045578 -140.479050 4.299999
endloop
endfacet
facet normal 0.996192 -0.087184 0.000000
outer loop
vertex 138.000000 -141.000000 4.299999
vertex 138.000000 -141.000000 0.000008
vertex 138.045578 -140.479050 0.000008
endloop
endfacet
facet normal 0.996197 -0.087130 0.000000
outer loop
vertex 138.045578 -140.479050 0.000008
vertex 138.045578 -140.479050 4.299999
vertex 138.000000 -141.000000 4.299999
endloop
endfacet
facet normal -0.996188 0.087237 0.000000
outer loop
vertex 144.000000 -141.000000 4.299999
vertex 144.000000 -141.000000 0.000006
vertex 143.954422 -141.520950 0.000006
endloop
endfacet
facet normal -0.996197 0.087130 0.000000
outer loop
vertex 143.954422 -141.520950 0.000006
vertex 143.954422 -141.520950 4.299999
vertex 144.000000 -141.000000 4.299999
endloop
endfacet
facet normal -0.996197 -0.087130 0.000000
outer loop
vertex 143.954422 -140.479050 4.299999
vertex 143.954422 -140.479050 0.000006
vertex 144.000000 -141.000000 0.000006
endloop
endfacet
facet normal -0.996187 -0.087237 0.000000
outer loop
vertex 144.000000 -141.000000 0.000006
vertex 144.000000 -141.000000 4.299999
vertex 143.954422 -140.479050 4.299999
endloop
endfacet
facet normal -0.965918 -0.258848 0.000000
outer loop
vertex 143.819077 -139.973953 4.299999
vertex 143.819077 -139.973953 0.000006
vertex 143.954422 -140.479050 0.000006
endloop
endfacet
facet normal -0.965932 -0.258797 0.000000
outer loop
vertex 143.954422 -140.479050 0.000006
vertex 143.954422 -140.479050 4.299999
vertex 143.819077 -139.973953 4.299999
endloop
endfacet
facet normal -0.906310 -0.422613 0.000000
outer loop
vertex 143.598083 -139.500000 4.299999
vertex 143.598083 -139.500000 0.000006
vertex 143.819077 -139.973953 0.000006
endloop
endfacet
facet normal -0.906331 -0.422568 0.000000
outer loop
vertex 143.819077 -139.973953 0.000006
vertex 143.819077 -139.973953 4.299999
vertex 143.598083 -139.500000 4.299999
endloop
endfacet
facet normal -0.819138 -0.573597 0.000000
outer loop
vertex 143.298126 -139.071625 4.299999
vertex 143.298126 -139.071625 0.000008
vertex 143.598083 -139.500000 0.000006
endloop
endfacet
facet normal -0.819151 -0.573578 0.000000
outer loop
vertex 143.598083 -139.500000 0.000006
vertex 143.598083 -139.500000 4.299999
vertex 143.298126 -139.071625 4.299999
endloop
endfacet
facet normal -0.707085 -0.707128 0.000000
outer loop
vertex 142.928360 -138.701859 4.299999
vertex 142.928360 -138.701859 0.000008
vertex 143.298126 -139.071625 0.000008
endloop
endfacet
facet normal -0.707140 -0.707074 0.000000
outer loop
vertex 143.298126 -139.071625 0.000008
vertex 143.298126 -139.071625 4.299999
vertex 142.928360 -138.701859 4.299999
endloop
endfacet
facet normal -0.573583 -0.819147 0.000000
outer loop
vertex 142.500000 -138.401917 4.299999
vertex 142.500000 -138.401917 0.000008
vertex 142.928360 -138.701859 0.000008
endloop
endfacet
facet normal -0.573558 -0.819165 0.000000
outer loop
vertex 142.928360 -138.701859 0.000008
vertex 142.928360 -138.701859 4.299999
vertex 142.500000 -138.401917 4.299999
endloop
endfacet
facet normal -0.422624 -0.906305 0.000000
outer loop
vertex 142.026062 -138.180908 4.299999
vertex 142.026062 -138.180908 0.000008
vertex 142.500000 -138.401917 0.000008
endloop
endfacet
facet normal -0.422645 -0.906295 0.000000
outer loop
vertex 142.500000 -138.401917 0.000008
vertex 142.500000 -138.401917 4.299999
vertex 142.026062 -138.180908 4.299999
endloop
endfacet
facet normal -0.258751 -0.965944 0.000000
outer loop
vertex 141.520935 -138.045593 4.299999
vertex 141.520935 -138.045593 0.000008
vertex 142.026062 -138.180908 0.000008
endloop
endfacet
facet normal -0.258764 -0.965941 0.000000
outer loop
vertex 142.026062 -138.180908 0.000008
vertex 142.026062 -138.180908 4.299999
vertex 141.520935 -138.045593 4.299999
endloop
endfacet
facet normal -0.087190 -0.996192 0.000000
outer loop
vertex 141.000000 -138.000000 4.299999
vertex 141.000000 -138.000000 0.000008
vertex 141.520935 -138.045593 0.000008
endloop
endfacet
facet normal -0.087190 -0.996192 0.000000
outer loop
vertex 141.520935 -138.045593 0.000008
vertex 141.520935 -138.045593 4.299999
vertex 141.000000 -138.000000 4.299999
endloop
endfacet
facet normal 0.087151 -0.996195 0.000000
outer loop
vertex 140.479050 -138.045578 4.299999
vertex 140.479050 -138.045578 0.000008
vertex 141.000000 -138.000000 0.000008
endloop
endfacet
facet normal 0.087161 -0.996194 0.000000
outer loop
vertex 141.000000 -138.000000 0.000008
vertex 141.000000 -138.000000 4.299999
vertex 140.479050 -138.045578 4.299999
endloop
endfacet
facet normal 0.258792 -0.965933 0.000000
outer loop
vertex 139.973938 -138.180908 4.299999
vertex 139.973938 -138.180908 0.000008
vertex 140.479050 -138.045578 0.000008
endloop
endfacet
facet normal 0.258805 -0.965930 0.000000
outer loop
vertex 140.479050 -138.045578 0.000008
vertex 140.479050 -138.045578 4.299999
vertex 139.973938 -138.180908 4.299999
endloop
endfacet
facet normal 0.422624 -0.906305 0.000000
outer loop
vertex 139.500000 -138.401917 4.299999
vertex 139.500000 -138.401917 0.000008
vertex 139.973938 -138.180908 0.000008
endloop
endfacet
facet normal 0.422624 -0.906305 0.000000
outer loop
vertex 139.973938 -138.180908 0.000008
vertex 139.973938 -138.180908 4.299999
vertex 139.500000 -138.401917 4.299999
endloop
endfacet
facet normal 0.573558 -0.819165 0.000000
outer loop
vertex 139.071640 -138.701859 4.299999
vertex 139.071640 -138.701859 0.000008
vertex 139.500000 -138.401917 0.000008
endloop
endfacet
facet normal 0.573609 -0.819129 0.000000
outer loop
vertex 139.500000 -138.401917 0.000008
vertex 139.500000 -138.401917 4.299999
vertex 139.071640 -138.701859 4.299999
endloop
endfacet
endsolid Exported from Blender-2.78 (sub 0)
