solid Exported from Blender-2.78 (sub 0)
facet normal -0.000000 0.000000 1.000000
outer loop
vertex 17.523666 -145.789230 4.299999
vertex 0.499856 -145.747665 4.299999
vertex 0.499856 -150.000015 4.299999
endloop
endfacet
facet normal 0.000000 0.000000 1.000000
outer loop
vertex 6.335651 -150.000015 4.299999
vertex 19.999857 -150.000015 4.299999
vertex 20.014013 -147.063217 4.299999
endloop
endfacet
facet normal 0.000000 0.000000 1.000000
outer loop
vertex 17.523666 -145.789230 4.299999
vertex 0.499856 -150.000015 4.299999
vertex 6.335651 -150.000015 4.299999
endloop
endfacet
facet normal 0.000000 0.000000 1.000000
outer loop
vertex 20.013136 -145.781174 4.299999
vertex 19.565739 -145.781174 4.299999
vertex 17.523666 -145.789230 4.299999
endloop
endfacet
facet normal 0.000000 0.000000 1.000000
outer loop
vertex 6.335651 -150.000015 4.299999
vertex 20.014013 -147.063217 4.299999
vertex 20.013136 -145.861481 4.299999
endloop
endfacet
facet normal -0.000000 0.000000 1.000000
outer loop
vertex 20.013136 -145.861481 4.299999
vertex 20.013136 -145.781174 4.299999
vertex 17.523666 -145.789230 4.299999
endloop
endfacet
facet normal 0.000000 0.000000 1.000000
outer loop
vertex 17.523666 -145.789230 4.299999
vertex 6.335651 -150.000015 4.299999
vertex 20.013136 -145.861481 4.299999
endloop
endfacet
facet normal 0.999988 -0.004821 0.000000
outer loop
vertex 19.999857 -150.000015 4.299999
vertex 19.999857 -150.000000 0.000010
vertex 20.014013 -147.063217 4.299999
endloop
endfacet
facet normal 0.000000 -1.000000 -0.000006
outer loop
vertex 6.335651 -150.000015 4.299999
vertex 0.499856 -150.000000 0.000010
vertex 19.999857 -150.000000 0.000010
endloop
endfacet
facet normal 0.000000 -1.000000 -0.000008
outer loop
vertex 19.999857 -150.000000 0.000010
vertex 19.999857 -150.000015 4.299999
vertex 6.335651 -150.000015 4.299999
endloop
endfacet
facet normal 0.999993 0.000732 -0.003791
outer loop
vertex 20.014013 -147.063217 4.299999
vertex 19.999857 -150.000000 0.000010
vertex 20.013136 -145.861481 4.299999
endloop
endfacet
facet normal 0.000000 -1.000000 -0.000005
outer loop
vertex 0.499856 -150.000015 4.299999
vertex 0.499856 -150.000000 0.000010
vertex 6.335651 -150.000015 4.299999
endloop
endfacet
facet normal 0.000000 0.000000 -1.000000
outer loop
vertex 19.999857 -150.000000 0.000010
vertex 0.499856 -150.000000 0.000010
vertex 0.499856 -146.500061 0.000010
endloop
endfacet
facet normal 0.000000 0.000000 -1.000000
outer loop
vertex 0.499856 -146.500061 0.000010
vertex 19.999857 -146.500061 0.000010
vertex 19.999857 -150.000000 0.000010
endloop
endfacet
facet normal 0.999995 0.000000 -0.003088
outer loop
vertex 20.013136 -145.861481 4.299999
vertex 19.999857 -150.000000 0.000010
vertex 19.999857 -146.500061 0.000010
endloop
endfacet
facet normal 0.999995 0.000000 -0.003088
outer loop
vertex 19.999857 -146.500061 0.000010
vertex 20.013136 -145.781174 4.299999
vertex 20.013136 -145.861481 4.299999
endloop
endfacet
facet normal -1.000000 0.000000 -0.000000
outer loop
vertex 0.499856 -150.000015 4.299999
vertex 0.499856 -145.747665 4.299999
vertex 0.499856 -145.959732 3.609598
endloop
endfacet
facet normal -1.000000 0.000000 0.000000
outer loop
vertex 0.499856 -145.959732 3.609598
vertex 0.499856 -146.500061 0.000010
vertex 0.499856 -150.000000 0.000010
endloop
endfacet
facet normal -1.000000 0.000000 0.000000
outer loop
vertex 0.499856 -145.959732 3.609598
vertex 0.499856 -150.000000 0.000010
vertex 0.499856 -150.000015 4.299999
endloop
endfacet
facet normal 0.000000 0.986311 -0.164892
outer loop
vertex 20.013136 -145.781174 4.299999
vertex 19.999857 -146.500061 0.000010
vertex 0.499856 -146.500061 0.000010
endloop
endfacet
facet normal 0.000000 0.986286 -0.165045
outer loop
vertex 0.499856 -146.500061 0.000010
vertex 19.565739 -145.781174 4.299999
vertex 20.013136 -145.781174 4.299999
endloop
endfacet
facet normal 0.002334 0.955914 -0.293637
outer loop
vertex 17.523666 -145.789230 4.299999
vertex 0.499856 -145.959732 3.609598
vertex 0.499856 -145.747665 4.299999
endloop
endfacet
facet normal -0.003902 0.988997 -0.147885
outer loop
vertex 0.499856 -145.959732 3.609598
vertex 17.523666 -145.789230 4.299999
vertex 19.565739 -145.781174 4.299999
endloop
endfacet
facet normal -0.003901 0.988972 -0.148047
outer loop
vertex 19.565739 -145.781174 4.299999
vertex 0.499856 -146.500061 0.000010
vertex 0.499856 -145.959732 3.609598
endloop
endfacet
endsolid Exported from Blender-2.78 (sub 0)
