solid Exported from Blender-2.78 (sub 0)
facet normal -0.000000 0.000000 1.000000
outer loop
vertex 150.000015 -3.175157 4.299999
vertex 150.000015 -0.499924 4.299999
vertex 145.747681 -0.499877 4.299999
endloop
endfacet
facet normal -0.000265 0.000000 1.000000
outer loop
vertex 145.789246 -17.523542 4.299999
vertex 145.781189 -19.565731 4.299999
vertex 145.781189 -20.013153 4.299999
endloop
endfacet
facet normal 0.000000 0.000000 1.000000
outer loop
vertex 150.000015 -3.175157 4.299999
vertex 145.747681 -0.499877 4.299999
vertex 145.789246 -17.523542 4.299999
endloop
endfacet
facet normal 0.000000 0.000000 1.000000
outer loop
vertex 147.063217 -20.014038 4.299999
vertex 150.000000 -19.999924 4.299999
vertex 150.000000 -16.989941 4.299999
endloop
endfacet
facet normal 0.000000 0.000000 1.000000
outer loop
vertex 150.000000 -16.989941 4.299999
vertex 150.000015 -3.175157 4.299999
vertex 145.789246 -17.523542 4.299999
endloop
endfacet
facet normal 0.000000 0.000000 1.000000
outer loop
vertex 145.789246 -17.523542 4.299999
vertex 145.781189 -20.013153 4.299999
vertex 145.861496 -20.013153 4.299999
endloop
endfacet
facet normal 0.000000 0.000000 1.000000
outer loop
vertex 145.861496 -20.013153 4.299999
vertex 147.063217 -20.014038 4.299999
vertex 150.000000 -16.989941 4.299999
endloop
endfacet
facet normal 0.000000 0.000000 1.000000
outer loop
vertex 145.789246 -17.523542 4.299999
vertex 145.861496 -20.013153 4.299999
vertex 150.000000 -16.989941 4.299999
endloop
endfacet
facet normal 1.000000 0.000000 0.000001
outer loop
vertex 150.000000 -16.989941 4.299999
vertex 150.000000 -19.999884 0.000015
vertex 150.000015 -0.499885 0.000015
endloop
endfacet
facet normal 1.000000 -0.000002 -0.000001
outer loop
vertex 150.000015 -0.499885 0.000015
vertex 150.000015 -3.175157 4.299999
vertex 150.000000 -16.989941 4.299999
endloop
endfacet
facet normal 1.000000 0.000000 0.000000
outer loop
vertex 150.000000 -19.999924 4.299999
vertex 150.000000 -19.999884 0.000015
vertex 150.000000 -16.989941 4.299999
endloop
endfacet
facet normal 0.000000 0.000000 -1.000000
outer loop
vertex 150.000000 -19.999884 0.000015
vertex 146.500061 -19.999884 0.000015
vertex 146.500061 -0.499877 0.000015
endloop
endfacet
facet normal 0.000000 0.000000 -1.000000
outer loop
vertex 146.500061 -0.499877 0.000015
vertex 150.000015 -0.499885 0.000015
vertex 150.000000 -19.999884 0.000015
endloop
endfacet
facet normal 1.000000 0.000000 0.000000
outer loop
vertex 150.000015 -3.175157 4.299999
vertex 150.000015 -0.499885 0.000015
vertex 150.000015 -0.499924 4.299999
endloop
endfacet
facet normal 0.004806 -0.999988 -0.000008
outer loop
vertex 147.063217 -20.014038 4.299999
vertex 150.000000 -19.999884 0.000015
vertex 150.000000 -19.999924 4.299999
endloop
endfacet
facet normal 0.000000 -0.999995 -0.003086
outer loop
vertex 145.781189 -20.013153 4.299999
vertex 146.500061 -19.999884 0.000015
vertex 150.000000 -19.999884 0.000015
endloop
endfacet
facet normal 0.000000 -0.999995 -0.003069
outer loop
vertex 150.000000 -19.999884 0.000015
vertex 145.861496 -20.013153 4.299999
vertex 145.781189 -20.013153 4.299999
endloop
endfacet
facet normal -0.986312 0.000000 -0.164892
outer loop
vertex 145.781189 -19.565731 4.299999
vertex 146.500061 -0.499877 0.000015
vertex 146.500061 -19.999884 0.000015
endloop
endfacet
facet normal -0.986311 0.000000 -0.164893
outer loop
vertex 146.500061 -19.999884 0.000015
vertex 145.781189 -20.013153 4.299999
vertex 145.781189 -19.565731 4.299999
endloop
endfacet
facet normal 0.000011 1.000000 0.000009
outer loop
vertex 145.747681 -0.499877 4.299999
vertex 150.000015 -0.499924 4.299999
vertex 150.000015 -0.499885 0.000015
endloop
endfacet
facet normal 0.000002 1.000000 0.000000
outer loop
vertex 150.000015 -0.499885 0.000015
vertex 146.500061 -0.499877 0.000015
vertex 145.959747 -0.499877 3.609604
endloop
endfacet
facet normal 0.000003 1.000000 0.000001
outer loop
vertex 150.000015 -0.499885 0.000015
vertex 145.959747 -0.499877 3.609604
vertex 145.747681 -0.499877 4.299999
endloop
endfacet
facet normal -0.000736 -0.999993 -0.003796
outer loop
vertex 145.861496 -20.013153 4.299999
vertex 150.000000 -19.999884 0.000015
vertex 147.063217 -20.014038 4.299999
endloop
endfacet
facet normal -0.988974 0.003900 -0.148038
outer loop
vertex 145.789246 -17.523542 4.299999
vertex 145.959747 -0.499877 3.609604
vertex 146.500061 -0.499877 0.000015
endloop
endfacet
facet normal -0.988974 0.003904 -0.148037
outer loop
vertex 146.500061 -0.499877 0.000015
vertex 145.781189 -19.565731 4.299999
vertex 145.789246 -17.523542 4.299999
endloop
endfacet
facet normal -0.955917 -0.002334 -0.293626
outer loop
vertex 145.747681 -0.499877 4.299999
vertex 145.959747 -0.499877 3.609604
vertex 145.789246 -17.523542 4.299999
endloop
endfacet
endsolid Exported from Blender-2.78 (sub 0)
