solid Exported from Blender-2.78 (sub 0)
facet normal 0.000000 0.000000 1.000000
outer loop
vertex 124.500000 97.500000 47.000000
vertex 157.500000 97.500000 47.000000
vertex 157.500000 101.500000 47.000000
endloop
endfacet
facet normal 0.000000 0.000000 1.000000
outer loop
vertex 157.500000 101.500000 47.000000
vertex 124.500000 101.500000 47.000000
vertex 124.500000 97.500000 47.000000
endloop
endfacet
facet normal 0.000000 0.000000 -1.000000
outer loop
vertex 123.500000 97.500000 34.000000
vertex 123.500000 101.500000 34.000000
vertex 123.534073 101.758820 34.000000
endloop
endfacet
facet normal 0.000000 0.000000 -1.000000
outer loop
vertex 123.534073 101.758820 34.000000
vertex 123.633972 102.000000 34.000000
vertex 123.792892 102.207108 34.000000
endloop
endfacet
facet normal 0.000000 0.000000 -1.000000
outer loop
vertex 123.792892 102.207108 34.000000
vertex 124.000000 102.366028 34.000000
vertex 124.241180 102.465927 34.000000
endloop
endfacet
facet normal 0.000000 0.000000 -1.000000
outer loop
vertex 124.241180 102.465927 34.000000
vertex 124.500000 102.500000 34.000000
vertex 157.500000 102.500000 34.000000
endloop
endfacet
facet normal 0.000000 0.000000 -1.000000
outer loop
vertex 157.500000 102.500000 34.000000
vertex 157.758820 102.465927 34.000000
vertex 158.000000 102.366028 34.000000
endloop
endfacet
facet normal 0.000000 0.000000 -1.000000
outer loop
vertex 158.000000 102.366028 34.000000
vertex 158.207108 102.207108 34.000000
vertex 158.366028 102.000000 34.000000
endloop
endfacet
facet normal 0.000000 0.000000 -1.000000
outer loop
vertex 158.366028 102.000000 34.000000
vertex 158.465927 101.758820 34.000000
vertex 158.500000 101.500000 34.000000
endloop
endfacet
facet normal 0.000000 0.000000 -1.000000
outer loop
vertex 158.500000 101.500000 34.000000
vertex 158.500000 97.500000 34.000000
vertex 123.500000 97.500000 34.000000
endloop
endfacet
facet normal 0.000000 0.000000 -1.000000
outer loop
vertex 123.500000 97.500000 34.000000
vertex 123.534073 101.758820 34.000000
vertex 123.792892 102.207108 34.000000
endloop
endfacet
facet normal 0.000000 0.000000 -1.000000
outer loop
vertex 123.792892 102.207108 34.000000
vertex 124.241180 102.465927 34.000000
vertex 157.500000 102.500000 34.000000
endloop
endfacet
facet normal 0.000000 0.000000 -1.000000
outer loop
vertex 157.500000 102.500000 34.000000
vertex 158.000000 102.366028 34.000000
vertex 158.366028 102.000000 34.000000
endloop
endfacet
facet normal 0.000000 0.000000 -1.000000
outer loop
vertex 158.366028 102.000000 34.000000
vertex 158.500000 101.500000 34.000000
vertex 123.500000 97.500000 34.000000
endloop
endfacet
facet normal 0.000000 0.000000 -1.000000
outer loop
vertex 123.500000 97.500000 34.000000
vertex 123.792892 102.207108 34.000000
vertex 157.500000 102.500000 34.000000
endloop
endfacet
facet normal 0.000000 0.000000 -1.000000
outer loop
vertex 157.500000 102.500000 34.000000
vertex 158.366028 102.000000 34.000000
vertex 123.500000 97.500000 34.000000
endloop
endfacet
facet normal -1.000000 0.000000 0.000000
outer loop
vertex 123.500000 97.500000 34.000000
vertex 123.500000 97.500000 46.000000
vertex 123.500000 101.500000 46.000000
endloop
endfacet
facet normal -1.000000 0.000000 0.000000
outer loop
vertex 123.500000 101.500000 46.000000
vertex 123.500000 101.500000 34.000000
vertex 123.500000 97.500000 34.000000
endloop
endfacet
facet normal 0.000000 1.000000 0.000000
outer loop
vertex 124.500000 102.500000 34.000000
vertex 124.500000 102.500000 46.000000
vertex 138.499985 102.500000 41.000000
endloop
endfacet
facet normal 0.000000 1.000000 0.000026
outer loop
vertex 124.500000 102.500000 34.000000
vertex 138.499985 102.500000 41.000000
vertex 138.537964 102.500000 40.565880
endloop
endfacet
facet normal 0.000000 1.000000 0.000000
outer loop
vertex 143.499985 102.500000 41.000000
vertex 157.500000 102.500000 46.000000
vertex 157.500000 102.500000 34.000000
endloop
endfacet
facet normal 0.000000 1.000000 0.000000
outer loop
vertex 143.462006 102.500000 40.565880
vertex 143.499985 102.500000 41.000000
vertex 157.500000 102.500000 34.000000
endloop
endfacet
facet normal 0.000000 1.000000 0.000000
outer loop
vertex 124.500000 102.500000 34.000000
vertex 138.537964 102.500000 40.565880
vertex 138.650757 102.500000 40.144951
endloop
endfacet
facet normal 0.000000 1.000000 -0.000002
outer loop
vertex 124.500000 102.500000 34.000000
vertex 138.650757 102.500000 40.144951
vertex 138.834915 102.500000 39.750000
endloop
endfacet
facet normal 0.000000 1.000000 0.000000
outer loop
vertex 143.349213 102.500000 40.144951
vertex 143.462006 102.500000 40.565880
vertex 157.500000 102.500000 34.000000
endloop
endfacet
facet normal 0.000000 1.000000 0.000000
outer loop
vertex 143.165054 102.500000 39.750000
vertex 143.349213 102.500000 40.144951
vertex 157.500000 102.500000 34.000000
endloop
endfacet
facet normal 0.000000 1.000000 -0.000021
outer loop
vertex 124.500000 102.500000 34.000000
vertex 138.834915 102.500000 39.750000
vertex 139.084869 102.500000 39.393028
endloop
endfacet
facet normal 0.000000 1.000000 0.000022
outer loop
vertex 124.500000 102.500000 34.000000
vertex 139.084869 102.500000 39.393028
vertex 139.393021 102.500000 39.084888
endloop
endfacet
facet normal 0.000000 1.000000 0.000000
outer loop
vertex 142.915100 102.500000 39.393028
vertex 143.165054 102.500000 39.750000
vertex 157.500000 102.500000 34.000000
endloop
endfacet
facet normal 0.000000 1.000000 0.000000
outer loop
vertex 142.606949 102.500000 39.084885
vertex 142.915100 102.500000 39.393028
vertex 157.500000 102.500000 34.000000
endloop
endfacet
facet normal 0.000000 1.000000 -0.000028
outer loop
vertex 124.500000 102.500000 34.000000
vertex 139.393021 102.500000 39.084888
vertex 139.749985 102.500000 38.834938
endloop
endfacet
facet normal 0.000000 1.000000 0.000003
outer loop
vertex 124.500000 102.500000 34.000000
vertex 139.749985 102.500000 38.834938
vertex 140.144928 102.500000 38.650768
endloop
endfacet
facet normal 0.000000 1.000000 0.000000
outer loop
vertex 142.249985 102.500000 38.834934
vertex 142.606949 102.500000 39.084885
vertex 157.500000 102.500000 34.000000
endloop
endfacet
facet normal 0.000000 1.000000 0.000000
outer loop
vertex 141.855042 102.500000 38.650764
vertex 142.249985 102.500000 38.834934
vertex 157.500000 102.500000 34.000000
endloop
endfacet
facet normal 0.000000 1.000000 0.000000
outer loop
vertex 157.500000 102.500000 34.000000
vertex 124.500000 102.500000 34.000000
vertex 140.144928 102.500000 38.650768
endloop
endfacet
facet normal 0.000000 0.800000 0.600000
outer loop
vertex 157.500000 102.500000 34.000000
vertex 140.144928 102.500000 38.650768
vertex 140.565857 102.500000 38.537979
endloop
endfacet
facet normal 0.000000 1.000000 -0.000066
outer loop
vertex 141.434113 102.500000 38.537979
vertex 141.855042 102.500000 38.650764
vertex 157.500000 102.500000 34.000000
endloop
endfacet
facet normal 0.000000 1.000000 -0.000080
outer loop
vertex 157.500000 102.500000 34.000000
vertex 140.565857 102.500000 38.537979
vertex 140.999985 102.500000 38.500000
endloop
endfacet
facet normal 0.000000 1.000000 0.000095
outer loop
vertex 140.999985 102.500000 38.500000
vertex 141.434113 102.500000 38.537979
vertex 157.500000 102.500000 34.000000
endloop
endfacet
facet normal 1.000000 0.000000 0.000000
outer loop
vertex 158.500000 101.500000 34.000000
vertex 158.500000 101.500000 46.000000
vertex 158.500000 97.500000 46.000000
endloop
endfacet
facet normal 1.000000 0.000000 0.000000
outer loop
vertex 158.500000 97.500000 46.000000
vertex 158.500000 97.500000 34.000000
vertex 158.500000 101.500000 34.000000
endloop
endfacet
facet normal -0.144034 0.129123 0.981112
outer loop
vertex 124.500000 101.500000 47.000000
vertex 124.500000 101.758728 46.965950
vertex 124.233124 101.769073 46.925407
endloop
endfacet
facet normal -0.129113 0.143925 0.981130
outer loop
vertex 124.233124 101.769073 46.925407
vertex 124.241272 101.500000 46.965950
vertex 124.500000 101.500000 47.000000
endloop
endfacet
facet normal -0.142940 0.378738 0.914399
outer loop
vertex 124.500000 101.758728 46.965950
vertex 124.500000 102.000084 46.865978
vertex 124.237488 102.001617 46.824299
endloop
endfacet
facet normal -0.122711 0.397640 0.909299
outer loop
vertex 124.237488 102.001617 46.824299
vertex 124.233124 101.769073 46.925407
vertex 124.500000 101.758728 46.965950
endloop
endfacet
facet normal -0.128382 0.603780 0.786745
outer loop
vertex 124.500000 102.000084 46.865978
vertex 124.500000 102.207108 46.707108
vertex 124.242851 102.183006 46.683647
endloop
endfacet
facet normal -0.120698 0.610525 0.782746
outer loop
vertex 124.242851 102.183006 46.683647
vertex 124.237488 102.001617 46.824299
vertex 124.500000 102.000084 46.865978
endloop
endfacet
facet normal -0.396475 0.125063 0.909487
outer loop
vertex 124.241272 101.500000 46.965950
vertex 124.233124 101.769073 46.925407
vertex 123.998116 101.764023 46.823654
endloop
endfacet
facet normal -0.378697 0.143947 0.914258
outer loop
vertex 123.998116 101.764023 46.823654
vertex 123.999924 101.500000 46.865978
vertex 124.241272 101.500000 46.965950
endloop
endfacet
facet normal -0.381415 0.374625 0.845091
outer loop
vertex 124.233124 101.769073 46.925407
vertex 124.237488 102.001617 46.824299
vertex 124.023666 101.976570 46.738907
endloop
endfacet
facet normal -0.374099 0.381912 0.845099
outer loop
vertex 124.023666 101.976570 46.738907
vertex 123.998116 101.764023 46.823654
vertex 124.233124 101.769073 46.925407
endloop
endfacet
facet normal -0.356346 0.579144 0.733218
outer loop
vertex 124.237488 102.001617 46.824299
vertex 124.242851 102.183006 46.683647
vertex 124.044617 102.129501 46.629570
endloop
endfacet
facet normal -0.360697 0.574642 0.734632
outer loop
vertex 124.044617 102.129501 46.629570
vertex 124.023666 101.976570 46.738907
vertex 124.237488 102.001617 46.824299
endloop
endfacet
facet normal -0.610295 0.121306 0.782831
outer loop
vertex 123.999924 101.500000 46.865978
vertex 123.998116 101.764023 46.823654
vertex 123.816353 101.757149 46.683010
endloop
endfacet
facet normal -0.603741 0.128815 0.786704
outer loop
vertex 123.816353 101.757149 46.683010
vertex 123.792892 101.500000 46.707108
vertex 123.999924 101.500000 46.865978
endloop
endfacet
facet normal -0.574321 0.361898 0.734292
outer loop
vertex 123.998116 101.764023 46.823654
vertex 124.023666 101.976570 46.738907
vertex 123.870430 101.955383 46.629501
endloop
endfacet
facet normal -0.580274 0.355922 0.732531
outer loop
vertex 123.870430 101.955383 46.629501
vertex 123.816353 101.757149 46.683010
vertex 123.998116 101.764023 46.823654
endloop
endfacet
facet normal -0.515966 0.543806 0.661856
outer loop
vertex 124.023666 101.976570 46.738907
vertex 124.044617 102.129501 46.629570
vertex 123.922653 102.077347 46.577351
endloop
endfacet
facet normal -0.543853 0.515907 0.661864
outer loop
vertex 123.922653 102.077347 46.577351
vertex 123.870430 101.955383 46.629501
vertex 124.023666 101.976570 46.738907
endloop
endfacet
facet normal -0.129124 0.981119 0.143990
outer loop
vertex 124.500000 102.500000 46.000000
vertex 124.241272 102.465950 46.000000
vertex 124.230927 102.425407 46.266872
endloop
endfacet
facet normal -0.143920 0.981128 0.129133
outer loop
vertex 124.230927 102.425407 46.266872
vertex 124.500000 102.465950 46.258728
vertex 124.500000 102.500000 46.000000
endloop
endfacet
facet normal -0.378723 0.914397 0.142994
outer loop
vertex 124.241272 102.465950 46.000000
vertex 123.999916 102.365982 46.000000
vertex 123.998383 102.324295 46.262512
endloop
endfacet
facet normal -0.397674 0.909272 0.122798
outer loop
vertex 123.998383 102.324295 46.262512
vertex 124.230927 102.425407 46.266872
vertex 124.241272 102.465950 46.000000
endloop
endfacet
facet normal -0.603778 0.786748 0.128372
outer loop
vertex 123.999916 102.365982 46.000000
vertex 123.792892 102.207108 46.000000
vertex 123.816986 102.183647 46.257149
endloop
endfacet
facet normal -0.610538 0.782722 0.120788
outer loop
vertex 123.816986 102.183647 46.257149
vertex 123.998383 102.324295 46.262512
vertex 123.999916 102.365982 46.000000
endloop
endfacet
facet normal -0.125031 0.909502 0.396451
outer loop
vertex 124.500000 102.465950 46.258728
vertex 124.230927 102.425407 46.266872
vertex 124.235977 102.323654 46.501884
endloop
endfacet
facet normal -0.143985 0.914234 0.378741
outer loop
vertex 124.235977 102.323654 46.501884
vertex 124.500000 102.365982 46.500080
vertex 124.500000 102.465950 46.258728
endloop
endfacet
facet normal -0.374613 0.845120 0.381363
outer loop
vertex 124.230927 102.425407 46.266872
vertex 123.998383 102.324295 46.262512
vertex 124.023430 102.238907 46.476334
endloop
endfacet
facet normal -0.381910 0.845123 0.374048
outer loop
vertex 124.023430 102.238907 46.476334
vertex 124.235977 102.323654 46.501884
vertex 124.230927 102.425407 46.266872
endloop
endfacet
facet normal -0.579077 0.733273 0.356344
outer loop
vertex 123.998383 102.324295 46.262512
vertex 123.816986 102.183647 46.257149
vertex 123.870499 102.129570 46.455383
endloop
endfacet
facet normal -0.574629 0.734658 0.360666
outer loop
vertex 123.870499 102.129570 46.455383
vertex 124.023430 102.238907 46.476334
vertex 123.998383 102.324295 46.262512
endloop
endfacet
facet normal -0.121350 0.782811 0.610312
outer loop
vertex 124.500000 102.365982 46.500080
vertex 124.235977 102.323654 46.501884
vertex 124.242851 102.183006 46.683647
endloop
endfacet
facet normal -0.128785 0.786693 0.603761
outer loop
vertex 124.242851 102.183006 46.683647
vertex 124.500000 102.207108 46.707108
vertex 124.500000 102.365982 46.500080
endloop
endfacet
facet normal -0.361841 0.734309 0.574335
outer loop
vertex 124.235977 102.323654 46.501884
vertex 124.023430 102.238907 46.476334
vertex 124.044617 102.129501 46.629570
endloop
endfacet
facet normal -0.355974 0.732478 0.580309
outer loop
vertex 124.044617 102.129501 46.629570
vertex 124.242851 102.183006 46.683647
vertex 124.235977 102.323654 46.501884
endloop
endfacet
facet normal -0.543875 0.661830 0.515927
outer loop
vertex 124.023430 102.238907 46.476334
vertex 123.870499 102.129570 46.455383
vertex 123.922653 102.077347 46.577351
endloop
endfacet
facet normal -0.515857 0.661916 0.543837
outer loop
vertex 123.922653 102.077347 46.577351
vertex 124.044617 102.129501 46.629570
vertex 124.023430 102.238907 46.476334
endloop
endfacet
facet normal -0.981117 0.143997 0.129131
outer loop
vertex 123.500000 101.500000 46.000000
vertex 123.534050 101.500000 46.258728
vertex 123.574593 101.766869 46.269070
endloop
endfacet
facet normal -0.981129 0.129133 0.143910
outer loop
vertex 123.574593 101.766869 46.269070
vertex 123.534050 101.758728 46.000000
vertex 123.500000 101.500000 46.000000
endloop
endfacet
facet normal -0.914390 0.142989 0.378741
outer loop
vertex 123.534050 101.500000 46.258728
vertex 123.634018 101.500000 46.500080
vertex 123.675705 101.762512 46.501617
endloop
endfacet
facet normal -0.909271 0.122791 0.397680
outer loop
vertex 123.675705 101.762512 46.501617
vertex 123.574593 101.766869 46.269070
vertex 123.534050 101.500000 46.258728
endloop
endfacet
facet normal -0.786770 0.128345 0.603755
outer loop
vertex 123.634018 101.500000 46.500080
vertex 123.792892 101.500000 46.707108
vertex 123.816353 101.757149 46.683010
endloop
endfacet
facet normal -0.782766 0.120742 0.610491
outer loop
vertex 123.816353 101.757149 46.683010
vertex 123.675705 101.762512 46.501617
vertex 123.634018 101.500000 46.500080
endloop
endfacet
facet normal -0.909487 0.396473 0.125067
outer loop
vertex 123.534050 101.758728 46.000000
vertex 123.574593 101.766869 46.269070
vertex 123.676346 102.001884 46.264023
endloop
endfacet
facet normal -0.914282 0.378630 0.143970
outer loop
vertex 123.676346 102.001884 46.264023
vertex 123.634018 102.000084 46.000000
vertex 123.534050 101.758728 46.000000
endloop
endfacet
facet normal -0.845142 0.381358 0.374568
outer loop
vertex 123.574593 101.766869 46.269070
vertex 123.675705 101.762512 46.501617
vertex 123.761093 101.976334 46.476570
endloop
endfacet
facet normal -0.845103 0.374070 0.381932
outer loop
vertex 123.761093 101.976334 46.476570
vertex 123.676346 102.001884 46.264023
vertex 123.574593 101.766869 46.269070
endloop
endfacet
facet normal -0.733230 0.356343 0.579131
outer loop
vertex 123.675705 101.762512 46.501617
vertex 123.816353 101.757149 46.683010
vertex 123.870430 101.955383 46.629501
endloop
endfacet
facet normal -0.734642 0.360680 0.574640
outer loop
vertex 123.870430 101.955383 46.629501
vertex 123.761093 101.976334 46.476570
vertex 123.675705 101.762512 46.501617
endloop
endfacet
facet normal -0.782805 0.610329 0.121307
outer loop
vertex 123.634018 102.000084 46.000000
vertex 123.676346 102.001884 46.264023
vertex 123.816986 102.183647 46.257149
endloop
endfacet
facet normal -0.786701 0.603746 0.128810
outer loop
vertex 123.816986 102.183647 46.257149
vertex 123.792892 102.207108 46.000000
vertex 123.634018 102.000084 46.000000
endloop
endfacet
facet normal -0.734292 0.574321 0.361898
outer loop
vertex 123.676346 102.001884 46.264023
vertex 123.761093 101.976334 46.476570
vertex 123.870499 102.129570 46.455383
endloop
endfacet
facet normal -0.732510 0.580259 0.355990
outer loop
vertex 123.870499 102.129570 46.455383
vertex 123.816986 102.183647 46.257149
vertex 123.676346 102.001884 46.264023
endloop
endfacet
facet normal -0.661842 0.515965 0.543824
outer loop
vertex 123.761093 101.976334 46.476570
vertex 123.870430 101.955383 46.629501
vertex 123.922653 102.077347 46.577351
endloop
endfacet
facet normal -0.661864 0.543853 0.515907
outer loop
vertex 123.922653 102.077347 46.577351
vertex 123.870499 102.129570 46.455383
vertex 123.761093 101.976334 46.476570
endloop
endfacet
facet normal 0.129115 0.144048 0.981111
outer loop
vertex 157.500000 101.500000 47.000000
vertex 157.758728 101.500000 46.965950
vertex 157.769073 101.766869 46.925407
endloop
endfacet
facet normal 0.143917 0.129119 0.981130
outer loop
vertex 157.769073 101.766869 46.925407
vertex 157.500000 101.758728 46.965950
vertex 157.500000 101.500000 47.000000
endloop
endfacet
facet normal 0.378771 0.142934 0.914387
outer loop
vertex 157.758728 101.500000 46.965950
vertex 158.000076 101.500000 46.865978
vertex 158.001617 101.762512 46.824299
endloop
endfacet
facet normal 0.397633 0.122733 0.909299
outer loop
vertex 158.001617 101.762512 46.824299
vertex 157.769073 101.766869 46.925407
vertex 157.758728 101.500000 46.965950
endloop
endfacet
facet normal 0.603758 0.128339 0.786769
outer loop
vertex 158.000076 101.500000 46.865978
vertex 158.207108 101.500000 46.707108
vertex 158.183014 101.757149 46.683647
endloop
endfacet
facet normal 0.610492 0.120697 0.782772
outer loop
vertex 158.183014 101.757149 46.683647
vertex 158.001617 101.762512 46.824299
vertex 158.000076 101.500000 46.865978
endloop
endfacet
facet normal 0.125067 0.396420 0.909510
outer loop
vertex 157.500000 101.758728 46.965950
vertex 157.769073 101.766869 46.925407
vertex 157.764023 102.001884 46.823654
endloop
endfacet
facet normal 0.143973 0.378719 0.914245
outer loop
vertex 157.764023 102.001884 46.823654
vertex 157.500000 102.000084 46.865978
vertex 157.500000 101.758728 46.965950
endloop
endfacet
facet normal 0.374627 0.381418 0.845088
outer loop
vertex 157.769073 101.766869 46.925407
vertex 158.001617 101.762512 46.824299
vertex 157.976562 101.976334 46.738907
endloop
endfacet
facet normal 0.381930 0.374133 0.845076
outer loop
vertex 157.976562 101.976334 46.738907
vertex 157.764023 102.001884 46.823654
vertex 157.769073 101.766869 46.925407
endloop
endfacet
facet normal 0.579102 0.356455 0.733199
outer loop
vertex 158.001617 101.762512 46.824299
vertex 158.183014 101.757149 46.683647
vertex 158.129501 101.955383 46.629570
endloop
endfacet
facet normal 0.574592 0.360634 0.734702
outer loop
vertex 158.129501 101.955383 46.629570
vertex 157.976562 101.976334 46.738907
vertex 158.001617 101.762512 46.824299
endloop
endfacet
facet normal 0.121341 0.610283 0.782835
outer loop
vertex 157.500000 102.000084 46.865978
vertex 157.764023 102.001884 46.823654
vertex 157.757141 102.183647 46.683010
endloop
endfacet
facet normal 0.128791 0.603788 0.786672
outer loop
vertex 157.757141 102.183647 46.683010
vertex 157.500000 102.207108 46.707108
vertex 157.500000 102.000084 46.865978
endloop
endfacet
facet normal 0.361859 0.574234 0.734379
outer loop
vertex 157.764023 102.001884 46.823654
vertex 157.976562 101.976334 46.738907
vertex 157.955383 102.129570 46.629501
endloop
endfacet
facet normal 0.356002 0.580291 0.732479
outer loop
vertex 157.955383 102.129570 46.629501
vertex 157.757141 102.183647 46.683010
vertex 157.764023 102.001884 46.823654
endloop
endfacet
facet normal 0.543812 0.516064 0.661775
outer loop
vertex 157.976562 101.976334 46.738907
vertex 158.129501 101.955383 46.629570
vertex 158.077347 102.077347 46.577351
endloop
endfacet
facet normal 0.515900 0.543793 0.661918
outer loop
vertex 158.077347 102.077347 46.577351
vertex 157.955383 102.129570 46.629501
vertex 157.976562 101.976334 46.738907
endloop
endfacet
facet normal 0.981108 0.129219 0.143976
outer loop
vertex 158.500000 101.500000 46.000000
vertex 158.465942 101.758728 46.000000
vertex 158.425415 101.769073 46.266872
endloop
endfacet
facet normal 0.981133 0.143868 0.129150
outer loop
vertex 158.425415 101.769073 46.266872
vertex 158.465942 101.500000 46.258728
vertex 158.500000 101.500000 46.000000
endloop
endfacet
facet normal 0.914414 0.378671 0.143020
outer loop
vertex 158.465942 101.758728 46.000000
vertex 158.365982 102.000084 46.000000
vertex 158.324295 102.001617 46.262512
endloop
endfacet
facet normal 0.909257 0.397753 0.122657
outer loop
vertex 158.324295 102.001617 46.262512
vertex 158.425415 101.769073 46.266872
vertex 158.465942 101.758728 46.000000
endloop
endfacet
facet normal 0.786755 0.603778 0.128331
outer loop
vertex 158.365982 102.000084 46.000000
vertex 158.207108 102.207108 46.000000
vertex 158.183655 102.183006 46.257149
endloop
endfacet
facet normal 0.782735 0.610537 0.120706
outer loop
vertex 158.183655 102.183006 46.257149
vertex 158.324295 102.001617 46.262512
vertex 158.365982 102.000084 46.000000
endloop
endfacet
facet normal 0.909472 0.125011 0.396526
outer loop
vertex 158.465942 101.500000 46.258728
vertex 158.425415 101.769073 46.266872
vertex 158.323654 101.764023 46.501884
endloop
endfacet
facet normal 0.914286 0.143838 0.378670
outer loop
vertex 158.323654 101.764023 46.501884
vertex 158.365982 101.500000 46.500080
vertex 158.465942 101.500000 46.258728
endloop
endfacet
facet normal 0.845138 0.374556 0.381379
outer loop
vertex 158.425415 101.769073 46.266872
vertex 158.324295 102.001617 46.262512
vertex 158.238907 101.976570 46.476334
endloop
endfacet
facet normal 0.845055 0.382002 0.374108
outer loop
vertex 158.238907 101.976570 46.476334
vertex 158.323654 101.764023 46.501884
vertex 158.425415 101.769073 46.266872
endloop
endfacet
facet normal 0.733264 0.579036 0.356428
outer loop
vertex 158.324295 102.001617 46.262512
vertex 158.183655 102.183006 46.257149
vertex 158.129562 102.129501 46.455383
endloop
endfacet
facet normal 0.734624 0.574669 0.360671
outer loop
vertex 158.129562 102.129501 46.455383
vertex 158.238907 101.976570 46.476334
vertex 158.324295 102.001617 46.262512
endloop
endfacet
facet normal 0.782815 0.121430 0.610292
outer loop
vertex 158.365982 101.500000 46.500080
vertex 158.323654 101.764023 46.501884
vertex 158.183014 101.757149 46.683647
endloop
endfacet
facet normal 0.786707 0.128755 0.603750
outer loop
vertex 158.183014 101.757149 46.683647
vertex 158.207108 101.500000 46.707108
vertex 158.365982 101.500000 46.500080
endloop
endfacet
facet normal 0.734355 0.361834 0.574281
outer loop
vertex 158.323654 101.764023 46.501884
vertex 158.238907 101.976570 46.476334
vertex 158.129501 101.955383 46.629570
endloop
endfacet
facet normal 0.732499 0.355997 0.580268
outer loop
vertex 158.129501 101.955383 46.629570
vertex 158.183014 101.757149 46.683647
vertex 158.323654 101.764023 46.501884
endloop
endfacet
facet normal 0.661907 0.543819 0.515887
outer loop
vertex 158.238907 101.976570 46.476334
vertex 158.129562 102.129501 46.455383
vertex 158.077347 102.077347 46.577351
endloop
endfacet
facet normal 0.661803 0.515881 0.543951
outer loop
vertex 158.077347 102.077347 46.577351
vertex 158.129501 101.955383 46.629570
vertex 158.238907 101.976570 46.476334
endloop
endfacet
facet normal 0.144034 0.981108 0.129159
outer loop
vertex 157.500000 102.500000 46.000000
vertex 157.500000 102.465950 46.258728
vertex 157.766876 102.425407 46.269070
endloop
endfacet
facet normal 0.129137 0.981133 0.143879
outer loop
vertex 157.766876 102.425407 46.269070
vertex 157.758728 102.465950 46.000000
vertex 157.500000 102.500000 46.000000
endloop
endfacet
facet normal 0.142987 0.914366 0.378801
outer loop
vertex 157.500000 102.465950 46.258728
vertex 157.500000 102.365982 46.500080
vertex 157.762512 102.324295 46.501617
endloop
endfacet
facet normal 0.122710 0.909328 0.397574
outer loop
vertex 157.762512 102.324295 46.501617
vertex 157.766876 102.425407 46.269070
vertex 157.500000 102.465950 46.258728
endloop
endfacet
facet normal 0.128334 0.786769 0.603759
outer loop
vertex 157.500000 102.365982 46.500080
vertex 157.500000 102.207108 46.707108
vertex 157.757141 102.183647 46.683010
endloop
endfacet
facet normal 0.120736 0.782738 0.610527
outer loop
vertex 157.757141 102.183647 46.683010
vertex 157.762512 102.324295 46.501617
vertex 157.500000 102.365982 46.500080
endloop
endfacet
facet normal 0.396463 0.909492 0.125063
outer loop
vertex 157.758728 102.465950 46.000000
vertex 157.766876 102.425407 46.269070
vertex 158.001877 102.323654 46.264023
endloop
endfacet
facet normal 0.378694 0.914251 0.144001
outer loop
vertex 158.001877 102.323654 46.264023
vertex 158.000076 102.365982 46.000000
vertex 157.758728 102.465950 46.000000
endloop
endfacet
facet normal 0.381424 0.845090 0.374617
outer loop
vertex 157.766876 102.425407 46.269070
vertex 157.762512 102.324295 46.501617
vertex 157.976334 102.238907 46.476570
endloop
endfacet
facet normal 0.374099 0.845099 0.381913
outer loop
vertex 157.976334 102.238907 46.476570
vertex 158.001877 102.323654 46.264023
vertex 157.766876 102.425407 46.269070
endloop
endfacet
facet normal 0.356345 0.733273 0.579075
outer loop
vertex 157.762512 102.324295 46.501617
vertex 157.757141 102.183647 46.683010
vertex 157.955383 102.129570 46.629501
endloop
endfacet
facet normal 0.360685 0.734599 0.574692
outer loop
vertex 157.955383 102.129570 46.629501
vertex 157.976334 102.238907 46.476570
vertex 157.762512 102.324295 46.501617
endloop
endfacet
facet normal 0.610344 0.782792 0.121316
outer loop
vertex 158.000076 102.365982 46.000000
vertex 158.001877 102.323654 46.264023
vertex 158.183655 102.183006 46.257149
endloop
endfacet
facet normal 0.603719 0.786713 0.128864
outer loop
vertex 158.183655 102.183006 46.257149
vertex 158.207108 102.207108 46.000000
vertex 158.000076 102.365982 46.000000
endloop
endfacet
facet normal 0.574313 0.734334 0.361826
outer loop
vertex 158.001877 102.323654 46.264023
vertex 157.976334 102.238907 46.476570
vertex 158.129562 102.129501 46.455383
endloop
endfacet
facet normal 0.580246 0.732497 0.356038
outer loop
vertex 158.129562 102.129501 46.455383
vertex 158.183655 102.183006 46.257149
vertex 158.001877 102.323654 46.264023
endloop
endfacet
facet normal 0.515932 0.661837 0.543862
outer loop
vertex 157.976334 102.238907 46.476570
vertex 157.955383 102.129570 46.629501
vertex 158.077347 102.077347 46.577351
endloop
endfacet
facet normal 0.543887 0.661936 0.515779
outer loop
vertex 158.077347 102.077347 46.577351
vertex 158.129562 102.129501 46.455383
vertex 157.976334 102.238907 46.476570
endloop
endfacet
facet normal -0.130480 0.000000 0.991451
outer loop
vertex 124.500000 97.500000 47.000000
vertex 124.500000 101.500000 47.000000
vertex 124.241272 101.500000 46.965950
endloop
endfacet
facet normal -0.130521 -0.000003 0.991446
outer loop
vertex 124.241272 101.500000 46.965950
vertex 124.241180 97.500000 46.965927
vertex 124.500000 97.500000 47.000000
endloop
endfacet
facet normal -0.382678 0.000004 0.923882
outer loop
vertex 124.241180 97.500000 46.965927
vertex 124.241272 101.500000 46.965950
vertex 123.999924 101.500000 46.865978
endloop
endfacet
facet normal -0.382705 0.000002 0.923871
outer loop
vertex 123.999924 101.500000 46.865978
vertex 124.000000 97.500000 46.866024
vertex 124.241180 97.500000 46.965927
endloop
endfacet
facet normal -0.608776 -0.000004 0.793342
outer loop
vertex 124.000000 97.500000 46.866024
vertex 123.999924 101.500000 46.865978
vertex 123.792892 101.500000 46.707108
endloop
endfacet
facet normal -0.608764 0.000000 0.793351
outer loop
vertex 123.792892 101.500000 46.707108
vertex 123.792892 97.500000 46.707108
vertex 124.000000 97.500000 46.866024
endloop
endfacet
facet normal -0.793328 0.000000 0.608795
outer loop
vertex 123.792892 97.500000 46.707108
vertex 123.792892 101.500000 46.707108
vertex 123.634018 101.500000 46.500080
endloop
endfacet
facet normal -0.793351 0.000000 0.608764
outer loop
vertex 123.634018 101.500000 46.500080
vertex 123.633972 97.500000 46.500000
vertex 123.792892 97.500000 46.707108
endloop
endfacet
facet normal -0.923882 -0.000004 0.382678
outer loop
vertex 123.633972 97.500000 46.500000
vertex 123.634018 101.500000 46.500080
vertex 123.534050 101.500000 46.258728
endloop
endfacet
facet normal -0.923881 0.000007 0.382680
outer loop
vertex 123.534050 101.500000 46.258728
vertex 123.534073 97.500000 46.258820
vertex 123.633972 97.500000 46.500000
endloop
endfacet
facet normal -0.991451 0.000000 0.130480
outer loop
vertex 123.534073 97.500000 46.258820
vertex 123.534050 101.500000 46.258728
vertex 123.500000 101.500000 46.000000
endloop
endfacet
facet normal -0.991446 0.000000 0.130521
outer loop
vertex 123.500000 101.500000 46.000000
vertex 123.500000 97.500000 46.000000
vertex 123.534073 97.500000 46.258820
endloop
endfacet
facet normal -0.130516 0.991446 0.000000
outer loop
vertex 124.500000 102.500000 46.000000
vertex 124.500000 102.500000 34.000000
vertex 124.241180 102.465927 34.000000
endloop
endfacet
facet normal -0.130490 0.991450 0.000000
outer loop
vertex 124.241180 102.465927 34.000000
vertex 124.241272 102.465950 46.000000
vertex 124.500000 102.500000 46.000000
endloop
endfacet
facet normal -0.382667 0.923886 0.000002
outer loop
vertex 124.241272 102.465950 46.000000
vertex 124.241180 102.465927 34.000000
vertex 124.000000 102.366028 34.000000
endloop
endfacet
facet normal -0.382671 0.923885 -0.000001
outer loop
vertex 124.000000 102.366028 34.000000
vertex 123.999916 102.365982 46.000000
vertex 124.241272 102.465950 46.000000
endloop
endfacet
facet normal -0.608755 0.793359 -0.000001
outer loop
vertex 123.999916 102.365982 46.000000
vertex 124.000000 102.366028 34.000000
vertex 123.792892 102.207108 34.000000
endloop
endfacet
facet normal -0.608795 0.793328 0.000000
outer loop
vertex 123.792892 102.207108 34.000000
vertex 123.792892 102.207108 46.000000
vertex 123.999916 102.365982 46.000000
endloop
endfacet
facet normal -0.793361 0.608752 0.000000
outer loop
vertex 123.792892 102.207108 46.000000
vertex 123.792892 102.207108 34.000000
vertex 123.633972 102.000000 34.000000
endloop
endfacet
facet normal -0.793317 0.608809 -0.000001
outer loop
vertex 123.633972 102.000000 34.000000
vertex 123.634018 102.000084 46.000000
vertex 123.792892 102.207108 46.000000
endloop
endfacet
facet normal -0.923888 0.382664 0.000001
outer loop
vertex 123.634018 102.000084 46.000000
vertex 123.633972 102.000000 34.000000
vertex 123.534073 101.758820 34.000000
endloop
endfacet
facet normal -0.923876 0.382692 0.000001
outer loop
vertex 123.534073 101.758820 34.000000
vertex 123.534050 101.758728 46.000000
vertex 123.634018 102.000084 46.000000
endloop
endfacet
facet normal -0.991453 0.130464 -0.000001
outer loop
vertex 123.534050 101.758728 46.000000
vertex 123.534073 101.758820 34.000000
vertex 123.500000 101.500000 34.000000
endloop
endfacet
facet normal -0.991447 0.130509 0.000000
outer loop
vertex 123.500000 101.500000 34.000000
vertex 123.500000 101.500000 46.000000
vertex 123.534050 101.758728 46.000000
endloop
endfacet
facet normal 0.000000 0.130479 0.991451
outer loop
vertex 124.500000 101.500000 47.000000
vertex 157.500000 101.500000 47.000000
vertex 157.500000 101.758728 46.965950
endloop
endfacet
facet normal 0.000000 0.130479 0.991451
outer loop
vertex 157.500000 101.758728 46.965950
vertex 124.500000 101.758728 46.965950
vertex 124.500000 101.500000 47.000000
endloop
endfacet
facet normal 0.000000 0.382676 0.923883
outer loop
vertex 124.500000 101.758728 46.965950
vertex 157.500000 101.758728 46.965950
vertex 157.500000 102.000084 46.865978
endloop
endfacet
facet normal 0.000000 0.382696 0.923874
outer loop
vertex 157.500000 102.000084 46.865978
vertex 124.500000 102.000084 46.865978
vertex 124.500000 101.758728 46.965950
endloop
endfacet
facet normal 0.000000 0.608813 0.793314
outer loop
vertex 124.500000 102.000084 46.865978
vertex 157.500000 102.000084 46.865978
vertex 157.500000 102.207108 46.707108
endloop
endfacet
facet normal 0.000000 0.608786 0.793335
outer loop
vertex 157.500000 102.207108 46.707108
vertex 124.500000 102.207108 46.707108
vertex 124.500000 102.000084 46.865978
endloop
endfacet
facet normal 0.000000 0.793305 0.608824
outer loop
vertex 124.500000 102.207108 46.707108
vertex 157.500000 102.207108 46.707108
vertex 157.500000 102.365982 46.500080
endloop
endfacet
facet normal 0.000000 0.793333 0.608788
outer loop
vertex 157.500000 102.365982 46.500080
vertex 124.500000 102.365982 46.500080
vertex 124.500000 102.207108 46.707108
endloop
endfacet
facet normal 0.000000 0.923869 0.382709
outer loop
vertex 124.500000 102.365982 46.500080
vertex 157.500000 102.365982 46.500080
vertex 157.500000 102.465950 46.258728
endloop
endfacet
facet normal 0.000000 0.923889 0.382661
outer loop
vertex 157.500000 102.465950 46.258728
vertex 124.500000 102.465950 46.258728
vertex 124.500000 102.365982 46.500080
endloop
endfacet
facet normal 0.000000 0.991460 0.130411
outer loop
vertex 124.500000 102.465950 46.258728
vertex 157.500000 102.465950 46.258728
vertex 157.500000 102.500000 46.000000
endloop
endfacet
facet normal 0.000000 0.991445 0.130523
outer loop
vertex 157.500000 102.500000 46.000000
vertex 124.500000 102.500000 46.000000
vertex 124.500000 102.465950 46.258728
endloop
endfacet
facet normal 0.991453 0.130464 0.000000
outer loop
vertex 158.500000 101.500000 46.000000
vertex 158.500000 101.500000 34.000000
vertex 158.465927 101.758820 34.000000
endloop
endfacet
facet normal 0.991447 0.130509 -0.000000
outer loop
vertex 158.465927 101.758820 34.000000
vertex 158.465942 101.758728 46.000000
vertex 158.500000 101.500000 46.000000
endloop
endfacet
facet normal 0.923860 0.382730 0.000002
outer loop
vertex 158.465942 101.758728 46.000000
vertex 158.465927 101.758820 34.000000
vertex 158.366028 102.000000 34.000000
endloop
endfacet
facet normal 0.923876 0.382692 0.000001
outer loop
vertex 158.366028 102.000000 34.000000
vertex 158.365982 102.000084 46.000000
vertex 158.465942 101.758728 46.000000
endloop
endfacet
facet normal 0.793361 0.608752 -0.000001
outer loop
vertex 158.365982 102.000084 46.000000
vertex 158.366028 102.000000 34.000000
vertex 158.207108 102.207108 34.000000
endloop
endfacet
facet normal 0.793355 0.608760 0.000000
outer loop
vertex 158.207108 102.207108 34.000000
vertex 158.207108 102.207108 46.000000
vertex 158.365982 102.000084 46.000000
endloop
endfacet
facet normal 0.608717 0.793387 0.000000
outer loop
vertex 158.207108 102.207108 46.000000
vertex 158.207108 102.207108 34.000000
vertex 158.000000 102.366028 34.000000
endloop
endfacet
facet normal 0.608795 0.793328 -0.000001
outer loop
vertex 158.000000 102.366028 34.000000
vertex 158.000076 102.365982 46.000000
vertex 158.207108 102.207108 46.000000
endloop
endfacet
facet normal 0.382722 0.923864 0.000002
outer loop
vertex 158.000076 102.365982 46.000000
vertex 158.000000 102.366028 34.000000
vertex 157.758820 102.465927 34.000000
endloop
endfacet
facet normal 0.382643 0.923896 0.000000
outer loop
vertex 157.758820 102.465927 34.000000
vertex 157.758728 102.465950 46.000000
vertex 158.000076 102.365982 46.000000
endloop
endfacet
facet normal 0.130526 0.991445 0.000000
outer loop
vertex 157.758728 102.465950 46.000000
vertex 157.758820 102.465927 34.000000
vertex 157.500000 102.500000 34.000000
endloop
endfacet
facet normal 0.130480 0.991451 0.000000
outer loop
vertex 157.500000 102.500000 34.000000
vertex 157.500000 102.500000 46.000000
vertex 157.758728 102.465950 46.000000
endloop
endfacet
facet normal 0.130521 0.000000 0.991446
outer loop
vertex 157.500000 101.500000 47.000000
vertex 157.500000 97.500000 47.000000
vertex 157.758820 97.500000 46.965927
endloop
endfacet
facet normal 0.130480 -0.000003 0.991451
outer loop
vertex 157.758820 97.500000 46.965927
vertex 157.758728 101.500000 46.965950
vertex 157.500000 101.500000 47.000000
endloop
endfacet
facet normal 0.382680 0.000004 0.923881
outer loop
vertex 157.758728 101.500000 46.965950
vertex 157.758820 97.500000 46.965927
vertex 158.000000 97.500000 46.866028
endloop
endfacet
facet normal 0.382678 0.000005 0.923882
outer loop
vertex 158.000000 97.500000 46.866028
vertex 158.000076 101.500000 46.865978
vertex 157.758728 101.500000 46.965950
endloop
endfacet
facet normal 0.608764 -0.000007 0.793351
outer loop
vertex 158.000076 101.500000 46.865978
vertex 158.000000 97.500000 46.866028
vertex 158.207108 97.500000 46.707108
endloop
endfacet
facet normal 0.608795 0.000000 0.793328
outer loop
vertex 158.207108 97.500000 46.707108
vertex 158.207108 101.500000 46.707108
vertex 158.000076 101.500000 46.865978
endloop
endfacet
facet normal 0.793351 0.000000 0.608764
outer loop
vertex 158.207108 101.500000 46.707108
vertex 158.207108 97.500000 46.707108
vertex 158.366028 97.500000 46.500000
endloop
endfacet
facet normal 0.793328 -0.000007 0.608795
outer loop
vertex 158.366028 97.500000 46.500000
vertex 158.365982 101.500000 46.500080
vertex 158.207108 101.500000 46.707108
endloop
endfacet
facet normal 0.923881 0.000007 0.382680
outer loop
vertex 158.365982 101.500000 46.500080
vertex 158.366028 97.500000 46.500000
vertex 158.465927 97.500000 46.258820
endloop
endfacet
facet normal 0.923892 0.000007 0.382653
outer loop
vertex 158.465927 97.500000 46.258820
vertex 158.465942 101.500000 46.258728
vertex 158.365982 101.500000 46.500080
endloop
endfacet
facet normal 0.991446 0.000007 0.130521
outer loop
vertex 158.465942 101.500000 46.258728
vertex 158.465927 97.500000 46.258820
vertex 158.500000 97.500000 46.000000
endloop
endfacet
facet normal 0.991447 0.000000 0.130509
outer loop
vertex 158.500000 97.500000 46.000000
vertex 158.500000 101.500000 46.000000
vertex 158.465942 101.500000 46.258728
endloop
endfacet
facet normal 0.000000 -1.000000 0.000000
outer loop
vertex 158.500000 97.500000 34.000000
vertex 158.500000 97.500000 46.000000
vertex 143.499985 97.500000 41.000000
endloop
endfacet
facet normal 0.000000 -1.000000 -0.000011
outer loop
vertex 158.500000 97.500000 34.000000
vertex 143.499985 97.500000 41.000000
vertex 143.462006 97.500000 40.565880
endloop
endfacet
facet normal 0.000000 -1.000000 0.000000
outer loop
vertex 138.499985 97.500000 41.000000
vertex 123.500000 97.500000 46.000000
vertex 123.500000 97.500000 34.000000
endloop
endfacet
facet normal 0.000000 -1.000000 0.000036
outer loop
vertex 138.537964 97.500000 40.565880
vertex 138.499985 97.500000 41.000000
vertex 123.500000 97.500000 34.000000
endloop
endfacet
facet normal 0.000000 -1.000000 0.000000
outer loop
vertex 158.500000 97.500000 34.000000
vertex 143.462006 97.500000 40.565880
vertex 143.349213 97.500000 40.144951
endloop
endfacet
facet normal 0.000000 -1.000000 -0.000002
outer loop
vertex 158.500000 97.500000 34.000000
vertex 143.349213 97.500000 40.144951
vertex 143.165054 97.500000 39.750000
endloop
endfacet
facet normal 0.000000 -1.000000 0.000000
outer loop
vertex 138.650757 97.500000 40.144951
vertex 138.537964 97.500000 40.565880
vertex 123.500000 97.500000 34.000000
endloop
endfacet
facet normal 0.000000 -1.000000 0.000000
outer loop
vertex 138.834915 97.500000 39.750000
vertex 138.650757 97.500000 40.144951
vertex 123.500000 97.500000 34.000000
endloop
endfacet
facet normal 0.000000 -1.000000 0.000015
outer loop
vertex 158.500000 97.500000 34.000000
vertex 143.165054 97.500000 39.750000
vertex 142.915100 97.500000 39.393028
endloop
endfacet
facet normal 0.000000 -1.000000 -0.000017
outer loop
vertex 158.500000 97.500000 34.000000
vertex 142.915100 97.500000 39.393028
vertex 142.606949 97.500000 39.084888
endloop
endfacet
facet normal 0.000000 -1.000000 -0.000035
outer loop
vertex 139.084869 97.500000 39.393032
vertex 138.834915 97.500000 39.750000
vertex 123.500000 97.500000 34.000000
endloop
endfacet
facet normal 0.000000 -1.000000 0.000038
outer loop
vertex 139.393021 97.500000 39.084888
vertex 139.084869 97.500000 39.393032
vertex 123.500000 97.500000 34.000000
endloop
endfacet
facet normal 0.000000 -1.000000 0.000016
outer loop
vertex 158.500000 97.500000 34.000000
vertex 142.606949 97.500000 39.084888
vertex 142.249985 97.500000 38.834934
endloop
endfacet
facet normal 0.000000 -1.000000 0.000003
outer loop
vertex 158.500000 97.500000 34.000000
vertex 142.249985 97.500000 38.834934
vertex 141.855042 97.500000 38.650768
endloop
endfacet
facet normal 0.000000 -1.000000 -0.000042
outer loop
vertex 139.749985 97.500000 38.834938
vertex 139.393021 97.500000 39.084888
vertex 123.500000 97.500000 34.000000
endloop
endfacet
facet normal 0.000000 -1.000000 0.000000
outer loop
vertex 140.144928 97.500000 38.650768
vertex 139.749985 97.500000 38.834938
vertex 123.500000 97.500000 34.000000
endloop
endfacet
facet normal 0.000000 -1.000000 -0.000040
outer loop
vertex 158.500000 97.500000 34.000000
vertex 141.855042 97.500000 38.650768
vertex 141.434113 97.500000 38.537979
endloop
endfacet
facet normal 0.000000 -1.000000 0.000052
outer loop
vertex 158.500000 97.500000 34.000000
vertex 141.434113 97.500000 38.537979
vertex 140.999985 97.500000 38.500000
endloop
endfacet
facet normal 0.000000 -1.000000 0.000000
outer loop
vertex 140.565857 97.500000 38.537979
vertex 140.144928 97.500000 38.650768
vertex 123.500000 97.500000 34.000000
endloop
endfacet
facet normal 0.000000 -1.000000 -0.000083
outer loop
vertex 158.500000 97.500000 34.000000
vertex 140.999985 97.500000 38.500000
vertex 140.565857 97.500000 38.537979
endloop
endfacet
facet normal 0.000000 -1.000000 0.000000
outer loop
vertex 123.500000 97.500000 34.000000
vertex 158.500000 97.500000 34.000000
vertex 140.565857 97.500000 38.537979
endloop
endfacet
facet normal -0.996195 0.000000 0.087153
outer loop
vertex 143.499985 97.500000 41.000000
vertex 143.499985 102.500000 41.000000
vertex 143.462006 102.500000 40.565880
endloop
endfacet
facet normal -0.996195 0.000000 0.087153
outer loop
vertex 143.462006 102.500000 40.565880
vertex 143.462006 97.500000 40.565880
vertex 143.499985 97.500000 41.000000
endloop
endfacet
facet normal 0.000000 -1.000000 0.000000
outer loop
vertex 123.534073 97.500000 46.258820
vertex 123.500000 97.500000 46.000000
vertex 138.499985 97.500000 41.000000
endloop
endfacet
facet normal 0.000000 -1.000000 0.000011
outer loop
vertex 123.534073 97.500000 46.258820
vertex 138.499985 97.500000 41.000000
vertex 138.537964 97.500000 41.434120
endloop
endfacet
facet normal 0.000000 -1.000000 0.000000
outer loop
vertex 123.792892 97.500000 46.707108
vertex 123.633972 97.500000 46.500000
vertex 123.534073 97.500000 46.258820
endloop
endfacet
facet normal 0.000000 -1.000000 0.000000
outer loop
vertex 124.241180 97.500000 46.965927
vertex 124.000000 97.500000 46.866024
vertex 123.792892 97.500000 46.707108
endloop
endfacet
facet normal 0.000000 -1.000000 0.000081
outer loop
vertex 157.500000 97.500000 47.000000
vertex 124.500000 97.500000 47.000000
vertex 124.241180 97.500000 46.965927
endloop
endfacet
facet normal 0.000000 -1.000000 0.000000
outer loop
vertex 158.000000 97.500000 46.866028
vertex 157.758820 97.500000 46.965927
vertex 157.500000 97.500000 47.000000
endloop
endfacet
facet normal 0.000000 -1.000000 0.000000
outer loop
vertex 158.366028 97.500000 46.500000
vertex 158.207108 97.500000 46.707108
vertex 158.000000 97.500000 46.866028
endloop
endfacet
facet normal 0.000000 -1.000000 0.000000
outer loop
vertex 158.500000 97.500000 46.000000
vertex 158.465927 97.500000 46.258820
vertex 158.366028 97.500000 46.500000
endloop
endfacet
facet normal 0.000000 -1.000000 0.000000
outer loop
vertex 143.462006 97.500000 41.434120
vertex 143.499985 97.500000 41.000000
vertex 158.500000 97.500000 46.000000
endloop
endfacet
facet normal 0.000000 -1.000000 0.000000
outer loop
vertex 143.349213 97.500000 41.855049
vertex 143.462006 97.500000 41.434120
vertex 158.500000 97.500000 46.000000
endloop
endfacet
facet normal 0.000000 -1.000000 0.000000
outer loop
vertex 158.500000 97.500000 46.000000
vertex 158.366028 97.500000 46.500000
vertex 158.000000 97.500000 46.866028
endloop
endfacet
facet normal 0.000000 -1.000000 0.000000
outer loop
vertex 158.000000 97.500000 46.866028
vertex 157.500000 97.500000 47.000000
vertex 124.241180 97.500000 46.965927
endloop
endfacet
facet normal 0.000000 -1.000000 0.000000
outer loop
vertex 124.241180 97.500000 46.965927
vertex 123.792892 97.500000 46.707108
vertex 123.534073 97.500000 46.258820
endloop
endfacet
facet normal 0.000000 -1.000000 0.000000
outer loop
vertex 123.534073 97.500000 46.258820
vertex 138.537964 97.500000 41.434120
vertex 138.650757 97.500000 41.855049
endloop
endfacet
facet normal 0.000000 -1.000000 0.000002
outer loop
vertex 123.534073 97.500000 46.258820
vertex 138.650757 97.500000 41.855049
vertex 138.834915 97.500000 42.250000
endloop
endfacet
facet normal 0.000000 -1.000000 -0.000011
outer loop
vertex 158.000000 97.500000 46.866028
vertex 124.241180 97.500000 46.965927
vertex 123.534073 97.500000 46.258820
endloop
endfacet
facet normal 0.000000 -1.000000 0.000000
outer loop
vertex 143.349213 97.500000 41.855049
vertex 158.500000 97.500000 46.000000
vertex 158.000000 97.500000 46.866028
endloop
endfacet
facet normal 0.000000 -1.000000 0.000000
outer loop
vertex 143.165054 97.500000 42.250000
vertex 143.349213 97.500000 41.855049
vertex 158.000000 97.500000 46.866028
endloop
endfacet
facet normal 0.000000 -1.000000 -0.000017
outer loop
vertex 123.534073 97.500000 46.258820
vertex 138.834915 97.500000 42.250000
vertex 139.084869 97.500000 42.606968
endloop
endfacet
facet normal 0.000000 -1.000000 0.000018
outer loop
vertex 123.534073 97.500000 46.258820
vertex 139.084869 97.500000 42.606968
vertex 139.393021 97.500000 42.915112
endloop
endfacet
facet normal 0.000000 -1.000000 0.000000
outer loop
vertex 142.915100 97.500000 42.606968
vertex 143.165054 97.500000 42.250000
vertex 158.000000 97.500000 46.866028
endloop
endfacet
facet normal 0.000000 -1.000000 0.000000
outer loop
vertex 142.606949 97.500000 42.915108
vertex 142.915100 97.500000 42.606968
vertex 158.000000 97.500000 46.866028
endloop
endfacet
facet normal 0.000000 -1.000000 -0.000018
outer loop
vertex 123.534073 97.500000 46.258820
vertex 139.393021 97.500000 42.915112
vertex 139.749985 97.500000 43.165062
endloop
endfacet
facet normal 0.000000 -1.000000 -0.000004
outer loop
vertex 123.534073 97.500000 46.258820
vertex 139.749985 97.500000 43.165062
vertex 140.144928 97.500000 43.349228
endloop
endfacet
facet normal 0.000000 -1.000000 0.000000
outer loop
vertex 142.249985 97.500000 43.165062
vertex 142.606949 97.500000 42.915108
vertex 158.000000 97.500000 46.866028
endloop
endfacet
facet normal 0.000000 -1.000000 0.000000
outer loop
vertex 141.855042 97.500000 43.349228
vertex 142.249985 97.500000 43.165062
vertex 158.000000 97.500000 46.866028
endloop
endfacet
facet normal 0.000000 -1.000000 0.000034
outer loop
vertex 123.534073 97.500000 46.258820
vertex 140.144928 97.500000 43.349228
vertex 140.565872 97.500000 43.462021
endloop
endfacet
facet normal 0.000000 -1.000000 -0.000049
outer loop
vertex 123.534073 97.500000 46.258820
vertex 140.565872 97.500000 43.462021
vertex 140.999985 97.500000 43.500000
endloop
endfacet
facet normal 0.000000 -1.000000 0.000074
outer loop
vertex 141.434113 97.500000 43.462017
vertex 141.855042 97.500000 43.349228
vertex 158.000000 97.500000 46.866028
endloop
endfacet
facet normal 0.000000 -1.000000 0.000200
outer loop
vertex 123.534073 97.500000 46.258820
vertex 140.999985 97.500000 43.500000
vertex 141.434113 97.500000 43.462017
endloop
endfacet
facet normal 0.000000 -1.000000 0.000000
outer loop
vertex 141.434113 97.500000 43.462017
vertex 158.000000 97.500000 46.866028
vertex 123.534073 97.500000 46.258820
endloop
endfacet
facet normal 0.422623 0.000000 0.906306
outer loop
vertex 140.144928 97.500000 38.650768
vertex 140.144928 102.500000 38.650768
vertex 139.749985 102.500000 38.834938
endloop
endfacet
facet normal 0.422623 0.000000 0.906306
outer loop
vertex 139.749985 102.500000 38.834938
vertex 139.749985 97.500000 38.834938
vertex 140.144928 97.500000 38.650768
endloop
endfacet
facet normal -0.906317 0.000000 -0.422597
outer loop
vertex 143.165054 97.500000 42.250000
vertex 143.165054 102.500000 42.250000
vertex 143.349213 102.500000 41.855049
endloop
endfacet
facet normal -0.906317 0.000000 -0.422597
outer loop
vertex 143.349213 102.500000 41.855049
vertex 143.349213 97.500000 41.855049
vertex 143.165054 97.500000 42.250000
endloop
endfacet
facet normal -0.965922 0.000000 -0.258834
outer loop
vertex 143.349213 97.500000 41.855049
vertex 143.349213 102.500000 41.855049
vertex 143.462006 102.500000 41.434120
endloop
endfacet
facet normal -0.965924 0.000000 -0.258827
outer loop
vertex 143.462006 102.500000 41.434120
vertex 143.462006 97.500000 41.434120
vertex 143.349213 97.500000 41.855049
endloop
endfacet
facet normal 0.906317 0.000000 -0.422597
outer loop
vertex 138.650757 97.500000 41.855049
vertex 138.650757 102.500000 41.855049
vertex 138.834915 102.500000 42.250000
endloop
endfacet
facet normal 0.906317 0.000000 -0.422597
outer loop
vertex 138.834915 102.500000 42.250000
vertex 138.834915 97.500000 42.250000
vertex 138.650757 97.500000 41.855049
endloop
endfacet
facet normal -0.906317 0.000000 0.422597
outer loop
vertex 143.349213 97.500000 40.144951
vertex 143.349213 102.500000 40.144951
vertex 143.165054 102.500000 39.750000
endloop
endfacet
facet normal -0.906317 0.000000 0.422597
outer loop
vertex 143.165054 102.500000 39.750000
vertex 143.165054 97.500000 39.750000
vertex 143.349213 97.500000 40.144951
endloop
endfacet
facet normal -0.965924 0.000000 0.258827
outer loop
vertex 143.462006 97.500000 40.565880
vertex 143.462006 102.500000 40.565880
vertex 143.349213 102.500000 40.144951
endloop
endfacet
facet normal -0.965922 0.000000 0.258834
outer loop
vertex 143.349213 102.500000 40.144951
vertex 143.349213 97.500000 40.144951
vertex 143.462006 97.500000 40.565880
endloop
endfacet
facet normal -0.707103 0.000000 0.707110
outer loop
vertex 142.915100 97.500000 39.393028
vertex 142.915100 102.500000 39.393028
vertex 142.606949 102.500000 39.084885
endloop
endfacet
facet normal -0.707096 -0.000004 0.707117
outer loop
vertex 142.606949 102.500000 39.084885
vertex 142.606949 97.500000 39.084888
vertex 142.915100 97.500000 39.393028
endloop
endfacet
facet normal 0.573589 0.000000 0.819143
outer loop
vertex 139.749985 97.500000 38.834938
vertex 139.749985 102.500000 38.834938
vertex 139.393021 102.500000 39.084888
endloop
endfacet
facet normal 0.573570 0.000000 0.819156
outer loop
vertex 139.393021 102.500000 39.084888
vertex 139.393021 97.500000 39.084888
vertex 139.749985 97.500000 38.834938
endloop
endfacet
facet normal -0.258818 0.000000 -0.965926
outer loop
vertex 141.434113 97.500000 43.462017
vertex 141.434113 102.500000 43.462017
vertex 141.855042 102.500000 43.349228
endloop
endfacet
facet normal -0.258831 0.000000 -0.965923
outer loop
vertex 141.855042 102.500000 43.349228
vertex 141.855042 97.500000 43.349228
vertex 141.434113 97.500000 43.462017
endloop
endfacet
facet normal 0.996195 0.000000 -0.087153
outer loop
vertex 138.499985 97.500000 41.000000
vertex 138.499985 102.500000 41.000000
vertex 138.537964 102.500000 41.434120
endloop
endfacet
facet normal 0.996195 0.000000 -0.087153
outer loop
vertex 138.537964 102.500000 41.434120
vertex 138.537964 97.500000 41.434120
vertex 138.499985 97.500000 41.000000
endloop
endfacet
facet normal -0.422623 0.000000 -0.906306
outer loop
vertex 141.855042 97.500000 43.349228
vertex 141.855042 102.500000 43.349228
vertex 142.249985 102.500000 43.165062
endloop
endfacet
facet normal -0.422611 0.000000 -0.906311
outer loop
vertex 142.249985 102.500000 43.165062
vertex 142.249985 97.500000 43.165062
vertex 141.855042 97.500000 43.349228
endloop
endfacet
facet normal 0.707096 0.000000 0.707117
outer loop
vertex 139.393021 97.500000 39.084888
vertex 139.393021 102.500000 39.084888
vertex 139.084869 102.500000 39.393028
endloop
endfacet
facet normal 0.707096 0.000000 0.707117
outer loop
vertex 139.084869 102.500000 39.393028
vertex 139.084869 97.500000 39.393032
vertex 139.393021 97.500000 39.084888
endloop
endfacet
facet normal -0.573570 0.000000 0.819156
outer loop
vertex 142.606949 97.500000 39.084888
vertex 142.606949 102.500000 39.084885
vertex 142.249985 102.500000 38.834934
endloop
endfacet
facet normal -0.573589 0.000000 0.819143
outer loop
vertex 142.249985 102.500000 38.834934
vertex 142.249985 97.500000 38.834934
vertex 142.606949 97.500000 39.084888
endloop
endfacet
facet normal 0.087161 0.000000 -0.996194
outer loop
vertex 140.565872 97.500000 43.462021
vertex 140.565872 102.500000 43.462021
vertex 140.999985 102.500000 43.500000
endloop
endfacet
facet normal 0.087147 0.000000 -0.996195
outer loop
vertex 140.999985 102.500000 43.500000
vertex 140.999985 97.500000 43.500000
vertex 140.565872 97.500000 43.462021
endloop
endfacet
facet normal -0.422611 0.000000 0.906311
outer loop
vertex 142.249985 97.500000 38.834934
vertex 142.249985 102.500000 38.834934
vertex 141.855042 102.500000 38.650764
endloop
endfacet
facet normal -0.422646 0.000000 0.906295
outer loop
vertex 141.855042 102.500000 38.650764
vertex 141.855042 97.500000 38.650768
vertex 142.249985 97.500000 38.834934
endloop
endfacet
facet normal -0.819151 0.000000 -0.573578
outer loop
vertex 142.915100 97.500000 42.606968
vertex 142.915100 102.500000 42.606968
vertex 143.165054 102.500000 42.250000
endloop
endfacet
facet normal -0.819146 0.000000 -0.573585
outer loop
vertex 143.165054 102.500000 42.250000
vertex 143.165054 97.500000 42.250000
vertex 142.915100 97.500000 42.606968
endloop
endfacet
facet normal 0.965922 0.000000 0.258834
outer loop
vertex 138.650757 97.500000 40.144951
vertex 138.650757 102.500000 40.144951
vertex 138.537964 102.500000 40.565880
endloop
endfacet
facet normal 0.965924 0.000000 0.258827
outer loop
vertex 138.537964 102.500000 40.565880
vertex 138.537964 97.500000 40.565880
vertex 138.650757 97.500000 40.144951
endloop
endfacet
facet normal 0.965924 0.000000 -0.258827
outer loop
vertex 138.537964 97.500000 41.434120
vertex 138.537964 102.500000 41.434120
vertex 138.650757 102.500000 41.855049
endloop
endfacet
facet normal 0.965922 0.000000 -0.258834
outer loop
vertex 138.650757 102.500000 41.855049
vertex 138.650757 97.500000 41.855049
vertex 138.537964 97.500000 41.434120
endloop
endfacet
facet normal 0.819156 0.000000 0.573571
outer loop
vertex 139.084869 97.500000 39.393032
vertex 139.084869 102.500000 39.393028
vertex 138.834915 102.500000 39.750000
endloop
endfacet
facet normal 0.819146 0.000000 0.573585
outer loop
vertex 138.834915 102.500000 39.750000
vertex 138.834915 97.500000 39.750000
vertex 139.084869 97.500000 39.393032
endloop
endfacet
facet normal 0.258831 0.000000 0.965923
outer loop
vertex 140.565857 97.500000 38.537979
vertex 140.565857 102.500000 38.537979
vertex 140.144928 102.500000 38.650768
endloop
endfacet
facet normal 0.258818 0.000000 0.965926
outer loop
vertex 140.144928 102.500000 38.650768
vertex 140.144928 97.500000 38.650768
vertex 140.565857 97.500000 38.537979
endloop
endfacet
facet normal -0.707082 0.000000 -0.707131
outer loop
vertex 142.606949 97.500000 42.915108
vertex 142.606949 102.500000 42.915108
vertex 142.915100 102.500000 42.606968
endloop
endfacet
facet normal -0.707103 0.000000 -0.707110
outer loop
vertex 142.915100 102.500000 42.606968
vertex 142.915100 97.500000 42.606968
vertex 142.606949 97.500000 42.915108
endloop
endfacet
facet normal 0.258822 0.000000 -0.965925
outer loop
vertex 140.144928 97.500000 43.349228
vertex 140.144928 102.500000 43.349228
vertex 140.565872 102.500000 43.462021
endloop
endfacet
facet normal 0.258822 0.000000 -0.965925
outer loop
vertex 140.565872 102.500000 43.462021
vertex 140.565872 97.500000 43.462021
vertex 140.144928 97.500000 43.349228
endloop
endfacet
facet normal 0.573589 0.000000 -0.819143
outer loop
vertex 139.393021 97.500000 42.915112
vertex 139.393021 102.500000 42.915108
vertex 139.749985 102.500000 43.165062
endloop
endfacet
facet normal 0.573589 0.000000 -0.819143
outer loop
vertex 139.749985 102.500000 43.165062
vertex 139.749985 97.500000 43.165062
vertex 139.393021 97.500000 42.915112
endloop
endfacet
facet normal -0.819151 0.000000 0.573578
outer loop
vertex 143.165054 97.500000 39.750000
vertex 143.165054 102.500000 39.750000
vertex 142.915100 102.500000 39.393028
endloop
endfacet
facet normal -0.819151 0.000000 0.573578
outer loop
vertex 142.915100 102.500000 39.393028
vertex 142.915100 97.500000 39.393028
vertex 143.165054 97.500000 39.750000
endloop
endfacet
facet normal -0.087158 0.000000 0.996194
outer loop
vertex 141.434113 97.500000 38.537979
vertex 141.434113 102.500000 38.537979
vertex 140.999985 102.500000 38.500000
endloop
endfacet
facet normal -0.087144 0.000000 0.996196
outer loop
vertex 140.999985 102.500000 38.500000
vertex 140.999985 97.500000 38.500000
vertex 141.434113 97.500000 38.537979
endloop
endfacet
facet normal 0.819146 0.000000 -0.573585
outer loop
vertex 138.834915 97.500000 42.250000
vertex 138.834915 102.500000 42.250000
vertex 139.084869 102.500000 42.606968
endloop
endfacet
facet normal 0.819151 0.000000 -0.573578
outer loop
vertex 139.084869 102.500000 42.606968
vertex 139.084869 97.500000 42.606968
vertex 138.834915 97.500000 42.250000
endloop
endfacet
facet normal 0.000000 1.000000 0.000012
outer loop
vertex 157.500000 102.500000 46.000000
vertex 143.499985 102.500000 41.000000
vertex 143.462006 102.500000 41.434120
endloop
endfacet
facet normal 0.000000 1.000000 0.000000
outer loop
vertex 157.500000 102.500000 46.000000
vertex 143.462006 102.500000 41.434120
vertex 143.349213 102.500000 41.855049
endloop
endfacet
facet normal 0.000000 1.000000 -0.000039
outer loop
vertex 138.537964 102.500000 41.434120
vertex 138.499985 102.500000 41.000000
vertex 124.500000 102.500000 46.000000
endloop
endfacet
facet normal 0.000000 1.000000 0.000000
outer loop
vertex 138.650757 102.500000 41.855049
vertex 138.537964 102.500000 41.434120
vertex 124.500000 102.500000 46.000000
endloop
endfacet
facet normal 0.000000 1.000000 0.000002
outer loop
vertex 157.500000 102.500000 46.000000
vertex 143.349213 102.500000 41.855049
vertex 143.165054 102.500000 42.250000
endloop
endfacet
facet normal 0.000000 1.000000 -0.000018
outer loop
vertex 157.500000 102.500000 46.000000
vertex 143.165054 102.500000 42.250000
vertex 142.915100 102.500000 42.606968
endloop
endfacet
facet normal 0.000000 1.000000 0.000000
outer loop
vertex 138.834915 102.500000 42.250000
vertex 138.650757 102.500000 41.855049
vertex 124.500000 102.500000 46.000000
endloop
endfacet
facet normal 0.000000 1.000000 0.000040
outer loop
vertex 139.084869 102.500000 42.606968
vertex 138.834915 102.500000 42.250000
vertex 124.500000 102.500000 46.000000
endloop
endfacet
facet normal 0.000000 1.000000 0.000019
outer loop
vertex 157.500000 102.500000 46.000000
vertex 142.915100 102.500000 42.606968
vertex 142.606949 102.500000 42.915108
endloop
endfacet
facet normal 0.000000 1.000000 -0.000019
outer loop
vertex 157.500000 102.500000 46.000000
vertex 142.606949 102.500000 42.915108
vertex 142.249985 102.500000 43.165062
endloop
endfacet
facet normal 0.000000 1.000000 -0.000044
outer loop
vertex 139.393021 102.500000 42.915108
vertex 139.084869 102.500000 42.606968
vertex 124.500000 102.500000 46.000000
endloop
endfacet
facet normal 0.000000 1.000000 0.000051
outer loop
vertex 139.749985 102.500000 43.165062
vertex 139.393021 102.500000 42.915108
vertex 124.500000 102.500000 46.000000
endloop
endfacet
facet normal 0.000000 1.000000 -0.000004
outer loop
vertex 157.500000 102.500000 46.000000
vertex 142.249985 102.500000 43.165062
vertex 141.855042 102.500000 43.349228
endloop
endfacet
facet normal 0.000000 1.000000 0.000053
outer loop
vertex 157.500000 102.500000 46.000000
vertex 141.855042 102.500000 43.349228
vertex 141.434113 102.500000 43.462017
endloop
endfacet
facet normal 0.000000 1.000000 0.000000
outer loop
vertex 140.144928 102.500000 43.349228
vertex 139.749985 102.500000 43.165062
vertex 124.500000 102.500000 46.000000
endloop
endfacet
facet normal 0.000000 1.000000 -0.000085
outer loop
vertex 140.565872 102.500000 43.462021
vertex 140.144928 102.500000 43.349228
vertex 124.500000 102.500000 46.000000
endloop
endfacet
facet normal 0.000000 1.000000 0.000000
outer loop
vertex 124.500000 102.500000 46.000000
vertex 157.500000 102.500000 46.000000
vertex 141.434113 102.500000 43.462017
endloop
endfacet
facet normal 0.000000 1.000000 0.000143
outer loop
vertex 140.999985 102.500000 43.500000
vertex 140.565872 102.500000 43.462021
vertex 124.500000 102.500000 46.000000
endloop
endfacet
facet normal 0.000000 1.000000 -0.000532
outer loop
vertex 141.434113 102.500000 43.462017
vertex 140.999985 102.500000 43.500000
vertex 124.500000 102.500000 46.000000
endloop
endfacet
facet normal -0.996195 0.000000 -0.087153
outer loop
vertex 143.462006 97.500000 41.434120
vertex 143.462006 102.500000 41.434120
vertex 143.499985 102.500000 41.000000
endloop
endfacet
facet normal -0.996195 0.000000 -0.087153
outer loop
vertex 143.499985 102.500000 41.000000
vertex 143.499985 97.500000 41.000000
vertex 143.462006 97.500000 41.434120
endloop
endfacet
facet normal -0.087144 0.000000 -0.996196
outer loop
vertex 140.999985 97.500000 43.500000
vertex 140.999985 102.500000 43.500000
vertex 141.434113 102.500000 43.462017
endloop
endfacet
facet normal -0.087172 0.000000 -0.996193
outer loop
vertex 141.434113 102.500000 43.462017
vertex 141.434113 97.500000 43.462017
vertex 140.999985 97.500000 43.500000
endloop
endfacet
facet normal 0.906317 0.000000 0.422597
outer loop
vertex 138.834915 97.500000 39.750000
vertex 138.834915 102.500000 39.750000
vertex 138.650757 102.500000 40.144951
endloop
endfacet
facet normal 0.906317 0.000000 0.422597
outer loop
vertex 138.650757 102.500000 40.144951
vertex 138.650757 97.500000 40.144951
vertex 138.834915 97.500000 39.750000
endloop
endfacet
facet normal -0.258791 0.000000 0.965933
outer loop
vertex 141.855042 97.500000 38.650768
vertex 141.855042 102.500000 38.650764
vertex 141.434113 102.500000 38.537979
endloop
endfacet
facet normal -0.258831 0.000000 0.965923
outer loop
vertex 141.434113 102.500000 38.537979
vertex 141.434113 97.500000 38.537979
vertex 141.855042 97.500000 38.650768
endloop
endfacet
facet normal -0.573589 0.000000 -0.819143
outer loop
vertex 142.249985 97.500000 43.165062
vertex 142.249985 102.500000 43.165062
vertex 142.606949 102.500000 42.915108
endloop
endfacet
facet normal -0.573589 0.000000 -0.819143
outer loop
vertex 142.606949 102.500000 42.915108
vertex 142.606949 97.500000 42.915108
vertex 142.249985 97.500000 43.165062
endloop
endfacet
facet normal 0.707103 0.000000 -0.707110
outer loop
vertex 139.084869 97.500000 42.606968
vertex 139.084869 102.500000 42.606968
vertex 139.393021 102.500000 42.915108
endloop
endfacet
facet normal 0.707082 0.000000 -0.707131
outer loop
vertex 139.393021 102.500000 42.915108
vertex 139.393021 97.500000 42.915112
vertex 139.084869 97.500000 42.606968
endloop
endfacet
facet normal 0.996195 0.000000 0.087153
outer loop
vertex 138.537964 97.500000 40.565880
vertex 138.537964 102.500000 40.565880
vertex 138.499985 102.500000 41.000000
endloop
endfacet
facet normal 0.996195 0.000000 0.087153
outer loop
vertex 138.499985 102.500000 41.000000
vertex 138.499985 97.500000 41.000000
vertex 138.537964 97.500000 40.565880
endloop
endfacet
facet normal 0.422611 0.000000 -0.906311
outer loop
vertex 139.749985 97.500000 43.165062
vertex 139.749985 102.500000 43.165062
vertex 140.144928 102.500000 43.349228
endloop
endfacet
facet normal 0.422623 0.000000 -0.906306
outer loop
vertex 140.144928 102.500000 43.349228
vertex 140.144928 97.500000 43.349228
vertex 139.749985 97.500000 43.165062
endloop
endfacet
facet normal 0.087144 0.000000 0.996196
outer loop
vertex 140.999985 97.500000 38.500000
vertex 140.999985 102.500000 38.500000
vertex 140.565857 102.500000 38.537979
endloop
endfacet
facet normal 0.087158 0.000000 0.996194
outer loop
vertex 140.565857 102.500000 38.537979
vertex 140.565857 97.500000 38.537979
vertex 140.999985 97.500000 38.500000
endloop
endfacet
endsolid Exported from Blender-2.78 (sub 0)
